<ttFont>
    <TTGlyph name="A" xMin="8" yMin="0" xMax="631" yMax="713">
      <contour>
        <pt x="8" y="9" on="1"/>
        <pt x="8" y="25" on="0"/>
        <pt x="21" y="56" on="0"/>
        <pt x="39" y="85" on="0"/>
        <pt x="60" y="111" on="0"/>
        <pt x="68" y="122" on="1"/>
        <pt x="117" y="193" on="0"/>
        <pt x="193" y="330" on="0"/>
        <pt x="257" y="471" on="0"/>
        <pt x="313" y="618" on="0"/>
        <pt x="342" y="697" on="1"/>
        <pt x="346" y="706" on="0"/>
        <pt x="355" y="713" on="0"/>
        <pt x="363" y="713" on="1"/>
        <pt x="373" y="713" on="0"/>
        <pt x="387" y="694" on="0"/>
        <pt x="394" y="670" on="0"/>
        <pt x="397" y="647" on="0"/>
        <pt x="397" y="643" on="1"/>
        <pt x="398" y="636" on="0"/>
        <pt x="400" y="597" on="0"/>
        <pt x="402" y="544" on="0"/>
        <pt x="405" y="482" on="0"/>
        <pt x="408" y="429" on="0"/>
        <pt x="409" y="390" on="0"/>
        <pt x="410" y="382" on="1"/>
        <pt x="410" y="379" on="0"/>
        <pt x="414" y="363" on="0"/>
        <pt x="418" y="346" on="0"/>
        <pt x="423" y="330" on="0"/>
        <pt x="425" y="328" on="1"/>
        <pt x="425" y="327" on="0"/>
        <pt x="434" y="319" on="0"/>
        <pt x="444" y="310" on="0"/>
        <pt x="452" y="302" on="0"/>
        <pt x="452" y="301" on="1"/>
        <pt x="453" y="299" on="0"/>
        <pt x="453" y="283" on="0"/>
        <pt x="452" y="265" on="0"/>
        <pt x="452" y="248" on="0"/>
        <pt x="452" y="247" on="1"/>
        <pt x="457" y="229" on="0"/>
        <pt x="487" y="183" on="0"/>
        <pt x="527" y="133" on="0"/>
        <pt x="571" y="85" on="0"/>
        <pt x="607" y="47" on="0"/>
        <pt x="631" y="22" on="0"/>
        <pt x="631" y="20" on="1"/>
        <pt x="631" y="10" on="0"/>
        <pt x="614" y="0" on="0"/>
        <pt x="602" y="0" on="1"/>
        <pt x="579" y="0" on="0"/>
        <pt x="530" y="36" on="0"/>
        <pt x="484" y="91" on="0"/>
        <pt x="441" y="155" on="0"/>
        <pt x="409" y="210" on="0"/>
        <pt x="386" y="247" on="0"/>
        <pt x="383" y="247" on="1"/>
        <pt x="220" y="247" on="1"/>
        <pt x="193" y="247" on="0"/>
        <pt x="157" y="211" on="0"/>
        <pt x="129" y="158" on="0"/>
        <pt x="106" y="97" on="0"/>
        <pt x="76" y="44" on="0"/>
        <pt x="38" y="9" on="0"/>
      </contour>
      <contour>
        <pt x="342" y="588" on="1"/>
        <pt x="341" y="587" on="0"/>
        <pt x="337" y="579" on="0"/>
        <pt x="333" y="571" on="0"/>
        <pt x="328" y="562" on="0"/>
        <pt x="328" y="561" on="1"/>
        <pt x="320" y="544" on="0"/>
        <pt x="301" y="492" on="0"/>
        <pt x="290" y="465" on="1"/>
        <pt x="269" y="411" on="1"/>
        <pt x="259" y="384" on="0"/>
        <pt x="243" y="342" on="0"/>
        <pt x="233" y="315" on="0"/>
        <pt x="233" y="314" on="1"/>
        <pt x="233" y="301" on="1"/>
        <pt x="371" y="301" on="1"/>
      </contour>
    </TTGlyph>
    <TTGlyph name="AE" xMin="8" yMin="4" xMax="815" yMax="713">
      <contour>
        <pt x="8" y="9" on="1"/>
        <pt x="8" y="25" on="0"/>
        <pt x="21" y="56" on="0"/>
        <pt x="39" y="85" on="0"/>
        <pt x="60" y="111" on="0"/>
        <pt x="68" y="122" on="1"/>
        <pt x="117" y="193" on="0"/>
        <pt x="193" y="330" on="0"/>
        <pt x="257" y="471" on="0"/>
        <pt x="313" y="618" on="0"/>
        <pt x="342" y="697" on="1"/>
        <pt x="346" y="706" on="0"/>
        <pt x="355" y="713" on="0"/>
        <pt x="363" y="713" on="1"/>
        <pt x="373" y="713" on="0"/>
        <pt x="392" y="696" on="0"/>
        <pt x="407" y="673" on="0"/>
        <pt x="415" y="652" on="0"/>
        <pt x="415" y="649" on="1"/>
        <pt x="415" y="626" on="1"/>
        <pt x="415" y="610" on="0"/>
        <pt x="414" y="565" on="0"/>
        <pt x="412" y="513" on="0"/>
        <pt x="411" y="488" on="1"/>
        <pt x="419" y="541" on="1"/>
        <pt x="459" y="555" on="0"/>
        <pt x="527" y="573" on="0"/>
        <pt x="592" y="582" on="0"/>
        <pt x="659" y="586" on="0"/>
        <pt x="697" y="586" on="1"/>
        <pt x="704" y="586" on="0"/>
        <pt x="728" y="585" on="0"/>
        <pt x="752" y="584" on="0"/>
        <pt x="772" y="583" on="0"/>
        <pt x="775" y="582" on="1"/>
        <pt x="802" y="569" on="1"/>
        <pt x="787" y="554" on="1"/>
        <pt x="780" y="555" on="0"/>
        <pt x="742" y="557" on="0"/>
        <pt x="697" y="557" on="0"/>
        <pt x="659" y="555" on="0"/>
        <pt x="652" y="554" on="1"/>
        <pt x="637" y="553" on="0"/>
        <pt x="598" y="546" on="0"/>
        <pt x="554" y="538" on="0"/>
        <pt x="513" y="530" on="0"/>
        <pt x="480" y="522" on="0"/>
        <pt x="460" y="516" on="0"/>
        <pt x="460" y="514" on="1"/>
        <pt x="460" y="336" on="1"/>
        <pt x="724" y="336" on="1"/>
        <pt x="724" y="326" on="0"/>
        <pt x="693" y="312" on="0"/>
        <pt x="643" y="303" on="0"/>
        <pt x="583" y="298" on="0"/>
        <pt x="527" y="292" on="0"/>
        <pt x="482" y="286" on="0"/>
        <pt x="473" y="282" on="1"/>
        <pt x="473" y="276" on="0"/>
        <pt x="472" y="253" on="0"/>
        <pt x="472" y="227" on="0"/>
        <pt x="472" y="215" on="1"/>
        <pt x="472" y="199" on="1"/>
        <pt x="472" y="182" on="0"/>
        <pt x="470" y="135" on="0"/>
        <pt x="476" y="92" on="0"/>
        <pt x="499" y="61" on="0"/>
        <pt x="525" y="61" on="1"/>
        <pt x="592" y="61" on="0"/>
        <pt x="727" y="76" on="0"/>
        <pt x="795" y="76" on="1"/>
        <pt x="815" y="76" on="1"/>
        <pt x="808" y="67" on="0"/>
        <pt x="787" y="47" on="0"/>
        <pt x="760" y="31" on="0"/>
        <pt x="732" y="22" on="0"/>
        <pt x="719" y="22" on="1"/>
        <pt x="500" y="22" on="1"/>
        <pt x="484" y="22" on="0"/>
        <pt x="470" y="27" on="1"/>
        <pt x="470" y="23" on="1"/>
        <pt x="470" y="13" on="0"/>
        <pt x="454" y="4" on="0"/>
        <pt x="441" y="4" on="1"/>
        <pt x="418" y="4" on="0"/>
        <pt x="392" y="39" on="0"/>
        <pt x="382" y="93" on="0"/>
        <pt x="382" y="157" on="0"/>
        <pt x="384" y="211" on="0"/>
        <pt x="386" y="247" on="0"/>
        <pt x="383" y="247" on="1"/>
        <pt x="220" y="247" on="1"/>
        <pt x="193" y="247" on="0"/>
        <pt x="157" y="211" on="0"/>
        <pt x="129" y="158" on="0"/>
        <pt x="106" y="97" on="0"/>
        <pt x="76" y="44" on="0"/>
        <pt x="38" y="9" on="0"/>
      </contour>
      <contour>
        <pt x="328" y="561" on="1"/>
        <pt x="320" y="544" on="0"/>
        <pt x="301" y="492" on="0"/>
        <pt x="290" y="465" on="1"/>
        <pt x="269" y="411" on="1"/>
        <pt x="259" y="384" on="0"/>
        <pt x="243" y="342" on="0"/>
        <pt x="233" y="315" on="0"/>
        <pt x="233" y="314" on="1"/>
        <pt x="233" y="301" on="1"/>
        <pt x="371" y="301" on="1"/>
        <pt x="342" y="588" on="1"/>
      </contour>
    </TTGlyph>
    <TTGlyph name="AEacute" xMin="8" yMin="4" xMax="815" yMax="896">
      <component glyphName="AE" x="0" y="0" flags="0x1204"/>
      <component glyphName="acute" x="376" y="163" flags="0x1004"/>
    </TTGlyph>
    <TTGlyph name="Aacute" xMin="8" yMin="0" xMax="631" yMax="860">
      <component glyphName="A" x="0" y="0" flags="0x1204"/>
      <component glyphName="acute" x="120" y="127" flags="0x1004"/>
    </TTGlyph>
    <TTGlyph name="Abreve" xMin="8" yMin="0" xMax="631" yMax="912">
      <component glyphName="A" x="0" y="0" flags="0x1204"/>
      <component glyphName="breve" x="176" y="218" flags="0x1004"/>
    </TTGlyph>
    <TTGlyph name="Acircumflex" xMin="8" yMin="0" xMax="631" yMax="993">
      <component glyphName="A" x="0" y="0" flags="0x1204"/>
      <component glyphName="circumflex" x="62" y="153" flags="0x1004"/>
    </TTGlyph>
    <TTGlyph name="Adieresis" xMin="8" yMin="0" xMax="631" yMax="781">
      <component glyphName="A" x="0" y="0" flags="0x1204"/>
      <component glyphName="dieresis" x="62" y="224" flags="0x1004"/>
    </TTGlyph>
    <TTGlyph name="Agrave" xMin="4" yMin="-10" xMax="627" yMax="905">
      <component glyphName="A" x="-4" y="-10" flags="0x1004"/>
      <component glyphName="grave" x="141" y="172" flags="0x1004"/>
    </TTGlyph>
    <TTGlyph name="Amacron" xMin="8" yMin="0" xMax="631" yMax="814">
      <component glyphName="A" x="0" y="0" flags="0x1204"/>
      <component glyphName="macron" x="189" y="314" flags="0x1004"/>
    </TTGlyph>
    <TTGlyph name="Aogonek" xMin="8" yMin="-149" xMax="753" yMax="713">
      <contour>
        <pt x="733" y="-134" on="1"/>
        <pt x="719" y="-135" on="0"/>
        <pt x="685" y="-143" on="0"/>
        <pt x="648" y="-149" on="0"/>
        <pt x="612" y="-149" on="0"/>
        <pt x="584" y="-131" on="0"/>
        <pt x="566" y="-95" on="0"/>
        <pt x="566" y="-61" on="1"/>
        <pt x="567" y="-26" on="0"/>
        <pt x="573" y="-7" on="1"/>
        <pt x="576" y="0" on="0"/>
        <pt x="578" y="4" on="1"/>
        <pt x="566" y="9" on="0"/>
        <pt x="554" y="18" on="1"/>
        <pt x="530" y="36" on="0"/>
        <pt x="484" y="91" on="0"/>
        <pt x="441" y="155" on="0"/>
        <pt x="409" y="210" on="0"/>
        <pt x="386" y="247" on="0"/>
        <pt x="383" y="247" on="1"/>
        <pt x="220" y="247" on="1"/>
        <pt x="193" y="247" on="0"/>
        <pt x="157" y="211" on="0"/>
        <pt x="129" y="158" on="0"/>
        <pt x="106" y="97" on="0"/>
        <pt x="76" y="44" on="0"/>
        <pt x="38" y="9" on="0"/>
        <pt x="8" y="9" on="1"/>
        <pt x="8" y="25" on="0"/>
        <pt x="21" y="56" on="0"/>
        <pt x="39" y="85" on="0"/>
        <pt x="60" y="111" on="0"/>
        <pt x="68" y="122" on="1"/>
        <pt x="117" y="193" on="0"/>
        <pt x="193" y="330" on="0"/>
        <pt x="257" y="471" on="0"/>
        <pt x="313" y="618" on="0"/>
        <pt x="342" y="697" on="1"/>
        <pt x="346" y="706" on="0"/>
        <pt x="355" y="713" on="0"/>
        <pt x="363" y="713" on="1"/>
        <pt x="373" y="713" on="0"/>
        <pt x="387" y="694" on="0"/>
        <pt x="394" y="670" on="0"/>
        <pt x="397" y="647" on="0"/>
        <pt x="397" y="643" on="1"/>
        <pt x="398" y="636" on="0"/>
        <pt x="400" y="597" on="0"/>
        <pt x="402" y="544" on="0"/>
        <pt x="405" y="482" on="0"/>
        <pt x="408" y="429" on="0"/>
        <pt x="409" y="390" on="0"/>
        <pt x="410" y="382" on="1"/>
        <pt x="410" y="379" on="0"/>
        <pt x="414" y="363" on="0"/>
        <pt x="418" y="346" on="0"/>
        <pt x="423" y="330" on="0"/>
        <pt x="425" y="328" on="1"/>
        <pt x="425" y="327" on="0"/>
        <pt x="434" y="319" on="0"/>
        <pt x="444" y="310" on="0"/>
        <pt x="452" y="302" on="0"/>
        <pt x="452" y="301" on="1"/>
        <pt x="453" y="299" on="0"/>
        <pt x="453" y="283" on="0"/>
        <pt x="452" y="265" on="0"/>
        <pt x="452" y="248" on="0"/>
        <pt x="452" y="247" on="1"/>
        <pt x="457" y="229" on="0"/>
        <pt x="487" y="183" on="0"/>
        <pt x="527" y="133" on="0"/>
        <pt x="571" y="85" on="0"/>
        <pt x="607" y="47" on="0"/>
        <pt x="631" y="22" on="0"/>
        <pt x="631" y="20" on="1"/>
        <pt x="631" y="10" on="0"/>
        <pt x="622" y="4" on="1"/>
        <pt x="620" y="4" on="0"/>
        <pt x="617" y="2" on="1"/>
        <pt x="618" y="-3" on="0"/>
        <pt x="617" y="-9" on="1"/>
        <pt x="616" y="-21" on="0"/>
        <pt x="606" y="-32" on="1"/>
        <pt x="606" y="-49" on="1"/>
        <pt x="606" y="-58" on="0"/>
        <pt x="610" y="-74" on="0"/>
        <pt x="619" y="-87" on="0"/>
        <pt x="627" y="-90" on="1"/>
        <pt x="646" y="-95" on="0"/>
        <pt x="685" y="-91" on="0"/>
        <pt x="719" y="-83" on="0"/>
        <pt x="746" y="-76" on="0"/>
        <pt x="757" y="-82" on="0"/>
        <pt x="749" y="-107" on="0"/>
      </contour>
      <contour>
        <pt x="342" y="588" on="1"/>
        <pt x="341" y="587" on="0"/>
        <pt x="337" y="579" on="0"/>
        <pt x="333" y="571" on="0"/>
        <pt x="328" y="562" on="0"/>
        <pt x="328" y="561" on="1"/>
        <pt x="320" y="544" on="0"/>
        <pt x="301" y="492" on="0"/>
        <pt x="290" y="465" on="1"/>
        <pt x="269" y="411" on="1"/>
        <pt x="259" y="384" on="0"/>
        <pt x="243" y="342" on="0"/>
        <pt x="233" y="315" on="0"/>
        <pt x="233" y="314" on="1"/>
        <pt x="233" y="301" on="1"/>
        <pt x="371" y="301" on="1"/>
      </contour>
    </TTGlyph>
    <TTGlyph name="Aring" xMin="8" yMin="0" xMax="631" yMax="813">
      <contour>
        <pt x="298" y="776" on="1"/>
        <pt x="301" y="798" on="0"/>
        <pt x="321" y="814" on="0"/>
        <pt x="350" y="811" on="0"/>
        <pt x="382" y="791" on="0"/>
        <pt x="408" y="763" on="0"/>
        <pt x="423" y="733" on="0"/>
        <pt x="419" y="706" on="0"/>
        <pt x="405" y="697" on="1"/>
        <pt x="398" y="693" on="0"/>
        <pt x="387" y="691" on="1"/>
        <pt x="389" y="687" on="0"/>
        <pt x="390" y="681" on="1"/>
        <pt x="394" y="670" on="0"/>
        <pt x="397" y="647" on="0"/>
        <pt x="397" y="643" on="1"/>
        <pt x="398" y="636" on="0"/>
        <pt x="400" y="597" on="0"/>
        <pt x="402" y="544" on="0"/>
        <pt x="405" y="482" on="0"/>
        <pt x="408" y="429" on="0"/>
        <pt x="409" y="390" on="0"/>
        <pt x="410" y="382" on="1"/>
        <pt x="410" y="379" on="0"/>
        <pt x="414" y="363" on="0"/>
        <pt x="418" y="346" on="0"/>
        <pt x="423" y="330" on="0"/>
        <pt x="425" y="328" on="1"/>
        <pt x="425" y="327" on="0"/>
        <pt x="434" y="319" on="0"/>
        <pt x="444" y="310" on="0"/>
        <pt x="452" y="302" on="0"/>
        <pt x="452" y="301" on="1"/>
        <pt x="453" y="299" on="0"/>
        <pt x="453" y="283" on="0"/>
        <pt x="452" y="265" on="0"/>
        <pt x="452" y="248" on="0"/>
        <pt x="452" y="247" on="1"/>
        <pt x="457" y="229" on="0"/>
        <pt x="487" y="183" on="0"/>
        <pt x="527" y="133" on="0"/>
        <pt x="571" y="85" on="0"/>
        <pt x="607" y="47" on="0"/>
        <pt x="631" y="22" on="0"/>
        <pt x="631" y="20" on="1"/>
        <pt x="631" y="10" on="0"/>
        <pt x="614" y="0" on="0"/>
        <pt x="602" y="0" on="1"/>
        <pt x="579" y="0" on="0"/>
        <pt x="530" y="36" on="0"/>
        <pt x="484" y="91" on="0"/>
        <pt x="441" y="155" on="0"/>
        <pt x="409" y="210" on="0"/>
        <pt x="386" y="247" on="0"/>
        <pt x="383" y="247" on="1"/>
        <pt x="220" y="247" on="1"/>
        <pt x="193" y="247" on="0"/>
        <pt x="157" y="211" on="0"/>
        <pt x="129" y="158" on="0"/>
        <pt x="106" y="97" on="0"/>
        <pt x="76" y="44" on="0"/>
        <pt x="38" y="9" on="0"/>
        <pt x="8" y="9" on="1"/>
        <pt x="8" y="25" on="0"/>
        <pt x="21" y="56" on="0"/>
        <pt x="39" y="85" on="0"/>
        <pt x="60" y="111" on="0"/>
        <pt x="68" y="122" on="1"/>
        <pt x="117" y="193" on="0"/>
        <pt x="193" y="330" on="0"/>
        <pt x="257" y="471" on="0"/>
        <pt x="284" y="544" on="1"/>
        <pt x="312" y="616" on="0"/>
        <pt x="340" y="693" on="1"/>
        <pt x="327" y="699" on="0"/>
        <pt x="316" y="714" on="1"/>
        <pt x="298" y="739" on="0"/>
      </contour>
      <contour>
        <pt x="342" y="588" on="1"/>
        <pt x="341" y="587" on="0"/>
        <pt x="337" y="579" on="0"/>
        <pt x="333" y="571" on="0"/>
        <pt x="328" y="562" on="0"/>
        <pt x="328" y="561" on="1"/>
        <pt x="320" y="544" on="0"/>
        <pt x="301" y="492" on="0"/>
        <pt x="290" y="465" on="1"/>
        <pt x="269" y="411" on="1"/>
        <pt x="259" y="384" on="0"/>
        <pt x="243" y="342" on="0"/>
        <pt x="233" y="315" on="0"/>
        <pt x="233" y="314" on="1"/>
        <pt x="233" y="301" on="1"/>
        <pt x="371" y="301" on="1"/>
      </contour>
      <contour>
        <pt x="365" y="718" on="1"/>
        <pt x="385" y="718" on="0"/>
        <pt x="398" y="734" on="0"/>
        <pt x="391" y="756" on="0"/>
        <pt x="371" y="778" on="0"/>
        <pt x="346" y="791" on="0"/>
        <pt x="322" y="789" on="0"/>
        <pt x="317" y="776" on="1"/>
        <pt x="315" y="745" on="0"/>
        <pt x="344" y="718" on="0"/>
      </contour>
    </TTGlyph>
    <TTGlyph name="Atilde" xMin="8" yMin="0" xMax="631" yMax="833">
      <component glyphName="A" x="0" y="0" flags="0x1204"/>
      <component glyphName="tilde" x="85" y="97" flags="0x1004"/>
    </TTGlyph>
    <TTGlyph name="B" xMin="28" yMin="-1" xMax="454" yMax="631">
      <contour>
        <pt x="41" y="534" on="1"/>
        <pt x="42" y="573" on="0"/>
        <pt x="74" y="614" on="0"/>
        <pt x="123" y="630" on="0"/>
        <pt x="185" y="631" on="0"/>
        <pt x="218" y="631" on="1"/>
        <pt x="247" y="631" on="0"/>
        <pt x="289" y="622" on="0"/>
        <pt x="317" y="598" on="0"/>
        <pt x="330" y="560" on="0"/>
        <pt x="330" y="530" on="1"/>
        <pt x="330" y="490" on="0"/>
        <pt x="291" y="436" on="0"/>
        <pt x="260" y="410" on="1"/>
        <pt x="282" y="392" on="0"/>
        <pt x="328" y="378" on="0"/>
        <pt x="371" y="370" on="0"/>
        <pt x="409" y="360" on="0"/>
        <pt x="437" y="335" on="0"/>
        <pt x="454" y="285" on="0"/>
        <pt x="454" y="242" on="1"/>
        <pt x="454" y="188" on="0"/>
        <pt x="409" y="99" on="0"/>
        <pt x="336" y="35" on="0"/>
        <pt x="238" y="-1" on="0"/>
        <pt x="184" y="-1" on="1"/>
        <pt x="180" y="-1" on="0"/>
        <pt x="166" y="0" on="0"/>
        <pt x="165" y="0" on="1"/>
        <pt x="151" y="4" on="0"/>
        <pt x="109" y="15" on="0"/>
        <pt x="69" y="29" on="0"/>
        <pt x="41" y="39" on="0"/>
        <pt x="41" y="40" on="1"/>
        <pt x="28" y="109" on="1"/>
      </contour>
      <contour>
        <pt x="255" y="357" on="1"/>
        <pt x="236" y="357" on="1"/>
        <pt x="222" y="357" on="0"/>
        <pt x="187" y="355" on="0"/>
        <pt x="148" y="349" on="0"/>
        <pt x="117" y="340" on="0"/>
        <pt x="95" y="325" on="0"/>
        <pt x="95" y="314" on="1"/>
        <pt x="95" y="55" on="1"/>
        <pt x="95" y="53" on="0"/>
        <pt x="102" y="49" on="0"/>
        <pt x="112" y="44" on="0"/>
        <pt x="120" y="41" on="0"/>
        <pt x="123" y="40" on="1"/>
        <pt x="129" y="40" on="1"/>
        <pt x="133" y="40" on="0"/>
        <pt x="146" y="40" on="0"/>
        <pt x="152" y="40" on="1"/>
        <pt x="163" y="40" on="1"/>
        <pt x="209" y="40" on="0"/>
        <pt x="293" y="61" on="0"/>
        <pt x="360" y="107" on="0"/>
        <pt x="399" y="179" on="0"/>
        <pt x="399" y="230" on="1"/>
        <pt x="399" y="268" on="0"/>
        <pt x="382" y="318" on="0"/>
        <pt x="346" y="346" on="0"/>
        <pt x="291" y="357" on="0"/>
      </contour>
      <contour>
        <pt x="209" y="589" on="1"/>
        <pt x="198" y="589" on="0"/>
        <pt x="159" y="590" on="0"/>
        <pt x="122" y="584" on="0"/>
        <pt x="95" y="566" on="0"/>
        <pt x="95" y="547" on="1"/>
        <pt x="95" y="380" on="1"/>
        <pt x="119" y="380" on="0"/>
        <pt x="181" y="405" on="0"/>
        <pt x="238" y="446" on="0"/>
        <pt x="276" y="498" on="0"/>
        <pt x="276" y="525" on="1"/>
        <pt x="276" y="562" on="0"/>
        <pt x="246" y="589" on="0"/>
      </contour>
    </TTGlyph>
    <TTGlyph name="C" xMin="20" yMin="-2" xMax="516" yMax="616">
      <contour>
        <pt x="20" y="252" on="1"/>
        <pt x="20" y="332" on="0"/>
        <pt x="68" y="475" on="0"/>
        <pt x="103" y="547" on="1"/>
        <pt x="120" y="567" on="0"/>
        <pt x="144" y="593" on="0"/>
        <pt x="171" y="609" on="0"/>
        <pt x="204" y="616" on="0"/>
        <pt x="228" y="616" on="1"/>
        <pt x="251" y="616" on="0"/>
        <pt x="310" y="603" on="0"/>
        <pt x="363" y="575" on="0"/>
        <pt x="399" y="532" on="0"/>
        <pt x="399" y="502" on="1"/>
        <pt x="379" y="502" on="0"/>
        <pt x="338" y="529" on="0"/>
        <pt x="295" y="561" on="0"/>
        <pt x="244" y="588" on="0"/>
        <pt x="211" y="588" on="1"/>
        <pt x="190" y="588" on="0"/>
        <pt x="152" y="551" on="0"/>
        <pt x="121" y="492" on="0"/>
        <pt x="98" y="420" on="0"/>
        <pt x="83" y="350" on="0"/>
        <pt x="75" y="290" on="0"/>
        <pt x="75" y="273" on="1"/>
        <pt x="75" y="218" on="0"/>
        <pt x="109" y="131" on="0"/>
        <pt x="171" y="72" on="0"/>
        <pt x="260" y="40" on="0"/>
        <pt x="315" y="40" on="1"/>
        <pt x="353" y="40" on="0"/>
        <pt x="412" y="58" on="0"/>
        <pt x="456" y="79" on="0"/>
        <pt x="485" y="96" on="0"/>
        <pt x="492" y="96" on="1"/>
        <pt x="500" y="96" on="0"/>
        <pt x="510" y="89" on="0"/>
        <pt x="514" y="78" on="0"/>
        <pt x="516" y="65" on="0"/>
        <pt x="516" y="58" on="1"/>
        <pt x="516" y="40" on="0"/>
        <pt x="488" y="17" on="0"/>
        <pt x="445" y="4" on="0"/>
        <pt x="391" y="-2" on="0"/>
        <pt x="340" y="-2" on="0"/>
        <pt x="296" y="-1" on="0"/>
        <pt x="284" y="-1" on="1"/>
        <pt x="228" y="-1" on="0"/>
        <pt x="131" y="36" on="0"/>
        <pt x="60" y="103" on="0"/>
        <pt x="20" y="195" on="0"/>
      </contour>
    </TTGlyph>
    <TTGlyph name="Cacute" xMin="20" yMin="-2" xMax="516" yMax="776">
      <component glyphName="C" x="0" y="0" flags="0x1204"/>
      <component glyphName="acute" x="42" y="43" flags="0x1004"/>
    </TTGlyph>
    <TTGlyph name="Ccaron" xMin="20" yMin="-2" xMax="516" yMax="830">
      <component glyphName="C" x="0" y="0" flags="0x1204"/>
      <component glyphName="caron" x="-40" y="101" flags="0x1004"/>
    </TTGlyph>
    <TTGlyph name="Ccedilla" xMin="20" yMin="-325" xMax="516" yMax="616">
      <contour>
        <pt x="153" y="-243" on="1"/>
        <pt x="153" y="-242" on="0"/>
        <pt x="152" y="-234" on="0"/>
        <pt x="152" y="-229" on="1"/>
        <pt x="152" y="-225" on="1"/>
        <pt x="157" y="-230" on="0"/>
        <pt x="170" y="-237" on="1"/>
        <pt x="185" y="-246" on="0"/>
        <pt x="228" y="-263" on="0"/>
        <pt x="272" y="-273" on="0"/>
        <pt x="311" y="-272" on="0"/>
        <pt x="335" y="-253" on="0"/>
        <pt x="337" y="-212" on="0"/>
        <pt x="322" y="-176" on="1"/>
        <pt x="313" y="-158" on="0"/>
        <pt x="282" y="-146" on="0"/>
        <pt x="246" y="-141" on="0"/>
        <pt x="207" y="-139" on="0"/>
        <pt x="176" y="-123" on="0"/>
        <pt x="157" y="-89" on="0"/>
        <pt x="157" y="-56" on="1"/>
        <pt x="150" y="-5" on="0"/>
        <pt x="153" y="21" on="1"/>
        <pt x="154" y="25" on="0"/>
        <pt x="155" y="28" on="1"/>
        <pt x="122" y="44" on="0"/>
        <pt x="95" y="68" on="1"/>
        <pt x="60" y="103" on="0"/>
        <pt x="20" y="195" on="0"/>
        <pt x="20" y="252" on="1"/>
        <pt x="20" y="332" on="0"/>
        <pt x="68" y="475" on="0"/>
        <pt x="103" y="547" on="1"/>
        <pt x="120" y="567" on="0"/>
        <pt x="144" y="593" on="0"/>
        <pt x="171" y="609" on="0"/>
        <pt x="204" y="616" on="0"/>
        <pt x="228" y="616" on="1"/>
        <pt x="251" y="616" on="0"/>
        <pt x="310" y="603" on="0"/>
        <pt x="363" y="575" on="0"/>
        <pt x="399" y="532" on="0"/>
        <pt x="399" y="502" on="1"/>
        <pt x="379" y="502" on="0"/>
        <pt x="338" y="529" on="0"/>
        <pt x="295" y="561" on="0"/>
        <pt x="244" y="588" on="0"/>
        <pt x="211" y="588" on="1"/>
        <pt x="190" y="588" on="0"/>
        <pt x="152" y="551" on="0"/>
        <pt x="121" y="492" on="0"/>
        <pt x="98" y="420" on="0"/>
        <pt x="83" y="350" on="0"/>
        <pt x="75" y="290" on="0"/>
        <pt x="75" y="273" on="1"/>
        <pt x="75" y="218" on="0"/>
        <pt x="109" y="131" on="0"/>
        <pt x="171" y="72" on="0"/>
        <pt x="260" y="40" on="0"/>
        <pt x="315" y="40" on="1"/>
        <pt x="353" y="40" on="0"/>
        <pt x="412" y="58" on="0"/>
        <pt x="456" y="79" on="0"/>
        <pt x="485" y="96" on="0"/>
        <pt x="492" y="96" on="1"/>
        <pt x="500" y="96" on="0"/>
        <pt x="510" y="89" on="0"/>
        <pt x="514" y="78" on="0"/>
        <pt x="516" y="65" on="0"/>
        <pt x="516" y="58" on="1"/>
        <pt x="516" y="40" on="0"/>
        <pt x="488" y="17" on="0"/>
        <pt x="445" y="4" on="0"/>
        <pt x="391" y="-2" on="0"/>
        <pt x="340" y="-2" on="0"/>
        <pt x="296" y="-1" on="0"/>
        <pt x="284" y="-1" on="1"/>
        <pt x="241" y="-1" on="0"/>
        <pt x="203" y="9" on="1"/>
        <pt x="204" y="7" on="0"/>
        <pt x="204" y="5" on="1"/>
        <pt x="206" y="-13" on="0"/>
        <pt x="197" y="-27" on="1"/>
        <pt x="197" y="-42" on="0"/>
        <pt x="209" y="-60" on="0"/>
        <pt x="226" y="-68" on="1"/>
        <pt x="255" y="-72" on="0"/>
        <pt x="310" y="-79" on="0"/>
        <pt x="352" y="-100" on="0"/>
        <pt x="378" y="-141" on="0"/>
        <pt x="376" y="-179" on="1"/>
        <pt x="391" y="-227" on="0"/>
        <pt x="375" y="-289" on="0"/>
        <pt x="334" y="-322" on="0"/>
        <pt x="274" y="-328" on="0"/>
        <pt x="215" y="-310" on="0"/>
        <pt x="166" y="-272" on="0"/>
      </contour>
    </TTGlyph>
    <TTGlyph name="Ccircumflex" xMin="20" yMin="-2" xMax="516" yMax="912">
      <component glyphName="C" x="0" y="0" flags="0x1204"/>
      <component glyphName="circumflex" x="-45" y="72" flags="0x1004"/>
    </TTGlyph>
    <TTGlyph name="Cdotaccent" xMin="20" yMin="-2" xMax="516" yMax="749">
      <component glyphName="C" x="0" y="0" flags="0x1204"/>
      <component glyphName="dotaccent" x="165" y="252" flags="0x1004"/>
    </TTGlyph>
    <TTGlyph name="D" xMin="28" yMin="-1" xMax="537" yMax="619">
      <contour>
        <pt x="41" y="55" on="1"/>
        <pt x="41" y="575" on="1"/>
        <pt x="41" y="589" on="0"/>
        <pt x="58" y="607" on="0"/>
        <pt x="83" y="616" on="0"/>
        <pt x="115" y="619" on="0"/>
        <pt x="147" y="618" on="0"/>
        <pt x="174" y="616" on="0"/>
        <pt x="183" y="616" on="1"/>
        <pt x="226" y="616" on="0"/>
        <pt x="311" y="599" on="0"/>
        <pt x="391" y="565" on="0"/>
        <pt x="458" y="517" on="0"/>
        <pt x="508" y="451" on="0"/>
        <pt x="537" y="371" on="0"/>
        <pt x="537" y="323" on="1"/>
        <pt x="537" y="276" on="0"/>
        <pt x="498" y="191" on="0"/>
        <pt x="431" y="119" on="0"/>
        <pt x="344" y="61" on="0"/>
        <pt x="249" y="21" on="0"/>
        <pt x="152" y="-1" on="0"/>
        <pt x="110" y="-1" on="1"/>
        <pt x="88" y="-1" on="0"/>
        <pt x="46" y="16" on="0"/>
        <pt x="28" y="28" on="1"/>
      </contour>
      <contour>
        <pt x="95" y="501" on="1"/>
        <pt x="95" y="445" on="0"/>
        <pt x="98" y="326" on="0"/>
        <pt x="102" y="206" on="0"/>
        <pt x="107" y="92" on="0"/>
        <pt x="110" y="40" on="1"/>
        <pt x="111" y="40" on="0"/>
        <pt x="115" y="40" on="0"/>
        <pt x="117" y="40" on="1"/>
        <pt x="152" y="40" on="0"/>
        <pt x="234" y="58" on="0"/>
        <pt x="315" y="93" on="0"/>
        <pt x="390" y="141" on="0"/>
        <pt x="446" y="202" on="0"/>
        <pt x="481" y="274" on="0"/>
        <pt x="481" y="314" on="1"/>
        <pt x="481" y="379" on="0"/>
        <pt x="424" y="479" on="0"/>
        <pt x="332" y="544" on="0"/>
        <pt x="215" y="578" on="0"/>
        <pt x="155" y="578" on="1"/>
        <pt x="150" y="578" on="0"/>
        <pt x="137" y="577" on="0"/>
        <pt x="122" y="576" on="0"/>
        <pt x="112" y="575" on="0"/>
        <pt x="110" y="575" on="1"/>
        <pt x="95" y="561" on="1"/>
        <pt x="95" y="553" on="1"/>
        <pt x="95" y="546" on="0"/>
        <pt x="95" y="527" on="0"/>
        <pt x="95" y="517" on="1"/>
      </contour>
    </TTGlyph>
    <TTGlyph name="Dcaron" xMin="28" yMin="-1" xMax="537" yMax="841">
      <component glyphName="D" x="0" y="0" flags="0x1204"/>
      <component glyphName="caron" x="-41" y="112" flags="0x1004"/>
    </TTGlyph>
    <TTGlyph name="E" xMin="23" yMin="0" xMax="438" yMax="565">
      <contour>
        <pt x="27" y="314" on="1"/>
        <pt x="27" y="344" on="0"/>
        <pt x="28" y="390" on="0"/>
        <pt x="31" y="435" on="0"/>
        <pt x="37" y="485" on="0"/>
        <pt x="41" y="519" on="1"/>
        <pt x="82" y="534" on="0"/>
        <pt x="149" y="552" on="0"/>
        <pt x="214" y="562" on="0"/>
        <pt x="281" y="565" on="0"/>
        <pt x="320" y="565" on="1"/>
        <pt x="327" y="565" on="0"/>
        <pt x="351" y="564" on="0"/>
        <pt x="375" y="562" on="0"/>
        <pt x="395" y="562" on="0"/>
        <pt x="398" y="561" on="1"/>
        <pt x="425" y="547" on="1"/>
        <pt x="410" y="534" on="1"/>
        <pt x="403" y="535" on="0"/>
        <pt x="364" y="535" on="0"/>
        <pt x="320" y="535" on="0"/>
        <pt x="282" y="535" on="0"/>
        <pt x="274" y="534" on="1"/>
        <pt x="260" y="532" on="0"/>
        <pt x="220" y="525" on="0"/>
        <pt x="177" y="517" on="0"/>
        <pt x="136" y="508" on="0"/>
        <pt x="103" y="500" on="0"/>
        <pt x="82" y="494" on="0"/>
        <pt x="82" y="492" on="1"/>
        <pt x="82" y="314" on="1"/>
        <pt x="347" y="314" on="1"/>
        <pt x="347" y="304" on="0"/>
        <pt x="316" y="292" on="0"/>
        <pt x="265" y="283" on="0"/>
        <pt x="206" y="276" on="0"/>
        <pt x="149" y="271" on="0"/>
        <pt x="105" y="265" on="0"/>
        <pt x="95" y="260" on="1"/>
        <pt x="95" y="255" on="0"/>
        <pt x="95" y="232" on="0"/>
        <pt x="94" y="206" on="0"/>
        <pt x="94" y="193" on="1"/>
        <pt x="94" y="177" on="1"/>
        <pt x="94" y="160" on="0"/>
        <pt x="93" y="113" on="0"/>
        <pt x="99" y="70" on="0"/>
        <pt x="122" y="40" on="0"/>
        <pt x="147" y="40" on="1"/>
        <pt x="181" y="40" on="0"/>
        <pt x="248" y="44" on="0"/>
        <pt x="316" y="49" on="0"/>
        <pt x="383" y="55" on="0"/>
        <pt x="417" y="55" on="1"/>
        <pt x="438" y="55" on="1"/>
        <pt x="431" y="45" on="0"/>
        <pt x="409" y="25" on="0"/>
        <pt x="382" y="10" on="0"/>
        <pt x="355" y="0" on="0"/>
        <pt x="342" y="0" on="1"/>
        <pt x="123" y="0" on="1"/>
        <pt x="92" y="0" on="0"/>
        <pt x="53" y="37" on="0"/>
        <pt x="31" y="95" on="0"/>
        <pt x="24" y="166" on="0"/>
        <pt x="23" y="237" on="0"/>
        <pt x="27" y="297" on="0"/>
      </contour>
    </TTGlyph>
    <TTGlyph name="Eacute" xMin="23" yMin="0" xMax="438" yMax="775">
      <component glyphName="E" x="0" y="0" flags="0x1204"/>
      <component glyphName="acute" x="-1" y="42" flags="0x1004"/>
    </TTGlyph>
    <TTGlyph name="Ebreve" xMin="23" yMin="0" xMax="438" yMax="763">
      <component glyphName="E" x="0" y="0" flags="0x1204"/>
      <component glyphName="breve" x="60" y="69" flags="0x1004"/>
    </TTGlyph>
    <TTGlyph name="Ecaron" xMin="23" yMin="0" xMax="438" yMax="772">
      <component glyphName="E" x="0" y="0" flags="0x1204"/>
      <component glyphName="caron" x="-76" y="43" flags="0x1004"/>
    </TTGlyph>
    <TTGlyph name="Ecircumflex" xMin="23" yMin="0" xMax="438" yMax="944">
      <component glyphName="E" x="0" y="0" flags="0x1204"/>
      <component glyphName="circumflex" x="-76" y="104" flags="0x1004"/>
    </TTGlyph>
    <TTGlyph name="Edieresis" xMin="23" yMin="0" xMax="438" yMax="659">
      <component glyphName="E" x="0" y="0" flags="0x1204"/>
      <component glyphName="dieresis" x="-75" y="102" flags="0x1004"/>
    </TTGlyph>
    <TTGlyph name="Edotaccent" xMin="23" yMin="0" xMax="438" yMax="665">
      <component glyphName="E" x="0" y="0" flags="0x1204"/>
      <component glyphName="dotaccent" x="114" y="168" flags="0x1004"/>
    </TTGlyph>
    <TTGlyph name="Egrave" xMin="23" yMin="0" xMax="438" yMax="775">
      <component glyphName="E" x="0" y="0" flags="0x1204"/>
      <component glyphName="grave" x="12" y="42" flags="0x1004"/>
    </TTGlyph>
    <TTGlyph name="Emacron" xMin="23" yMin="0" xMax="438" yMax="648">
      <component glyphName="E" x="0" y="0" flags="0x1204"/>
      <component glyphName="macron" x="38" y="148" flags="0x1004"/>
    </TTGlyph>
    <TTGlyph name="Eogonek" xMin="23" yMin="-139" xMax="438" yMax="565">
      <contour>
        <pt x="409" y="-123" on="1"/>
        <pt x="395" y="-124" on="0"/>
        <pt x="361" y="-132" on="0"/>
        <pt x="324" y="-139" on="0"/>
        <pt x="288" y="-138" on="0"/>
        <pt x="260" y="-121" on="0"/>
        <pt x="242" y="-84" on="0"/>
        <pt x="242" y="-50" on="1"/>
        <pt x="243" y="-19" on="0"/>
        <pt x="247" y="0" on="1"/>
        <pt x="123" y="0" on="1"/>
        <pt x="92" y="0" on="0"/>
        <pt x="53" y="37" on="0"/>
        <pt x="31" y="95" on="0"/>
        <pt x="24" y="166" on="0"/>
        <pt x="23" y="237" on="0"/>
        <pt x="27" y="297" on="0"/>
        <pt x="27" y="314" on="1"/>
        <pt x="27" y="344" on="0"/>
        <pt x="28" y="390" on="0"/>
        <pt x="31" y="435" on="0"/>
        <pt x="37" y="485" on="0"/>
        <pt x="41" y="519" on="1"/>
        <pt x="82" y="534" on="0"/>
        <pt x="149" y="552" on="0"/>
        <pt x="214" y="562" on="0"/>
        <pt x="281" y="565" on="0"/>
        <pt x="320" y="565" on="1"/>
        <pt x="327" y="565" on="0"/>
        <pt x="351" y="564" on="0"/>
        <pt x="375" y="562" on="0"/>
        <pt x="395" y="562" on="0"/>
        <pt x="398" y="561" on="1"/>
        <pt x="425" y="547" on="1"/>
        <pt x="410" y="534" on="1"/>
        <pt x="403" y="535" on="0"/>
        <pt x="364" y="535" on="0"/>
        <pt x="320" y="535" on="0"/>
        <pt x="282" y="535" on="0"/>
        <pt x="274" y="534" on="1"/>
        <pt x="260" y="532" on="0"/>
        <pt x="220" y="525" on="0"/>
        <pt x="177" y="517" on="0"/>
        <pt x="136" y="508" on="0"/>
        <pt x="103" y="500" on="0"/>
        <pt x="82" y="494" on="0"/>
        <pt x="82" y="492" on="1"/>
        <pt x="82" y="314" on="1"/>
        <pt x="347" y="314" on="1"/>
        <pt x="347" y="304" on="0"/>
        <pt x="316" y="292" on="0"/>
        <pt x="265" y="283" on="0"/>
        <pt x="206" y="276" on="0"/>
        <pt x="149" y="271" on="0"/>
        <pt x="105" y="265" on="0"/>
        <pt x="95" y="260" on="1"/>
        <pt x="95" y="255" on="0"/>
        <pt x="95" y="232" on="0"/>
        <pt x="94" y="206" on="0"/>
        <pt x="94" y="193" on="1"/>
        <pt x="94" y="177" on="1"/>
        <pt x="94" y="160" on="0"/>
        <pt x="93" y="113" on="0"/>
        <pt x="99" y="70" on="0"/>
        <pt x="122" y="40" on="0"/>
        <pt x="147" y="40" on="1"/>
        <pt x="181" y="40" on="0"/>
        <pt x="248" y="44" on="0"/>
        <pt x="316" y="49" on="0"/>
        <pt x="383" y="55" on="0"/>
        <pt x="417" y="55" on="1"/>
        <pt x="438" y="55" on="1"/>
        <pt x="431" y="45" on="0"/>
        <pt x="409" y="25" on="0"/>
        <pt x="382" y="10" on="0"/>
        <pt x="355" y="0" on="0"/>
        <pt x="342" y="0" on="1"/>
        <pt x="292" y="0" on="1"/>
        <pt x="291" y="-11" on="0"/>
        <pt x="282" y="-22" on="1"/>
        <pt x="282" y="-38" on="1"/>
        <pt x="282" y="-47" on="0"/>
        <pt x="286" y="-63" on="0"/>
        <pt x="295" y="-77" on="0"/>
        <pt x="303" y="-79" on="1"/>
        <pt x="322" y="-85" on="0"/>
        <pt x="361" y="-80" on="0"/>
        <pt x="395" y="-72" on="0"/>
        <pt x="422" y="-65" on="0"/>
        <pt x="433" y="-71" on="0"/>
        <pt x="425" y="-96" on="0"/>
      </contour>
    </TTGlyph>
    <TTGlyph name="Eth" xMin="1" yMin="-1" xMax="555" yMax="619">
      <contour>
        <pt x="14" y="316" on="1"/>
        <pt x="60" y="317" on="1"/>
        <pt x="60" y="575" on="1"/>
        <pt x="60" y="589" on="0"/>
        <pt x="76" y="607" on="0"/>
        <pt x="102" y="616" on="0"/>
        <pt x="134" y="619" on="0"/>
        <pt x="166" y="618" on="0"/>
        <pt x="193" y="616" on="0"/>
        <pt x="202" y="616" on="1"/>
        <pt x="266" y="616" on="0"/>
        <pt x="392" y="579" on="0"/>
        <pt x="493" y="503" on="0"/>
        <pt x="555" y="394" on="0"/>
        <pt x="555" y="323" on="1"/>
        <pt x="555" y="276" on="0"/>
        <pt x="516" y="191" on="0"/>
        <pt x="449" y="119" on="0"/>
        <pt x="363" y="61" on="0"/>
        <pt x="267" y="21" on="0"/>
        <pt x="171" y="-1" on="0"/>
        <pt x="128" y="-1" on="1"/>
        <pt x="106" y="-1" on="0"/>
        <pt x="64" y="16" on="0"/>
        <pt x="47" y="28" on="1"/>
        <pt x="60" y="55" on="1"/>
        <pt x="60" y="288" on="1"/>
        <pt x="52" y="288" on="0"/>
        <pt x="41" y="289" on="0"/>
        <pt x="37" y="289" on="1"/>
        <pt x="28" y="289" on="1"/>
        <pt x="1" y="303" on="1"/>
      </contour>
      <contour>
        <pt x="114" y="501" on="1"/>
        <pt x="114" y="457" on="0"/>
        <pt x="115" y="365" on="0"/>
        <pt x="117" y="319" on="1"/>
        <pt x="253" y="323" on="1"/>
        <pt x="261" y="323" on="0"/>
        <pt x="267" y="309" on="0"/>
        <pt x="267" y="303" on="1"/>
        <pt x="267" y="295" on="0"/>
        <pt x="256" y="283" on="0"/>
        <pt x="247" y="283" on="1"/>
        <pt x="238" y="283" on="1"/>
        <pt x="213" y="284" on="0"/>
        <pt x="149" y="286" on="0"/>
        <pt x="117" y="287" on="1"/>
        <pt x="120" y="221" on="0"/>
        <pt x="125" y="96" on="0"/>
        <pt x="128" y="40" on="1"/>
        <pt x="129" y="40" on="0"/>
        <pt x="134" y="40" on="0"/>
        <pt x="136" y="40" on="1"/>
        <pt x="171" y="40" on="0"/>
        <pt x="253" y="58" on="0"/>
        <pt x="333" y="93" on="0"/>
        <pt x="409" y="141" on="0"/>
        <pt x="465" y="202" on="0"/>
        <pt x="499" y="274" on="0"/>
        <pt x="499" y="314" on="1"/>
        <pt x="499" y="379" on="0"/>
        <pt x="443" y="479" on="0"/>
        <pt x="351" y="544" on="0"/>
        <pt x="234" y="578" on="0"/>
        <pt x="174" y="578" on="1"/>
        <pt x="169" y="578" on="0"/>
        <pt x="156" y="577" on="0"/>
        <pt x="141" y="576" on="0"/>
        <pt x="130" y="575" on="0"/>
        <pt x="128" y="575" on="1"/>
        <pt x="114" y="561" on="1"/>
        <pt x="114" y="553" on="1"/>
        <pt x="114" y="546" on="0"/>
        <pt x="114" y="527" on="0"/>
        <pt x="114" y="517" on="1"/>
      </contour>
    </TTGlyph>
    <TTGlyph name="Euro" xMin="9" yMin="-10" xMax="374" yMax="507">
      <contour>
        <pt x="40" y="290" on="1"/>
        <pt x="84" y="290" on="1"/>
        <pt x="87" y="313" on="0"/>
        <pt x="93" y="337" on="1"/>
        <pt x="99" y="367" on="0"/>
        <pt x="120" y="419" on="0"/>
        <pt x="150" y="462" on="0"/>
        <pt x="172" y="473" on="1"/>
        <pt x="186" y="481" on="0"/>
        <pt x="230" y="503" on="0"/>
        <pt x="281" y="511" on="0"/>
        <pt x="333" y="490" on="0"/>
        <pt x="357" y="456" on="1"/>
        <pt x="356" y="456" on="0"/>
        <pt x="352" y="452" on="0"/>
        <pt x="348" y="446" on="0"/>
        <pt x="344" y="441" on="0"/>
        <pt x="344" y="441" on="1"/>
        <pt x="331" y="441" on="0"/>
        <pt x="311" y="452" on="0"/>
        <pt x="292" y="464" on="0"/>
        <pt x="270" y="474" on="0"/>
        <pt x="256" y="474" on="1"/>
        <pt x="224" y="466" on="0"/>
        <pt x="179" y="433" on="0"/>
        <pt x="149" y="389" on="0"/>
        <pt x="133" y="337" on="0"/>
        <pt x="129" y="311" on="1"/>
        <pt x="127" y="301" on="0"/>
        <pt x="125" y="290" on="1"/>
        <pt x="319" y="290" on="1"/>
        <pt x="319" y="284" on="0"/>
        <pt x="312" y="274" on="0"/>
        <pt x="302" y="267" on="0"/>
        <pt x="292" y="263" on="0"/>
        <pt x="287" y="263" on="1"/>
        <pt x="123" y="263" on="1"/>
        <pt x="123" y="260" on="1"/>
        <pt x="122" y="242" on="0"/>
        <pt x="122" y="226" on="1"/>
        <pt x="136" y="227" on="0"/>
        <pt x="151" y="227" on="1"/>
        <pt x="171" y="228" on="0"/>
        <pt x="216" y="229" on="0"/>
        <pt x="256" y="229" on="0"/>
        <pt x="288" y="230" on="0"/>
        <pt x="296" y="230" on="1"/>
        <pt x="296" y="198" on="1"/>
        <pt x="122" y="198" on="1"/>
        <pt x="122" y="185" on="0"/>
        <pt x="123" y="156" on="0"/>
        <pt x="124" y="130" on="0"/>
        <pt x="124" y="125" on="1"/>
        <pt x="135" y="100" on="0"/>
        <pt x="161" y="63" on="0"/>
        <pt x="197" y="40" on="0"/>
        <pt x="243" y="28" on="0"/>
        <pt x="273" y="28" on="1"/>
        <pt x="287" y="39" on="0"/>
        <pt x="327" y="46" on="0"/>
        <pt x="360" y="42" on="0"/>
        <pt x="380" y="31" on="0"/>
        <pt x="367" y="15" on="0"/>
        <pt x="313" y="-2" on="0"/>
        <pt x="256" y="-10" on="1"/>
        <pt x="217" y="-10" on="0"/>
        <pt x="150" y="23" on="0"/>
        <pt x="103" y="78" on="0"/>
        <pt x="77" y="148" on="0"/>
        <pt x="77" y="184" on="1"/>
        <pt x="77" y="198" on="1"/>
        <pt x="9" y="198" on="1"/>
        <pt x="10" y="201" on="0"/>
        <pt x="21" y="211" on="0"/>
        <pt x="22" y="211" on="1"/>
        <pt x="27" y="213" on="0"/>
        <pt x="47" y="217" on="0"/>
        <pt x="68" y="222" on="0"/>
        <pt x="77" y="223" on="1"/>
        <pt x="78" y="223" on="1"/>
        <pt x="78" y="227" on="1"/>
        <pt x="79" y="244" on="0"/>
        <pt x="81" y="263" on="1"/>
        <pt x="13" y="263" on="1"/>
      </contour>
    </TTGlyph>
    <TTGlyph name="F" xMin="21" yMin="0" xMax="459" yMax="631">
      <contour>
        <pt x="61" y="13" on="1"/>
        <pt x="52" y="76" on="0"/>
        <pt x="38" y="222" on="0"/>
        <pt x="27" y="373" on="0"/>
        <pt x="21" y="518" on="0"/>
        <pt x="21" y="582" on="1"/>
        <pt x="21" y="588" on="1"/>
        <pt x="22" y="589" on="0"/>
        <pt x="25" y="598" on="0"/>
        <pt x="29" y="606" on="0"/>
        <pt x="33" y="614" on="0"/>
        <pt x="34" y="616" on="1"/>
        <pt x="82" y="614" on="0"/>
        <pt x="175" y="617" on="0"/>
        <pt x="267" y="625" on="0"/>
        <pt x="359" y="631" on="0"/>
        <pt x="406" y="631" on="1"/>
        <pt x="417" y="631" on="1"/>
        <pt x="422" y="631" on="0"/>
        <pt x="435" y="630" on="0"/>
        <pt x="444" y="630" on="0"/>
        <pt x="445" y="630" on="1"/>
        <pt x="459" y="616" on="1"/>
        <pt x="445" y="602" on="1"/>
        <pt x="444" y="601" on="0"/>
        <pt x="414" y="598" on="0"/>
        <pt x="367" y="593" on="0"/>
        <pt x="308" y="587" on="0"/>
        <pt x="247" y="581" on="0"/>
        <pt x="192" y="576" on="0"/>
        <pt x="171" y="575" on="1"/>
        <pt x="146" y="573" on="0"/>
        <pt x="113" y="576" on="0"/>
        <pt x="95" y="571" on="0"/>
        <pt x="88" y="549" on="0"/>
        <pt x="88" y="523" on="1"/>
        <pt x="88" y="512" on="1"/>
        <pt x="88" y="506" on="0"/>
        <pt x="89" y="491" on="0"/>
        <pt x="89" y="485" on="1"/>
        <pt x="89" y="479" on="1"/>
        <pt x="90" y="465" on="0"/>
        <pt x="94" y="425" on="0"/>
        <pt x="98" y="385" on="0"/>
        <pt x="103" y="356" on="0"/>
        <pt x="103" y="355" on="1"/>
        <pt x="117" y="342" on="1"/>
        <pt x="366" y="342" on="1"/>
        <pt x="366" y="325" on="0"/>
        <pt x="346" y="313" on="0"/>
        <pt x="317" y="311" on="0"/>
        <pt x="289" y="315" on="0"/>
        <pt x="281" y="314" on="1"/>
        <pt x="274" y="314" on="0"/>
        <pt x="249" y="312" on="0"/>
        <pt x="217" y="310" on="0"/>
        <pt x="181" y="307" on="0"/>
        <pt x="148" y="304" on="0"/>
        <pt x="122" y="301" on="0"/>
        <pt x="117" y="301" on="1"/>
        <pt x="114" y="298" on="0"/>
        <pt x="104" y="277" on="0"/>
        <pt x="103" y="274" on="1"/>
        <pt x="103" y="260" on="1"/>
        <pt x="103" y="251" on="0"/>
        <pt x="106" y="214" on="0"/>
        <pt x="109" y="169" on="0"/>
        <pt x="112" y="118" on="0"/>
        <pt x="114" y="73" on="0"/>
        <pt x="116" y="36" on="0"/>
        <pt x="117" y="28" on="1"/>
        <pt x="114" y="23" on="0"/>
        <pt x="103" y="14" on="0"/>
        <pt x="92" y="6" on="0"/>
        <pt x="79" y="0" on="0"/>
        <pt x="76" y="0" on="1"/>
        <pt x="72" y="0" on="0"/>
        <pt x="61" y="10" on="0"/>
      </contour>
    </TTGlyph>
    <TTGlyph name="G" xMin="19" yMin="9" xMax="723" yMax="687">
      <contour>
        <pt x="492" y="95" on="1"/>
        <pt x="487" y="91" on="0"/>
        <pt x="454" y="74" on="0"/>
        <pt x="418" y="57" on="0"/>
        <pt x="384" y="42" on="0"/>
        <pt x="376" y="40" on="1"/>
        <pt x="369" y="40" on="1"/>
        <pt x="362" y="40" on="0"/>
        <pt x="342" y="39" on="0"/>
        <pt x="332" y="39" on="1"/>
        <pt x="316" y="39" on="1"/>
        <pt x="259" y="39" on="0"/>
        <pt x="152" y="76" on="0"/>
        <pt x="68" y="147" on="0"/>
        <pt x="19" y="247" on="0"/>
        <pt x="19" y="309" on="1"/>
        <pt x="19" y="342" on="0"/>
        <pt x="31" y="424" on="0"/>
        <pt x="55" y="508" on="0"/>
        <pt x="93" y="587" on="0"/>
        <pt x="147" y="649" on="0"/>
        <pt x="217" y="687" on="0"/>
        <pt x="261" y="687" on="1"/>
        <pt x="285" y="687" on="0"/>
        <pt x="342" y="669" on="0"/>
        <pt x="391" y="635" on="0"/>
        <pt x="424" y="589" on="0"/>
        <pt x="424" y="561" on="1"/>
        <pt x="403" y="561" on="1"/>
        <pt x="384" y="583" on="0"/>
        <pt x="357" y="615" on="0"/>
        <pt x="328" y="635" on="0"/>
        <pt x="292" y="644" on="0"/>
        <pt x="266" y="644" on="1"/>
        <pt x="233" y="644" on="0"/>
        <pt x="179" y="615" on="0"/>
        <pt x="136" y="566" on="0"/>
        <pt x="104" y="503" on="0"/>
        <pt x="85" y="436" on="0"/>
        <pt x="74" y="372" on="0"/>
        <pt x="74" y="346" on="1"/>
        <pt x="74" y="292" on="0"/>
        <pt x="103" y="197" on="0"/>
        <pt x="161" y="124" on="0"/>
        <pt x="247" y="81" on="0"/>
        <pt x="303" y="81" on="1"/>
        <pt x="350" y="81" on="0"/>
        <pt x="414" y="98" on="0"/>
        <pt x="461" y="136" on="0"/>
        <pt x="496" y="200" on="0"/>
        <pt x="514" y="247" on="1"/>
        <pt x="486" y="260" on="1"/>
        <pt x="444" y="254" on="0"/>
        <pt x="373" y="246" on="0"/>
        <pt x="333" y="246" on="1"/>
        <pt x="328" y="246" on="0"/>
        <pt x="317" y="245" on="0"/>
        <pt x="305" y="247" on="0"/>
        <pt x="295" y="253" on="0"/>
        <pt x="294" y="260" on="1"/>
        <pt x="298" y="268" on="0"/>
        <pt x="319" y="281" on="0"/>
        <pt x="346" y="290" on="0"/>
        <pt x="377" y="295" on="0"/>
        <pt x="405" y="299" on="0"/>
        <pt x="427" y="301" on="0"/>
        <pt x="431" y="301" on="1"/>
        <pt x="442" y="301" on="0"/>
        <pt x="487" y="303" on="0"/>
        <pt x="544" y="304" on="0"/>
        <pt x="608" y="306" on="0"/>
        <pt x="666" y="306" on="0"/>
        <pt x="712" y="307" on="0"/>
        <pt x="723" y="307" on="1"/>
        <pt x="723" y="306" on="0"/>
        <pt x="722" y="290" on="0"/>
        <pt x="718" y="269" on="0"/>
        <pt x="711" y="253" on="0"/>
        <pt x="705" y="253" on="1"/>
        <pt x="568" y="253" on="1"/>
        <pt x="559" y="253" on="0"/>
        <pt x="553" y="220" on="0"/>
        <pt x="554" y="169" on="0"/>
        <pt x="557" y="110" on="0"/>
        <pt x="554" y="57" on="0"/>
        <pt x="541" y="17" on="0"/>
        <pt x="527" y="13" on="1"/>
        <pt x="517" y="12" on="0"/>
        <pt x="506" y="10" on="1"/>
        <pt x="492" y="9" on="1"/>
      </contour>
    </TTGlyph>
    <TTGlyph name="Gbreve" xMin="19" yMin="9" xMax="723" yMax="882">
      <component glyphName="G" x="0" y="0" flags="0x1204"/>
      <component glyphName="breve" x="228" y="188" flags="0x1004"/>
    </TTGlyph>
    <TTGlyph name="Gcircumflex" xMin="19" yMin="9" xMax="723" yMax="1006">
      <component glyphName="G" x="0" y="0" flags="0x1204"/>
      <component glyphName="circumflex" x="0" y="166" flags="0x1004"/>
    </TTGlyph>
    <TTGlyph name="Gcommaaccent" xMin="19" yMin="-214" xMax="723" yMax="687">
      <component glyphName="G" x="0" y="0" flags="0x1204"/>
      <component glyphName="commaaccent" x="239" y="0" flags="0x1004"/>
    </TTGlyph>
    <TTGlyph name="Gdotaccent" xMin="19" yMin="9" xMax="723" yMax="837">
      <component glyphName="G" x="0" y="0" flags="0x1204"/>
      <component glyphName="dotaccent" x="201" y="340" flags="0x1004"/>
    </TTGlyph>
    <TTGlyph name="H" xMin="27" yMin="0" xMax="493" yMax="657">
      <contour>
        <pt x="41" y="274" on="1"/>
        <pt x="35" y="283" on="0"/>
        <pt x="27" y="298" on="0"/>
        <pt x="27" y="309" on="1"/>
        <pt x="27" y="316" on="0"/>
        <pt x="32" y="324" on="0"/>
        <pt x="41" y="328" on="1"/>
        <pt x="41" y="652" on="1"/>
        <pt x="58" y="652" on="0"/>
        <pt x="81" y="634" on="0"/>
        <pt x="82" y="616" on="1"/>
        <pt x="110" y="342" on="1"/>
        <pt x="398" y="342" on="1"/>
        <pt x="410" y="355" on="1"/>
        <pt x="411" y="356" on="0"/>
        <pt x="415" y="395" on="0"/>
        <pt x="419" y="446" on="0"/>
        <pt x="424" y="502" on="0"/>
        <pt x="425" y="519" on="1"/>
        <pt x="425" y="526" on="0"/>
        <pt x="425" y="557" on="0"/>
        <pt x="425" y="592" on="0"/>
        <pt x="425" y="624" on="0"/>
        <pt x="425" y="630" on="1"/>
        <pt x="452" y="657" on="1"/>
        <pt x="454" y="657" on="0"/>
        <pt x="465" y="646" on="0"/>
        <pt x="465" y="643" on="1"/>
        <pt x="467" y="639" on="0"/>
        <pt x="471" y="619" on="0"/>
        <pt x="476" y="598" on="0"/>
        <pt x="479" y="579" on="0"/>
        <pt x="479" y="575" on="1"/>
        <pt x="480" y="567" on="0"/>
        <pt x="480" y="549" on="1"/>
        <pt x="480" y="419" on="1"/>
        <pt x="480" y="398" on="0"/>
        <pt x="479" y="364" on="0"/>
        <pt x="479" y="355" on="1"/>
        <pt x="486" y="346" on="0"/>
        <pt x="493" y="331" on="0"/>
        <pt x="493" y="321" on="1"/>
        <pt x="493" y="311" on="0"/>
        <pt x="486" y="297" on="0"/>
        <pt x="479" y="287" on="1"/>
        <pt x="479" y="68" on="1"/>
        <pt x="479" y="63" on="0"/>
        <pt x="473" y="57" on="0"/>
        <pt x="464" y="54" on="0"/>
        <pt x="460" y="54" on="1"/>
        <pt x="452" y="54" on="1"/>
        <pt x="449" y="54" on="0"/>
        <pt x="437" y="55" on="0"/>
        <pt x="426" y="58" on="0"/>
        <pt x="417" y="63" on="0"/>
        <pt x="417" y="68" on="1"/>
        <pt x="417" y="274" on="1"/>
        <pt x="398" y="301" on="1"/>
        <pt x="110" y="287" on="1"/>
        <pt x="82" y="13" on="1"/>
        <pt x="82" y="12" on="0"/>
        <pt x="76" y="7" on="0"/>
        <pt x="67" y="4" on="0"/>
        <pt x="58" y="0" on="0"/>
        <pt x="55" y="0" on="1"/>
        <pt x="52" y="0" on="0"/>
        <pt x="41" y="10" on="0"/>
        <pt x="41" y="13" on="1"/>
      </contour>
    </TTGlyph>
    <TTGlyph name="Hcircumflex" xMin="27" yMin="0" xMax="493" yMax="1003">
      <component glyphName="H" x="0" y="0" flags="0x1204"/>
      <component glyphName="circumflex" x="-55" y="163" flags="0x1004"/>
    </TTGlyph>
    <TTGlyph name="I" xMin="34" yMin="0" xMax="76" yMax="697">
      <contour>
        <pt x="49" y="697" on="1"/>
        <pt x="52" y="695" on="0"/>
        <pt x="61" y="685" on="0"/>
        <pt x="69" y="673" on="0"/>
        <pt x="76" y="661" on="0"/>
        <pt x="76" y="657" on="1"/>
        <pt x="76" y="13" on="1"/>
        <pt x="76" y="10" on="0"/>
        <pt x="65" y="0" on="0"/>
        <pt x="61" y="0" on="1"/>
        <pt x="58" y="0" on="0"/>
        <pt x="49" y="4" on="0"/>
        <pt x="40" y="7" on="0"/>
        <pt x="34" y="12" on="0"/>
        <pt x="34" y="13" on="1"/>
        <pt x="34" y="670" on="1"/>
      </contour>
    </TTGlyph>
    <TTGlyph name="Iacute" xMin="-44" yMin="0" xMax="138" yMax="870">
      <component glyphName="I" x="0" y="0" flags="0x1204"/>
      <component glyphName="acute" x="-168" y="137" flags="0x1004"/>
    </TTGlyph>
    <TTGlyph name="Ibreve" xMin="-54" yMin="0" xMax="205" yMax="905">
      <component glyphName="I" x="0" y="0" flags="0x1204"/>
      <component glyphName="breve" x="-80" y="211" flags="0x1004"/>
    </TTGlyph>
    <TTGlyph name="Icircumflex" xMin="-46" yMin="0" xMax="190" yMax="1025">
      <component glyphName="I" x="0" y="0" flags="0x1204"/>
      <component glyphName="circumflex" x="-233" y="185" flags="0x1004"/>
    </TTGlyph>
    <TTGlyph name="Idieresis" xMin="-4" yMin="0" xMax="130" yMax="799">
      <component glyphName="I" x="0" y="0" flags="0x1204"/>
      <component glyphName="dieresis" x="-229" y="242" flags="0x1004"/>
    </TTGlyph>
    <TTGlyph name="Idotaccent" xMin="6" yMin="0" xMax="84" yMax="828">
      <component glyphName="I" x="0" y="0" flags="0x1204"/>
      <component glyphName="dotaccent" x="-34" y="331" flags="0x1004"/>
    </TTGlyph>
    <TTGlyph name="Igrave" xMin="-22" yMin="0" xMax="140" yMax="872">
      <component glyphName="I" x="0" y="0" flags="0x1204"/>
      <component glyphName="grave" x="-166" y="139" flags="0x1004"/>
    </TTGlyph>
    <TTGlyph name="Iogonek" xMin="14" yMin="-146" xMax="202" yMax="697">
      <contour>
        <pt x="181" y="-131" on="1"/>
        <pt x="168" y="-131" on="0"/>
        <pt x="133" y="-140" on="0"/>
        <pt x="96" y="-146" on="0"/>
        <pt x="60" y="-145" on="0"/>
        <pt x="32" y="-129" on="0"/>
        <pt x="14" y="-91" on="0"/>
        <pt x="14" y="-59" on="1"/>
        <pt x="15" y="-23" on="0"/>
        <pt x="22" y="-4" on="1"/>
        <pt x="28" y="13" on="0"/>
        <pt x="34" y="21" on="1"/>
        <pt x="34" y="670" on="1"/>
        <pt x="49" y="697" on="1"/>
        <pt x="52" y="695" on="0"/>
        <pt x="61" y="685" on="0"/>
        <pt x="69" y="673" on="0"/>
        <pt x="76" y="661" on="0"/>
        <pt x="76" y="657" on="1"/>
        <pt x="76" y="13" on="1"/>
        <pt x="76" y="10" on="0"/>
        <pt x="70" y="4" on="1"/>
        <pt x="66" y="2" on="1"/>
        <pt x="66" y="-5" on="1"/>
        <pt x="65" y="-18" on="0"/>
        <pt x="55" y="-29" on="1"/>
        <pt x="55" y="-45" on="1"/>
        <pt x="55" y="-54" on="0"/>
        <pt x="58" y="-70" on="0"/>
        <pt x="67" y="-84" on="0"/>
        <pt x="76" y="-86" on="1"/>
        <pt x="94" y="-92" on="0"/>
        <pt x="133" y="-88" on="0"/>
        <pt x="168" y="-80" on="0"/>
        <pt x="194" y="-72" on="0"/>
        <pt x="205" y="-78" on="0"/>
        <pt x="198" y="-104" on="0"/>
      </contour>
    </TTGlyph>
    <TTGlyph name="Itilde" xMin="-127" yMin="0" xMax="219" yMax="852">
      <component glyphName="I" x="0" y="0" flags="0x1204"/>
      <component glyphName="tilde" x="-287" y="116" flags="0x1004"/>
    </TTGlyph>
    <TTGlyph name="J" xMin="21" yMin="-1" xMax="589" yMax="659">
      <contour>
        <pt x="21" y="122" on="1"/>
        <pt x="21" y="125" on="0"/>
        <pt x="24" y="133" on="0"/>
        <pt x="28" y="142" on="0"/>
        <pt x="33" y="149" on="0"/>
        <pt x="34" y="150" on="1"/>
        <pt x="43" y="120" on="0"/>
        <pt x="80" y="77" on="0"/>
        <pt x="128" y="51" on="0"/>
        <pt x="184" y="40" on="0"/>
        <pt x="212" y="40" on="1"/>
        <pt x="240" y="40" on="0"/>
        <pt x="277" y="60" on="0"/>
        <pt x="294" y="82" on="1"/>
        <pt x="305" y="117" on="0"/>
        <pt x="317" y="170" on="0"/>
        <pt x="322" y="220" on="0"/>
        <pt x="323" y="274" on="0"/>
        <pt x="323" y="306" on="1"/>
        <pt x="323" y="328" on="1"/>
        <pt x="323" y="343" on="0"/>
        <pt x="322" y="373" on="0"/>
        <pt x="322" y="395" on="0"/>
        <pt x="322" y="397" on="1"/>
        <pt x="320" y="413" on="0"/>
        <pt x="317" y="458" on="0"/>
        <pt x="310" y="507" on="0"/>
        <pt x="304" y="554" on="0"/>
        <pt x="299" y="592" on="0"/>
        <pt x="295" y="616" on="0"/>
        <pt x="294" y="616" on="1"/>
        <pt x="49" y="616" on="1"/>
        <pt x="49" y="643" on="1"/>
        <pt x="49" y="644" on="0"/>
        <pt x="60" y="649" on="0"/>
        <pt x="78" y="653" on="0"/>
        <pt x="97" y="657" on="0"/>
        <pt x="103" y="657" on="1"/>
        <pt x="113" y="657" on="1"/>
        <pt x="122" y="657" on="0"/>
        <pt x="147" y="657" on="0"/>
        <pt x="160" y="657" on="1"/>
        <pt x="180" y="657" on="1"/>
        <pt x="195" y="657" on="0"/>
        <pt x="269" y="659" on="0"/>
        <pt x="360" y="657" on="0"/>
        <pt x="457" y="651" on="0"/>
        <pt x="538" y="635" on="0"/>
        <pt x="589" y="608" on="0"/>
        <pt x="589" y="588" on="1"/>
        <pt x="365" y="588" on="1"/>
        <pt x="365" y="510" on="0"/>
        <pt x="377" y="356" on="0"/>
        <pt x="377" y="279" on="1"/>
        <pt x="377" y="249" on="0"/>
        <pt x="374" y="184" on="0"/>
        <pt x="364" y="122" on="0"/>
        <pt x="342" y="67" on="0"/>
        <pt x="306" y="24" on="0"/>
        <pt x="251" y="-1" on="0"/>
        <pt x="212" y="-1" on="1"/>
        <pt x="186" y="-1" on="0"/>
        <pt x="120" y="12" on="0"/>
        <pt x="61" y="41" on="0"/>
        <pt x="21" y="88" on="0"/>
      </contour>
    </TTGlyph>
    <TTGlyph name="Jcircumflex" xMin="21" yMin="-1" xMax="589" yMax="973">
      <component glyphName="J" x="0" y="0" flags="0x1204"/>
      <component glyphName="circumflex" x="-13" y="133" flags="0x1004"/>
    </TTGlyph>
    <TTGlyph name="K" xMin="25" yMin="0" xMax="603" yMax="670">
      <contour>
        <pt x="41" y="561" on="1"/>
        <pt x="33" y="587" on="0"/>
        <pt x="25" y="643" on="0"/>
        <pt x="25" y="670" on="1"/>
        <pt x="68" y="670" on="1"/>
        <pt x="69" y="670" on="0"/>
        <pt x="76" y="645" on="0"/>
        <pt x="85" y="611" on="0"/>
        <pt x="94" y="573" on="0"/>
        <pt x="95" y="561" on="1"/>
        <pt x="97" y="552" on="0"/>
        <pt x="102" y="506" on="0"/>
        <pt x="106" y="453" on="0"/>
        <pt x="110" y="406" on="0"/>
        <pt x="110" y="397" on="1"/>
        <pt x="137" y="397" on="1"/>
        <pt x="138" y="397" on="0"/>
        <pt x="163" y="412" on="0"/>
        <pt x="198" y="434" on="0"/>
        <pt x="235" y="457" on="0"/>
        <pt x="247" y="465" on="1"/>
        <pt x="293" y="497" on="0"/>
        <pt x="382" y="565" on="0"/>
        <pt x="425" y="602" on="1"/>
        <pt x="452" y="602" on="1"/>
        <pt x="452" y="588" on="1"/>
        <pt x="452" y="587" on="0"/>
        <pt x="433" y="568" on="0"/>
        <pt x="407" y="541" on="0"/>
        <pt x="379" y="515" on="0"/>
        <pt x="370" y="507" on="1"/>
        <pt x="357" y="496" on="0"/>
        <pt x="314" y="466" on="0"/>
        <pt x="262" y="434" on="0"/>
        <pt x="208" y="400" on="0"/>
        <pt x="164" y="369" on="0"/>
        <pt x="136" y="344" on="0"/>
        <pt x="136" y="336" on="1"/>
        <pt x="136" y="334" on="0"/>
        <pt x="136" y="328" on="0"/>
        <pt x="137" y="328" on="1"/>
        <pt x="220" y="233" on="1"/>
        <pt x="425" y="104" on="1"/>
        <pt x="451" y="104" on="0"/>
        <pt x="491" y="99" on="0"/>
        <pt x="530" y="92" on="0"/>
        <pt x="573" y="85" on="0"/>
        <pt x="603" y="82" on="1"/>
        <pt x="603" y="79" on="1"/>
        <pt x="603" y="76" on="1"/>
        <pt x="603" y="68" on="0"/>
        <pt x="598" y="58" on="0"/>
        <pt x="589" y="55" on="1"/>
        <pt x="586" y="55" on="0"/>
        <pt x="572" y="53" on="0"/>
        <pt x="557" y="52" on="0"/>
        <pt x="544" y="52" on="0"/>
        <pt x="541" y="52" on="1"/>
        <pt x="490" y="52" on="0"/>
        <pt x="390" y="83" on="0"/>
        <pt x="293" y="131" on="0"/>
        <pt x="204" y="191" on="0"/>
        <pt x="165" y="220" on="1"/>
        <pt x="151" y="228" on="0"/>
        <pt x="141" y="239" on="0"/>
        <pt x="136" y="248" on="0"/>
        <pt x="125" y="256" on="0"/>
        <pt x="110" y="260" on="1"/>
        <pt x="110" y="256" on="0"/>
        <pt x="111" y="237" on="0"/>
        <pt x="111" y="214" on="0"/>
        <pt x="110" y="195" on="0"/>
        <pt x="110" y="192" on="1"/>
        <pt x="109" y="179" on="0"/>
        <pt x="106" y="147" on="0"/>
        <pt x="103" y="110" on="0"/>
        <pt x="101" y="74" on="0"/>
        <pt x="98" y="46" on="0"/>
        <pt x="96" y="36" on="1"/>
        <pt x="95" y="28" on="1"/>
        <pt x="68" y="0" on="1"/>
        <pt x="41" y="28" on="1"/>
      </contour>
    </TTGlyph>
    <TTGlyph name="Kcommaaccent" xMin="25" yMin="-214" xMax="603" yMax="670">
      <component glyphName="K" x="0" y="0" flags="0x1204"/>
      <component glyphName="commaaccent" x="174" y="0" flags="0x1004"/>
    </TTGlyph>
    <TTGlyph name="L" xMin="25" yMin="-1" xMax="643" yMax="643">
      <contour>
        <pt x="116" y="28" on="1"/>
        <pt x="103" y="28" on="0"/>
        <pt x="82" y="22" on="0"/>
        <pt x="59" y="16" on="0"/>
        <pt x="37" y="11" on="0"/>
        <pt x="25" y="11" on="1"/>
        <pt x="25" y="44" on="0"/>
        <pt x="31" y="105" on="0"/>
        <pt x="41" y="137" on="1"/>
        <pt x="41" y="643" on="1"/>
        <pt x="68" y="643" on="1"/>
        <pt x="69" y="643" on="0"/>
        <pt x="74" y="623" on="0"/>
        <pt x="79" y="589" on="0"/>
        <pt x="85" y="548" on="0"/>
        <pt x="90" y="506" on="0"/>
        <pt x="94" y="465" on="0"/>
        <pt x="95" y="452" on="1"/>
        <pt x="96" y="438" on="0"/>
        <pt x="100" y="382" on="0"/>
        <pt x="103" y="312" on="0"/>
        <pt x="106" y="235" on="0"/>
        <pt x="109" y="165" on="0"/>
        <pt x="110" y="109" on="0"/>
        <pt x="110" y="95" on="1"/>
        <pt x="114" y="84" on="0"/>
        <pt x="160" y="67" on="0"/>
        <pt x="228" y="54" on="0"/>
        <pt x="306" y="46" on="0"/>
        <pt x="377" y="41" on="0"/>
        <pt x="433" y="40" on="0"/>
        <pt x="443" y="40" on="1"/>
        <pt x="467" y="40" on="0"/>
        <pt x="511" y="53" on="0"/>
        <pt x="555" y="69" on="0"/>
        <pt x="600" y="83" on="0"/>
        <pt x="624" y="83" on="1"/>
        <pt x="633" y="83" on="0"/>
        <pt x="643" y="71" on="0"/>
        <pt x="643" y="61" on="1"/>
        <pt x="643" y="49" on="0"/>
        <pt x="609" y="30" on="0"/>
        <pt x="556" y="16" on="0"/>
        <pt x="492" y="6" on="0"/>
        <pt x="430" y="1" on="0"/>
        <pt x="382" y="-1" on="0"/>
        <pt x="370" y="-1" on="1"/>
        <pt x="337" y="-1" on="0"/>
        <pt x="274" y="8" on="0"/>
        <pt x="211" y="20" on="0"/>
        <pt x="148" y="28" on="0"/>
      </contour>
    </TTGlyph>
    <TTGlyph name="Lacute" xMin="25" yMin="-1" xMax="643" yMax="776">
      <component glyphName="L" x="0" y="0" flags="0x1204"/>
      <component glyphName="acute" x="97" y="43" flags="0x1004"/>
    </TTGlyph>
    <TTGlyph name="Lcommaaccent" xMin="25" yMin="-214" xMax="643" yMax="643">
      <component glyphName="L" x="0" y="0" flags="0x1204"/>
      <component glyphName="commaaccent" x="192" y="0" flags="0x1004"/>
    </TTGlyph>
    <TTGlyph name="Ldot" xMin="25" yMin="-1" xMax="643" yMax="643">
      <component glyphName="L" x="0" y="0" flags="0x1204"/>
      <component glyphName="periodcentered" x="228" y="130" flags="0x1004"/>
    </TTGlyph>
    <TTGlyph name="Lslash" xMin="-11" yMin="-1" xMax="643" yMax="643">
      <contour>
        <pt x="4" y="314" on="1"/>
        <pt x="41" y="314" on="1"/>
        <pt x="41" y="643" on="1"/>
        <pt x="68" y="643" on="1"/>
        <pt x="69" y="643" on="0"/>
        <pt x="74" y="623" on="0"/>
        <pt x="79" y="589" on="0"/>
        <pt x="85" y="548" on="0"/>
        <pt x="90" y="506" on="0"/>
        <pt x="94" y="465" on="0"/>
        <pt x="95" y="452" on="1"/>
        <pt x="96" y="438" on="0"/>
        <pt x="100" y="382" on="0"/>
        <pt x="101" y="347" on="1"/>
        <pt x="102" y="330" on="0"/>
        <pt x="102" y="314" on="1"/>
        <pt x="276" y="314" on="1"/>
        <pt x="285" y="314" on="0"/>
        <pt x="292" y="300" on="0"/>
        <pt x="292" y="293" on="1"/>
        <pt x="292" y="285" on="0"/>
        <pt x="279" y="274" on="0"/>
        <pt x="271" y="274" on="1"/>
        <pt x="263" y="274" on="1"/>
        <pt x="245" y="274" on="0"/>
        <pt x="194" y="277" on="0"/>
        <pt x="139" y="280" on="0"/>
        <pt x="112" y="282" on="1"/>
        <pt x="103" y="282" on="1"/>
        <pt x="103" y="274" on="1"/>
        <pt x="106" y="235" on="0"/>
        <pt x="109" y="165" on="0"/>
        <pt x="110" y="109" on="0"/>
        <pt x="110" y="95" on="1"/>
        <pt x="114" y="84" on="0"/>
        <pt x="160" y="67" on="0"/>
        <pt x="228" y="54" on="0"/>
        <pt x="306" y="46" on="0"/>
        <pt x="377" y="41" on="0"/>
        <pt x="433" y="40" on="0"/>
        <pt x="443" y="40" on="1"/>
        <pt x="467" y="40" on="0"/>
        <pt x="511" y="53" on="0"/>
        <pt x="555" y="69" on="0"/>
        <pt x="600" y="83" on="0"/>
        <pt x="624" y="83" on="1"/>
        <pt x="633" y="83" on="0"/>
        <pt x="643" y="71" on="0"/>
        <pt x="643" y="61" on="1"/>
        <pt x="643" y="49" on="0"/>
        <pt x="609" y="30" on="0"/>
        <pt x="556" y="16" on="0"/>
        <pt x="492" y="6" on="0"/>
        <pt x="430" y="1" on="0"/>
        <pt x="382" y="-1" on="0"/>
        <pt x="370" y="-1" on="1"/>
        <pt x="337" y="-1" on="0"/>
        <pt x="274" y="8" on="0"/>
        <pt x="211" y="20" on="0"/>
        <pt x="148" y="28" on="0"/>
        <pt x="116" y="28" on="1"/>
        <pt x="103" y="28" on="0"/>
        <pt x="82" y="22" on="0"/>
        <pt x="59" y="16" on="0"/>
        <pt x="37" y="11" on="0"/>
        <pt x="25" y="11" on="1"/>
        <pt x="25" y="44" on="0"/>
        <pt x="31" y="105" on="0"/>
        <pt x="41" y="137" on="1"/>
        <pt x="41" y="284" on="1"/>
        <pt x="35" y="285" on="0"/>
        <pt x="30" y="286" on="1"/>
        <pt x="17" y="287" on="1"/>
        <pt x="-11" y="301" on="1"/>
      </contour>
    </TTGlyph>
    <TTGlyph name="M" xMin="20" yMin="-1" xMax="691" yMax="616">
      <contour>
        <pt x="89" y="588" on="1"/>
        <pt x="117" y="616" on="1"/>
        <pt x="144" y="588" on="1"/>
        <pt x="266" y="287" on="1"/>
        <pt x="269" y="287" on="1"/>
        <pt x="271" y="286" on="0"/>
        <pt x="273" y="286" on="1"/>
        <pt x="287" y="286" on="0"/>
        <pt x="294" y="301" on="1"/>
        <pt x="403" y="519" on="1"/>
        <pt x="481" y="598" on="1"/>
        <pt x="514" y="534" on="1"/>
        <pt x="519" y="487" on="0"/>
        <pt x="529" y="370" on="0"/>
        <pt x="548" y="247" on="0"/>
        <pt x="581" y="129" on="0"/>
        <pt x="608" y="82" on="1"/>
        <pt x="617" y="67" on="0"/>
        <pt x="640" y="50" on="0"/>
        <pt x="662" y="39" on="0"/>
        <pt x="683" y="25" on="0"/>
        <pt x="691" y="13" on="1"/>
        <pt x="688" y="1" on="0"/>
        <pt x="667" y="-1" on="0"/>
        <pt x="658" y="-1" on="1"/>
        <pt x="626" y="-1" on="0"/>
        <pt x="571" y="39" on="0"/>
        <pt x="530" y="98" on="0"/>
        <pt x="503" y="165" on="0"/>
        <pt x="499" y="192" on="1"/>
        <pt x="498" y="203" on="0"/>
        <pt x="490" y="252" on="0"/>
        <pt x="482" y="314" on="0"/>
        <pt x="473" y="383" on="0"/>
        <pt x="465" y="445" on="0"/>
        <pt x="460" y="495" on="0"/>
        <pt x="459" y="507" on="1"/>
        <pt x="429" y="482" on="0"/>
        <pt x="382" y="405" on="0"/>
        <pt x="346" y="319" on="0"/>
        <pt x="319" y="235" on="0"/>
        <pt x="309" y="205" on="1"/>
        <pt x="305" y="193" on="0"/>
        <pt x="283" y="190" on="0"/>
        <pt x="274" y="190" on="1"/>
        <pt x="271" y="190" on="0"/>
        <pt x="256" y="191" on="0"/>
        <pt x="254" y="192" on="1"/>
        <pt x="217" y="252" on="0"/>
        <pt x="165" y="385" on="0"/>
        <pt x="144" y="452" on="1"/>
        <pt x="130" y="465" on="1"/>
        <pt x="128" y="451" on="0"/>
        <pt x="120" y="391" on="0"/>
        <pt x="109" y="315" on="0"/>
        <pt x="97" y="232" on="0"/>
        <pt x="86" y="157" on="0"/>
        <pt x="77" y="96" on="0"/>
        <pt x="76" y="82" on="1"/>
        <pt x="72" y="64" on="0"/>
        <pt x="59" y="17" on="0"/>
        <pt x="49" y="0" on="1"/>
        <pt x="44" y="2" on="0"/>
        <pt x="35" y="13" on="0"/>
        <pt x="26" y="25" on="0"/>
        <pt x="20" y="37" on="0"/>
        <pt x="21" y="40" on="1"/>
      </contour>
    </TTGlyph>
    <TTGlyph name="N" xMin="20" yMin="-1" xMax="531" yMax="702">
      <contour>
        <pt x="349" y="40" on="1"/>
        <pt x="314" y="92" on="0"/>
        <pt x="244" y="205" on="0"/>
        <pt x="179" y="324" on="0"/>
        <pt x="123" y="446" on="0"/>
        <pt x="103" y="507" on="1"/>
        <pt x="87" y="507" on="1"/>
        <pt x="87" y="499" on="0"/>
        <pt x="87" y="460" on="0"/>
        <pt x="89" y="417" on="0"/>
        <pt x="89" y="397" on="1"/>
        <pt x="89" y="370" on="1"/>
        <pt x="88" y="357" on="0"/>
        <pt x="87" y="309" on="0"/>
        <pt x="85" y="247" on="0"/>
        <pt x="82" y="178" on="0"/>
        <pt x="78" y="116" on="0"/>
        <pt x="76" y="67" on="0"/>
        <pt x="76" y="55" on="1"/>
        <pt x="73" y="50" on="0"/>
        <pt x="63" y="41" on="0"/>
        <pt x="50" y="33" on="0"/>
        <pt x="39" y="28" on="0"/>
        <pt x="34" y="28" on="1"/>
        <pt x="28" y="28" on="0"/>
        <pt x="22" y="37" on="0"/>
        <pt x="20" y="49" on="0"/>
        <pt x="20" y="61" on="0"/>
        <pt x="20" y="64" on="1"/>
        <pt x="20" y="125" on="0"/>
        <pt x="26" y="245" on="0"/>
        <pt x="32" y="365" on="0"/>
        <pt x="36" y="487" on="0"/>
        <pt x="34" y="547" on="1"/>
        <pt x="47" y="572" on="0"/>
        <pt x="74" y="589" on="0"/>
        <pt x="95" y="589" on="1"/>
        <pt x="98" y="589" on="0"/>
        <pt x="114" y="589" on="0"/>
        <pt x="117" y="588" on="1"/>
        <pt x="148" y="520" on="0"/>
        <pt x="209" y="398" on="0"/>
        <pt x="271" y="281" on="0"/>
        <pt x="337" y="167" on="0"/>
        <pt x="376" y="109" on="1"/>
        <pt x="378" y="107" on="0"/>
        <pt x="388" y="97" on="0"/>
        <pt x="391" y="95" on="1"/>
        <pt x="391" y="108" on="0"/>
        <pt x="392" y="159" on="0"/>
        <pt x="395" y="225" on="0"/>
        <pt x="398" y="295" on="0"/>
        <pt x="400" y="361" on="0"/>
        <pt x="403" y="412" on="0"/>
        <pt x="403" y="425" on="1"/>
        <pt x="405" y="443" on="0"/>
        <pt x="411" y="498" on="0"/>
        <pt x="424" y="560" on="0"/>
        <pt x="443" y="621" on="0"/>
        <pt x="471" y="670" on="0"/>
        <pt x="507" y="702" on="0"/>
        <pt x="531" y="702" on="1"/>
        <pt x="531" y="679" on="0"/>
        <pt x="517" y="637" on="0"/>
        <pt x="497" y="599" on="0"/>
        <pt x="472" y="562" on="0"/>
        <pt x="452" y="522" on="0"/>
        <pt x="438" y="478" on="0"/>
        <pt x="438" y="452" on="1"/>
        <pt x="438" y="13" on="1"/>
        <pt x="434" y="11" on="1"/>
        <pt x="430" y="9" on="0"/>
        <pt x="419" y="5" on="0"/>
        <pt x="408" y="1" on="0"/>
        <pt x="403" y="0" on="1"/>
        <pt x="401" y="0" on="1"/>
        <pt x="398" y="-1" on="0"/>
        <pt x="397" y="-1" on="1"/>
        <pt x="393" y="-1" on="1"/>
        <pt x="392" y="-1" on="0"/>
        <pt x="391" y="0" on="1"/>
        <pt x="388" y="2" on="0"/>
        <pt x="376" y="13" on="0"/>
        <pt x="363" y="26" on="0"/>
        <pt x="351" y="39" on="0"/>
      </contour>
    </TTGlyph>
    <TTGlyph name="Nacute" xMin="20" yMin="-1" xMax="531" yMax="776">
      <component glyphName="N" x="0" y="0" flags="0x1204"/>
      <component glyphName="acute" x="52" y="43" flags="0x1004"/>
    </TTGlyph>
    <TTGlyph name="Ncaron" xMin="20" yMin="-1" xMax="531" yMax="772">
      <component glyphName="N" x="0" y="0" flags="0x1204"/>
      <component glyphName="caron" x="-22" y="43" flags="0x1004"/>
    </TTGlyph>
    <TTGlyph name="Ncommaaccent" xMin="20" yMin="-214" xMax="531" yMax="702">
      <component glyphName="N" x="0" y="0" flags="0x1204"/>
      <component glyphName="commaaccent" x="147" y="0" flags="0x1004"/>
    </TTGlyph>
    <TTGlyph name="Ntilde" xMin="20" yMin="-1" xMax="531" yMax="778">
      <component glyphName="N" x="0" y="0" flags="0x1204"/>
      <component glyphName="tilde" x="-90" y="42" flags="0x1004"/>
    </TTGlyph>
    <TTGlyph name="O" xMin="20" yMin="-1" xMax="419" yMax="577">
      <contour>
        <pt x="20" y="182" on="1"/>
        <pt x="20" y="214" on="0"/>
        <pt x="28" y="298" on="0"/>
        <pt x="47" y="386" on="0"/>
        <pt x="78" y="471" on="0"/>
        <pt x="125" y="536" on="0"/>
        <pt x="189" y="577" on="0"/>
        <pt x="230" y="577" on="1"/>
        <pt x="287" y="577" on="0"/>
        <pt x="360" y="530" on="0"/>
        <pt x="402" y="455" on="0"/>
        <pt x="419" y="362" on="0"/>
        <pt x="419" y="315" on="1"/>
        <pt x="419" y="255" on="0"/>
        <pt x="395" y="141" on="0"/>
        <pt x="338" y="52" on="0"/>
        <pt x="247" y="-1" on="0"/>
        <pt x="177" y="-1" on="1"/>
        <pt x="133" y="-1" on="0"/>
        <pt x="74" y="28" on="0"/>
        <pt x="36" y="76" on="0"/>
        <pt x="20" y="144" on="0"/>
      </contour>
      <contour>
        <pt x="75" y="197" on="1"/>
        <pt x="75" y="166" on="0"/>
        <pt x="83" y="108" on="0"/>
        <pt x="108" y="66" on="0"/>
        <pt x="154" y="40" on="0"/>
        <pt x="193" y="40" on="1"/>
        <pt x="247" y="40" on="0"/>
        <pt x="319" y="86" on="0"/>
        <pt x="361" y="160" on="0"/>
        <pt x="378" y="252" on="0"/>
        <pt x="378" y="298" on="1"/>
        <pt x="378" y="310" on="0"/>
        <pt x="377" y="352" on="0"/>
        <pt x="372" y="400" on="0"/>
        <pt x="362" y="452" on="0"/>
        <pt x="344" y="493" on="0"/>
        <pt x="314" y="519" on="0"/>
        <pt x="294" y="519" on="1"/>
        <pt x="246" y="519" on="0"/>
        <pt x="175" y="497" on="0"/>
        <pt x="126" y="454" on="0"/>
        <pt x="96" y="395" on="0"/>
        <pt x="80" y="324" on="0"/>
        <pt x="75" y="241" on="0"/>
      </contour>
    </TTGlyph>
    <TTGlyph name="OE" xMin="20" yMin="-1" xMax="723" yMax="584">
      <contour>
        <pt x="20" y="182" on="1"/>
        <pt x="20" y="214" on="0"/>
        <pt x="28" y="298" on="0"/>
        <pt x="47" y="386" on="0"/>
        <pt x="78" y="471" on="0"/>
        <pt x="125" y="536" on="0"/>
        <pt x="189" y="577" on="0"/>
        <pt x="230" y="577" on="1"/>
        <pt x="269" y="577" on="0"/>
        <pt x="314" y="554" on="0"/>
        <pt x="325" y="535" on="1"/>
        <pt x="325" y="536" on="0"/>
        <pt x="326" y="538" on="0"/>
        <pt x="326" y="539" on="1"/>
        <pt x="366" y="553" on="0"/>
        <pt x="434" y="571" on="0"/>
        <pt x="499" y="580" on="0"/>
        <pt x="565" y="584" on="0"/>
        <pt x="606" y="584" on="1"/>
        <pt x="611" y="584" on="0"/>
        <pt x="635" y="583" on="0"/>
        <pt x="660" y="581" on="0"/>
        <pt x="679" y="581" on="0"/>
        <pt x="682" y="580" on="1"/>
        <pt x="709" y="567" on="1"/>
        <pt x="695" y="553" on="1"/>
        <pt x="688" y="553" on="0"/>
        <pt x="649" y="554" on="0"/>
        <pt x="606" y="554" on="0"/>
        <pt x="566" y="553" on="0"/>
        <pt x="558" y="553" on="1"/>
        <pt x="544" y="551" on="0"/>
        <pt x="504" y="544" on="0"/>
        <pt x="462" y="536" on="0"/>
        <pt x="420" y="527" on="0"/>
        <pt x="387" y="519" on="0"/>
        <pt x="367" y="514" on="0"/>
        <pt x="367" y="512" on="1"/>
        <pt x="367" y="334" on="1"/>
        <pt x="633" y="334" on="1"/>
        <pt x="633" y="324" on="0"/>
        <pt x="600" y="310" on="0"/>
        <pt x="551" y="301" on="0"/>
        <pt x="490" y="296" on="0"/>
        <pt x="435" y="291" on="0"/>
        <pt x="390" y="284" on="0"/>
        <pt x="381" y="279" on="1"/>
        <pt x="381" y="274" on="0"/>
        <pt x="380" y="251" on="0"/>
        <pt x="379" y="225" on="0"/>
        <pt x="379" y="213" on="1"/>
        <pt x="379" y="197" on="1"/>
        <pt x="379" y="180" on="0"/>
        <pt x="377" y="133" on="0"/>
        <pt x="384" y="90" on="0"/>
        <pt x="407" y="59" on="0"/>
        <pt x="432" y="59" on="1"/>
        <pt x="465" y="59" on="0"/>
        <pt x="533" y="64" on="0"/>
        <pt x="600" y="69" on="0"/>
        <pt x="668" y="74" on="0"/>
        <pt x="702" y="74" on="1"/>
        <pt x="723" y="74" on="1"/>
        <pt x="715" y="65" on="0"/>
        <pt x="693" y="45" on="0"/>
        <pt x="667" y="30" on="0"/>
        <pt x="639" y="20" on="0"/>
        <pt x="627" y="20" on="1"/>
        <pt x="409" y="20" on="1"/>
        <pt x="375" y="20" on="0"/>
        <pt x="336" y="59" on="0"/>
        <pt x="325" y="91" on="1"/>
        <pt x="318" y="70" on="0"/>
        <pt x="295" y="36" on="0"/>
        <pt x="260" y="12" on="0"/>
        <pt x="211" y="-1" on="0"/>
        <pt x="177" y="-1" on="1"/>
        <pt x="133" y="-1" on="0"/>
        <pt x="74" y="28" on="0"/>
        <pt x="36" y="76" on="0"/>
        <pt x="20" y="144" on="0"/>
      </contour>
      <contour>
        <pt x="311" y="334" on="1"/>
        <pt x="311" y="355" on="0"/>
        <pt x="312" y="391" on="0"/>
        <pt x="314" y="425" on="0"/>
        <pt x="317" y="459" on="0"/>
        <pt x="319" y="479" on="1"/>
        <pt x="313" y="494" on="0"/>
        <pt x="292" y="512" on="0"/>
        <pt x="275" y="512" on="1"/>
        <pt x="227" y="512" on="0"/>
        <pt x="159" y="490" on="0"/>
        <pt x="114" y="449" on="0"/>
        <pt x="90" y="392" on="0"/>
        <pt x="77" y="322" on="0"/>
        <pt x="75" y="241" on="0"/>
        <pt x="75" y="197" on="1"/>
        <pt x="75" y="166" on="0"/>
        <pt x="83" y="108" on="0"/>
        <pt x="108" y="66" on="0"/>
        <pt x="154" y="40" on="0"/>
        <pt x="193" y="40" on="1"/>
        <pt x="223" y="40" on="0"/>
        <pt x="266" y="55" on="0"/>
        <pt x="295" y="82" on="0"/>
        <pt x="310" y="120" on="0"/>
        <pt x="314" y="141" on="1"/>
        <pt x="310" y="168" on="0"/>
        <pt x="309" y="225" on="0"/>
        <pt x="310" y="276" on="0"/>
        <pt x="311" y="319" on="0"/>
      </contour>
    </TTGlyph>
    <TTGlyph name="Oacute" xMin="20" yMin="-1" xMax="419" yMax="775">
      <component glyphName="O" x="0" y="0" flags="0x1204"/>
      <component glyphName="acute" x="-1" y="42" flags="0x1004"/>
    </TTGlyph>
    <TTGlyph name="Obreve" xMin="20" yMin="-1" xMax="419" yMax="804">
      <component glyphName="O" x="0" y="0" flags="0x1204"/>
      <component glyphName="breve" x="75" y="110" flags="0x1004"/>
    </TTGlyph>
    <TTGlyph name="Ocircumflex" xMin="20" yMin="-1" xMax="419" yMax="916">
      <component glyphName="O" x="0" y="0" flags="0x1204"/>
      <component glyphName="circumflex" x="-64" y="76" flags="0x1004"/>
    </TTGlyph>
    <TTGlyph name="Odieresis" xMin="20" yMin="-1" xMax="419" yMax="679">
      <component glyphName="O" x="0" y="0" flags="0x1204"/>
      <component glyphName="dieresis" x="-65" y="122" flags="0x1004"/>
    </TTGlyph>
    <TTGlyph name="Ograve" xMin="20" yMin="-1" xMax="419" yMax="775">
      <component glyphName="O" x="0" y="0" flags="0x1204"/>
      <component glyphName="grave" x="12" y="42" flags="0x1004"/>
    </TTGlyph>
    <TTGlyph name="Ohungarumlaut" xMin="20" yMin="-1" xMax="419" yMax="761">
      <component glyphName="O" x="0" y="0" flags="0x1204"/>
      <component glyphName="hungarumlaut" x="96" y="220" flags="0x1004"/>
    </TTGlyph>
    <TTGlyph name="Omacron" xMin="20" yMin="-1" xMax="419" yMax="683">
      <component glyphName="O" x="0" y="0" flags="0x1204"/>
      <component glyphName="macron" x="72" y="183" flags="0x1004"/>
    </TTGlyph>
    <TTGlyph name="Oslash" xMin="20" yMin="-1" xMax="419" yMax="577">
      <contour>
        <pt x="40" y="21" on="1"/>
        <pt x="40" y="22" on="0"/>
        <pt x="40" y="27" on="0"/>
        <pt x="40" y="28" on="1"/>
        <pt x="47" y="36" on="0"/>
        <pt x="58" y="49" on="1"/>
        <pt x="55" y="52" on="1"/>
        <pt x="36" y="76" on="0"/>
        <pt x="20" y="144" on="0"/>
        <pt x="20" y="182" on="1"/>
        <pt x="20" y="214" on="0"/>
        <pt x="28" y="298" on="0"/>
        <pt x="47" y="386" on="0"/>
        <pt x="78" y="471" on="0"/>
        <pt x="125" y="536" on="0"/>
        <pt x="189" y="577" on="0"/>
        <pt x="230" y="577" on="1"/>
        <pt x="287" y="577" on="0"/>
        <pt x="323" y="553" on="1"/>
        <pt x="357" y="532" on="0"/>
        <pt x="378" y="498" on="1"/>
        <pt x="382" y="504" on="0"/>
        <pt x="382" y="507" on="1"/>
        <pt x="410" y="507" on="1"/>
        <pt x="405" y="484" on="0"/>
        <pt x="396" y="461" on="1"/>
        <pt x="406" y="436" on="0"/>
        <pt x="410" y="409" on="1"/>
        <pt x="419" y="362" on="0"/>
        <pt x="419" y="315" on="1"/>
        <pt x="419" y="255" on="0"/>
        <pt x="395" y="141" on="0"/>
        <pt x="338" y="52" on="0"/>
        <pt x="247" y="-1" on="0"/>
        <pt x="177" y="-1" on="1"/>
        <pt x="133" y="-1" on="0"/>
        <pt x="103" y="13" on="1"/>
        <pt x="95" y="17" on="0"/>
        <pt x="87" y="22" on="1"/>
        <pt x="85" y="17" on="0"/>
        <pt x="82" y="13" on="1"/>
        <pt x="76" y="5" on="0"/>
        <pt x="69" y="-1" on="0"/>
        <pt x="61" y="-1" on="1"/>
        <pt x="52" y="-1" on="0"/>
        <pt x="40" y="12" on="0"/>
      </contour>
      <contour>
        <pt x="75" y="197" on="1"/>
        <pt x="75" y="166" on="0"/>
        <pt x="79" y="136" on="1"/>
        <pt x="82" y="113" on="0"/>
        <pt x="90" y="95" on="1"/>
        <pt x="108" y="119" on="0"/>
        <pt x="129" y="147" on="1"/>
        <pt x="158" y="187" on="0"/>
        <pt x="224" y="276" on="0"/>
        <pt x="283" y="358" on="0"/>
        <pt x="330" y="422" on="0"/>
        <pt x="342" y="438" on="1"/>
        <pt x="345" y="442" on="0"/>
        <pt x="350" y="452" on="1"/>
        <pt x="354" y="456" on="0"/>
        <pt x="357" y="463" on="1"/>
        <pt x="355" y="468" on="0"/>
        <pt x="352" y="472" on="1"/>
        <pt x="344" y="493" on="0"/>
        <pt x="314" y="519" on="0"/>
        <pt x="294" y="519" on="1"/>
        <pt x="246" y="519" on="0"/>
        <pt x="175" y="497" on="0"/>
        <pt x="126" y="454" on="0"/>
        <pt x="96" y="395" on="0"/>
        <pt x="80" y="324" on="0"/>
        <pt x="75" y="241" on="0"/>
      </contour>
      <contour>
        <pt x="130" y="52" on="1"/>
        <pt x="154" y="40" on="0"/>
        <pt x="193" y="40" on="1"/>
        <pt x="247" y="40" on="0"/>
        <pt x="319" y="86" on="0"/>
        <pt x="361" y="160" on="0"/>
        <pt x="378" y="252" on="0"/>
        <pt x="378" y="298" on="1"/>
        <pt x="378" y="310" on="0"/>
        <pt x="377" y="352" on="0"/>
        <pt x="374" y="376" on="1"/>
        <pt x="373" y="391" on="0"/>
        <pt x="371" y="406" on="1"/>
        <pt x="353" y="373" on="0"/>
        <pt x="332" y="341" on="1"/>
        <pt x="304" y="298" on="0"/>
        <pt x="239" y="211" on="0"/>
        <pt x="173" y="128" on="0"/>
        <pt x="140" y="88" on="1"/>
        <pt x="129" y="74" on="0"/>
        <pt x="118" y="60" on="1"/>
        <pt x="124" y="57" on="0"/>
      </contour>
    </TTGlyph>
    <TTGlyph name="Oslashacute" xMin="20" yMin="-1" xMax="419" yMax="776">
      <contour>
        <pt x="40" y="21" on="1"/>
        <pt x="40" y="22" on="0"/>
        <pt x="41" y="27" on="0"/>
        <pt x="41" y="28" on="1"/>
        <pt x="58" y="49" on="1"/>
        <pt x="56" y="50" on="0"/>
        <pt x="55" y="52" on="1"/>
        <pt x="36" y="76" on="0"/>
        <pt x="20" y="144" on="0"/>
        <pt x="20" y="182" on="1"/>
        <pt x="20" y="214" on="0"/>
        <pt x="28" y="298" on="0"/>
        <pt x="47" y="386" on="0"/>
        <pt x="78" y="471" on="0"/>
        <pt x="125" y="536" on="0"/>
        <pt x="189" y="577" on="0"/>
        <pt x="230" y="577" on="1"/>
        <pt x="287" y="577" on="0"/>
        <pt x="323" y="553" on="1"/>
        <pt x="357" y="532" on="0"/>
        <pt x="378" y="498" on="1"/>
        <pt x="382" y="503" on="0"/>
        <pt x="383" y="507" on="1"/>
        <pt x="411" y="507" on="1"/>
        <pt x="406" y="484" on="0"/>
        <pt x="396" y="460" on="1"/>
        <pt x="406" y="436" on="0"/>
        <pt x="410" y="409" on="1"/>
        <pt x="419" y="362" on="0"/>
        <pt x="419" y="315" on="1"/>
        <pt x="419" y="255" on="0"/>
        <pt x="395" y="141" on="0"/>
        <pt x="338" y="52" on="0"/>
        <pt x="247" y="-1" on="0"/>
        <pt x="177" y="-1" on="1"/>
        <pt x="133" y="-1" on="0"/>
        <pt x="103" y="13" on="1"/>
        <pt x="95" y="17" on="0"/>
        <pt x="88" y="22" on="1"/>
        <pt x="85" y="17" on="0"/>
        <pt x="82" y="13" on="1"/>
        <pt x="76" y="5" on="0"/>
        <pt x="70" y="-1" on="0"/>
        <pt x="62" y="-1" on="1"/>
        <pt x="53" y="-1" on="0"/>
        <pt x="40" y="12" on="0"/>
      </contour>
      <contour>
        <pt x="75" y="197" on="1"/>
        <pt x="75" y="166" on="0"/>
        <pt x="79" y="136" on="1"/>
        <pt x="82" y="113" on="0"/>
        <pt x="91" y="94" on="1"/>
        <pt x="109" y="119" on="0"/>
        <pt x="130" y="147" on="1"/>
        <pt x="159" y="187" on="0"/>
        <pt x="225" y="276" on="0"/>
        <pt x="284" y="358" on="0"/>
        <pt x="331" y="422" on="0"/>
        <pt x="343" y="438" on="1"/>
        <pt x="346" y="442" on="0"/>
        <pt x="351" y="452" on="1"/>
        <pt x="355" y="456" on="0"/>
        <pt x="357" y="461" on="1"/>
        <pt x="355" y="467" on="0"/>
        <pt x="352" y="472" on="1"/>
        <pt x="344" y="493" on="0"/>
        <pt x="314" y="519" on="0"/>
        <pt x="294" y="519" on="1"/>
        <pt x="246" y="519" on="0"/>
        <pt x="175" y="497" on="0"/>
        <pt x="126" y="454" on="0"/>
        <pt x="96" y="395" on="0"/>
        <pt x="80" y="324" on="0"/>
        <pt x="75" y="241" on="0"/>
      </contour>
      <contour>
        <pt x="130" y="52" on="1"/>
        <pt x="154" y="40" on="0"/>
        <pt x="193" y="40" on="1"/>
        <pt x="247" y="40" on="0"/>
        <pt x="319" y="86" on="0"/>
        <pt x="361" y="160" on="0"/>
        <pt x="378" y="252" on="0"/>
        <pt x="378" y="298" on="1"/>
        <pt x="378" y="310" on="0"/>
        <pt x="377" y="352" on="0"/>
        <pt x="374" y="376" on="1"/>
        <pt x="373" y="391" on="0"/>
        <pt x="371" y="405" on="1"/>
        <pt x="354" y="373" on="0"/>
        <pt x="333" y="341" on="1"/>
        <pt x="305" y="298" on="0"/>
        <pt x="240" y="211" on="0"/>
        <pt x="174" y="128" on="0"/>
        <pt x="141" y="88" on="1"/>
        <pt x="130" y="74" on="0"/>
        <pt x="118" y="60" on="1"/>
        <pt x="124" y="57" on="0"/>
      </contour>
      <contour>
        <pt x="289" y="770" on="1"/>
        <pt x="305" y="765" on="0"/>
        <pt x="304" y="742" on="0"/>
        <pt x="282" y="714" on="0"/>
        <pt x="243" y="681" on="0"/>
        <pt x="200" y="652" on="0"/>
        <pt x="157" y="630" on="0"/>
        <pt x="128" y="621" on="0"/>
        <pt x="117" y="627" on="0"/>
        <pt x="125" y="643" on="1"/>
        <pt x="130" y="652" on="0"/>
        <pt x="152" y="676" on="0"/>
        <pt x="179" y="701" on="0"/>
        <pt x="207" y="728" on="0"/>
        <pt x="232" y="751" on="0"/>
        <pt x="250" y="770" on="0"/>
        <pt x="253" y="776" on="1"/>
      </contour>
    </TTGlyph>
    <TTGlyph name="Otilde" xMin="16" yMin="-1" xMax="419" yMax="778">
      <component glyphName="O" x="0" y="0" flags="0x1204"/>
      <component glyphName="tilde" x="-144" y="42" flags="0x1004"/>
    </TTGlyph>
    <TTGlyph name="P" xMin="22" yMin="25" xMax="454" yMax="670">
      <contour>
        <pt x="36" y="614" on="1"/>
        <pt x="37" y="615" on="0"/>
        <pt x="46" y="619" on="0"/>
        <pt x="48" y="619" on="1"/>
        <pt x="53" y="619" on="0"/>
        <pt x="58" y="617" on="1"/>
        <pt x="58" y="619" on="0"/>
        <pt x="57" y="619" on="1"/>
        <pt x="55" y="624" on="0"/>
        <pt x="55" y="625" on="1"/>
        <pt x="55" y="641" on="0"/>
        <pt x="74" y="658" on="0"/>
        <pt x="102" y="668" on="0"/>
        <pt x="136" y="670" on="0"/>
        <pt x="167" y="670" on="0"/>
        <pt x="193" y="668" on="0"/>
        <pt x="198" y="668" on="1"/>
        <pt x="222" y="668" on="0"/>
        <pt x="281" y="666" on="0"/>
        <pt x="337" y="658" on="0"/>
        <pt x="390" y="641" on="0"/>
        <pt x="430" y="610" on="0"/>
        <pt x="454" y="563" on="0"/>
        <pt x="454" y="530" on="1"/>
        <pt x="454" y="494" on="0"/>
        <pt x="436" y="435" on="0"/>
        <pt x="411" y="406" on="1"/>
        <pt x="382" y="387" on="0"/>
        <pt x="315" y="346" on="0"/>
        <pt x="243" y="316" on="0"/>
        <pt x="167" y="296" on="0"/>
        <pt x="130" y="296" on="1"/>
        <pt x="125" y="296" on="0"/>
        <pt x="109" y="297" on="0"/>
        <pt x="93" y="301" on="0"/>
        <pt x="82" y="310" on="0"/>
        <pt x="82" y="318" on="1"/>
        <pt x="82" y="319" on="0"/>
        <pt x="82" y="324" on="0"/>
        <pt x="83" y="325" on="1"/>
        <pt x="115" y="323" on="0"/>
        <pt x="180" y="337" on="0"/>
        <pt x="243" y="362" on="0"/>
        <pt x="302" y="391" on="0"/>
        <pt x="328" y="406" on="1"/>
        <pt x="337" y="411" on="0"/>
        <pt x="360" y="427" on="0"/>
        <pt x="382" y="445" on="0"/>
        <pt x="398" y="460" on="0"/>
        <pt x="398" y="462" on="1"/>
        <pt x="398" y="571" on="1"/>
        <pt x="398" y="572" on="0"/>
        <pt x="391" y="580" on="0"/>
        <pt x="382" y="589" on="0"/>
        <pt x="373" y="598" on="0"/>
        <pt x="370" y="598" on="1"/>
        <pt x="344" y="611" on="0"/>
        <pt x="301" y="624" on="0"/>
        <pt x="259" y="629" on="0"/>
        <pt x="236" y="629" on="1"/>
        <pt x="184" y="629" on="1"/>
        <pt x="177" y="629" on="0"/>
        <pt x="154" y="628" on="0"/>
        <pt x="130" y="627" on="0"/>
        <pt x="112" y="626" on="0"/>
        <pt x="110" y="625" on="1"/>
        <pt x="73" y="601" on="1"/>
        <pt x="75" y="596" on="0"/>
        <pt x="76" y="589" on="1"/>
        <pt x="77" y="581" on="0"/>
        <pt x="77" y="573" on="1"/>
        <pt x="77" y="53" on="1"/>
        <pt x="77" y="52" on="0"/>
        <pt x="67" y="40" on="0"/>
        <pt x="63" y="39" on="1"/>
        <pt x="61" y="38" on="0"/>
        <pt x="49" y="33" on="0"/>
        <pt x="36" y="30" on="0"/>
        <pt x="25" y="26" on="0"/>
        <pt x="22" y="25" on="1"/>
        <pt x="22" y="545" on="1"/>
      </contour>
    </TTGlyph>
    <TTGlyph name="Q" xMin="20" yMin="-2" xMax="499" yMax="603">
      <contour>
        <pt x="20" y="191" on="1"/>
        <pt x="20" y="216" on="0"/>
        <pt x="31" y="296" on="0"/>
        <pt x="52" y="388" on="0"/>
        <pt x="85" y="481" on="0"/>
        <pt x="131" y="556" on="0"/>
        <pt x="191" y="603" on="0"/>
        <pt x="228" y="603" on="1"/>
        <pt x="284" y="603" on="0"/>
        <pt x="375" y="562" on="0"/>
        <pt x="439" y="492" on="0"/>
        <pt x="473" y="397" on="0"/>
        <pt x="473" y="342" on="1"/>
        <pt x="473" y="319" on="0"/>
        <pt x="464" y="279" on="0"/>
        <pt x="453" y="238" on="0"/>
        <pt x="444" y="198" on="0"/>
        <pt x="444" y="175" on="1"/>
        <pt x="444" y="157" on="0"/>
        <pt x="460" y="133" on="0"/>
        <pt x="481" y="112" on="0"/>
        <pt x="498" y="87" on="0"/>
        <pt x="499" y="68" on="1"/>
        <pt x="498" y="67" on="0"/>
        <pt x="481" y="66" on="0"/>
        <pt x="479" y="66" on="1"/>
        <pt x="465" y="66" on="0"/>
        <pt x="448" y="80" on="0"/>
        <pt x="433" y="97" on="0"/>
        <pt x="417" y="112" on="0"/>
        <pt x="403" y="112" on="1"/>
        <pt x="402" y="112" on="0"/>
        <pt x="392" y="110" on="0"/>
        <pt x="391" y="109" on="1"/>
        <pt x="364" y="82" on="0"/>
        <pt x="309" y="41" on="0"/>
        <pt x="250" y="13" on="0"/>
        <pt x="185" y="-2" on="0"/>
        <pt x="147" y="-2" on="1"/>
        <pt x="110" y="-2" on="0"/>
        <pt x="60" y="35" on="0"/>
        <pt x="31" y="92" on="0"/>
        <pt x="20" y="159" on="0"/>
      </contour>
      <contour>
        <pt x="74" y="208" on="1"/>
        <pt x="74" y="179" on="0"/>
        <pt x="79" y="124" on="0"/>
        <pt x="98" y="80" on="0"/>
        <pt x="138" y="53" on="0"/>
        <pt x="173" y="53" on="1"/>
        <pt x="204" y="53" on="0"/>
        <pt x="256" y="66" on="0"/>
        <pt x="301" y="90" on="0"/>
        <pt x="342" y="126" on="0"/>
        <pt x="363" y="150" on="1"/>
        <pt x="266" y="247" on="1"/>
        <pt x="266" y="270" on="1"/>
        <pt x="288" y="270" on="0"/>
        <pt x="319" y="260" on="0"/>
        <pt x="345" y="241" on="0"/>
        <pt x="372" y="218" on="0"/>
        <pt x="391" y="205" on="1"/>
        <pt x="408" y="215" on="0"/>
        <pt x="425" y="247" on="0"/>
        <pt x="432" y="283" on="0"/>
        <pt x="433" y="321" on="0"/>
        <pt x="433" y="337" on="1"/>
        <pt x="433" y="378" on="0"/>
        <pt x="413" y="463" on="0"/>
        <pt x="371" y="532" on="0"/>
        <pt x="302" y="576" on="0"/>
        <pt x="253" y="576" on="1"/>
        <pt x="217" y="576" on="0"/>
        <pt x="163" y="535" on="0"/>
        <pt x="122" y="470" on="0"/>
        <pt x="96" y="388" on="0"/>
        <pt x="81" y="306" on="0"/>
        <pt x="74" y="232" on="0"/>
      </contour>
    </TTGlyph>
    <TTGlyph name="R" xMin="20" yMin="5" xMax="608" yMax="699">
      <contour>
        <pt x="34" y="547" on="1"/>
        <pt x="25" y="560" on="0"/>
        <pt x="20" y="576" on="0"/>
        <pt x="20" y="588" on="1"/>
        <pt x="20" y="609" on="0"/>
        <pt x="44" y="643" on="0"/>
        <pt x="82" y="668" on="0"/>
        <pt x="129" y="684" on="0"/>
        <pt x="177" y="695" on="0"/>
        <pt x="221" y="699" on="0"/>
        <pt x="238" y="699" on="1"/>
        <pt x="304" y="699" on="0"/>
        <pt x="364" y="643" on="0"/>
        <pt x="364" y="576" on="1"/>
        <pt x="364" y="487" on="0"/>
        <pt x="278" y="376" on="0"/>
        <pt x="198" y="342" on="1"/>
        <pt x="198" y="341" on="0"/>
        <pt x="198" y="337" on="0"/>
        <pt x="198" y="336" on="1"/>
        <pt x="198" y="304" on="0"/>
        <pt x="244" y="251" on="0"/>
        <pt x="318" y="209" on="0"/>
        <pt x="409" y="176" on="0"/>
        <pt x="497" y="155" on="0"/>
        <pt x="573" y="148" on="0"/>
        <pt x="596" y="150" on="1"/>
        <pt x="608" y="137" on="1"/>
        <pt x="603" y="125" on="0"/>
        <pt x="578" y="112" on="0"/>
        <pt x="548" y="108" on="0"/>
        <pt x="518" y="109" on="0"/>
        <pt x="508" y="109" on="1"/>
        <pt x="456" y="109" on="0"/>
        <pt x="352" y="137" on="0"/>
        <pt x="256" y="188" on="0"/>
        <pt x="173" y="258" on="0"/>
        <pt x="144" y="301" on="1"/>
        <pt x="117" y="301" on="1"/>
        <pt x="117" y="5" on="1"/>
        <pt x="98" y="5" on="0"/>
        <pt x="82" y="20" on="0"/>
        <pt x="76" y="43" on="0"/>
        <pt x="76" y="70" on="0"/>
        <pt x="76" y="82" on="1"/>
        <pt x="74" y="100" on="0"/>
        <pt x="67" y="173" on="0"/>
        <pt x="59" y="264" on="0"/>
        <pt x="50" y="365" on="0"/>
        <pt x="42" y="457" on="0"/>
        <pt x="36" y="530" on="0"/>
      </contour>
      <contour>
        <pt x="103" y="397" on="1"/>
        <pt x="112" y="379" on="0"/>
        <pt x="128" y="369" on="0"/>
        <pt x="142" y="369" on="1"/>
        <pt x="176" y="369" on="0"/>
        <pt x="242" y="402" on="0"/>
        <pt x="292" y="454" on="0"/>
        <pt x="322" y="521" on="0"/>
        <pt x="322" y="554" on="1"/>
        <pt x="322" y="571" on="0"/>
        <pt x="318" y="608" on="0"/>
        <pt x="303" y="639" on="0"/>
        <pt x="276" y="658" on="0"/>
        <pt x="256" y="658" on="1"/>
        <pt x="229" y="658" on="0"/>
        <pt x="170" y="652" on="0"/>
        <pt x="121" y="631" on="0"/>
        <pt x="88" y="595" on="0"/>
        <pt x="88" y="565" on="1"/>
        <pt x="88" y="542" on="0"/>
        <pt x="90" y="503" on="0"/>
        <pt x="93" y="464" on="0"/>
        <pt x="99" y="422" on="0"/>
      </contour>
    </TTGlyph>
    <TTGlyph name="Racute" xMin="20" yMin="5" xMax="608" yMax="901">
      <component glyphName="R" x="0" y="0" flags="0x1204"/>
      <component glyphName="acute" x="5" y="168" flags="0x1004"/>
    </TTGlyph>
    <TTGlyph name="Rcaron" xMin="20" yMin="5" xMax="608" yMax="897">
      <component glyphName="R" x="0" y="0" flags="0x1204"/>
      <component glyphName="caron" x="-23" y="168" flags="0x1004"/>
    </TTGlyph>
    <TTGlyph name="Rcommaaccent" xMin="20" yMin="-214" xMax="608" yMax="699">
      <component glyphName="R" x="0" y="0" flags="0x1204"/>
      <component glyphName="commaaccent" x="178" y="0" flags="0x1004"/>
    </TTGlyph>
    <TTGlyph name="S" xMin="20" yMin="-1" xMax="446" yMax="699">
      <contour>
        <pt x="34" y="137" on="1"/>
        <pt x="34" y="145" on="0"/>
        <pt x="49" y="151" on="0"/>
        <pt x="55" y="151" on="1"/>
        <pt x="60" y="151" on="0"/>
        <pt x="81" y="136" on="0"/>
        <pt x="112" y="114" on="0"/>
        <pt x="149" y="89" on="0"/>
        <pt x="192" y="67" on="0"/>
        <pt x="236" y="52" on="0"/>
        <pt x="258" y="52" on="1"/>
        <pt x="291" y="52" on="0"/>
        <pt x="345" y="69" on="0"/>
        <pt x="383" y="103" on="0"/>
        <pt x="405" y="155" on="0"/>
        <pt x="405" y="189" on="1"/>
        <pt x="405" y="246" on="0"/>
        <pt x="372" y="311" on="0"/>
        <pt x="318" y="346" on="0"/>
        <pt x="248" y="359" on="0"/>
        <pt x="176" y="368" on="0"/>
        <pt x="106" y="382" on="0"/>
        <pt x="52" y="417" on="0"/>
        <pt x="20" y="484" on="0"/>
        <pt x="20" y="543" on="1"/>
        <pt x="20" y="571" on="0"/>
        <pt x="26" y="627" on="0"/>
        <pt x="49" y="672" on="0"/>
        <pt x="90" y="699" on="0"/>
        <pt x="123" y="699" on="1"/>
        <pt x="142" y="699" on="0"/>
        <pt x="188" y="686" on="0"/>
        <pt x="228" y="661" on="0"/>
        <pt x="255" y="625" on="0"/>
        <pt x="255" y="602" on="1"/>
        <pt x="255" y="600" on="0"/>
        <pt x="254" y="589" on="0"/>
        <pt x="254" y="588" on="1"/>
        <pt x="238" y="606" on="0"/>
        <pt x="214" y="633" on="0"/>
        <pt x="188" y="650" on="0"/>
        <pt x="157" y="658" on="0"/>
        <pt x="134" y="658" on="1"/>
        <pt x="112" y="658" on="0"/>
        <pt x="84" y="643" on="0"/>
        <pt x="67" y="616" on="0"/>
        <pt x="60" y="581" on="0"/>
        <pt x="60" y="562" on="1"/>
        <pt x="60" y="508" on="0"/>
        <pt x="93" y="447" on="0"/>
        <pt x="148" y="414" on="0"/>
        <pt x="217" y="400" on="0"/>
        <pt x="290" y="390" on="0"/>
        <pt x="359" y="372" on="0"/>
        <pt x="414" y="330" on="0"/>
        <pt x="446" y="256" on="0"/>
        <pt x="446" y="193" on="1"/>
        <pt x="446" y="142" on="0"/>
        <pt x="417" y="68" on="0"/>
        <pt x="362" y="22" on="0"/>
        <pt x="282" y="-1" on="0"/>
        <pt x="230" y="-1" on="1"/>
        <pt x="220" y="-1" on="0"/>
        <pt x="182" y="10" on="0"/>
        <pt x="139" y="30" on="0"/>
        <pt x="94" y="56" on="0"/>
        <pt x="58" y="86" on="0"/>
        <pt x="34" y="120" on="0"/>
      </contour>
    </TTGlyph>
    <TTGlyph name="Sacute" xMin="20" yMin="-1" xMax="446" yMax="890">
      <component glyphName="S" x="0" y="0" flags="0x1204"/>
      <component glyphName="acute" x="-13" y="157" flags="0x1004"/>
    </TTGlyph>
    <TTGlyph name="Scaron" xMin="20" yMin="-1" xMax="446" yMax="879">
      <component glyphName="S" x="0" y="0" flags="0x1204"/>
      <component glyphName="caron" x="-86" y="150" flags="0x1004"/>
    </TTGlyph>
    <TTGlyph name="Scedilla" xMin="20" yMin="-345" xMax="446" yMax="699">
      <contour>
        <pt x="181" y="-263" on="1"/>
        <pt x="181" y="-261" on="0"/>
        <pt x="180" y="-253" on="0"/>
        <pt x="179" y="-248" on="1"/>
        <pt x="179" y="-245" on="1"/>
        <pt x="185" y="-250" on="0"/>
        <pt x="198" y="-257" on="1"/>
        <pt x="213" y="-266" on="0"/>
        <pt x="256" y="-283" on="0"/>
        <pt x="300" y="-293" on="0"/>
        <pt x="338" y="-292" on="0"/>
        <pt x="363" y="-272" on="0"/>
        <pt x="364" y="-231" on="0"/>
        <pt x="349" y="-196" on="1"/>
        <pt x="341" y="-178" on="0"/>
        <pt x="310" y="-166" on="0"/>
        <pt x="274" y="-161" on="0"/>
        <pt x="235" y="-158" on="0"/>
        <pt x="204" y="-142" on="0"/>
        <pt x="184" y="-109" on="0"/>
        <pt x="184" y="-76" on="1"/>
        <pt x="178" y="-24" on="0"/>
        <pt x="181" y="1" on="1"/>
        <pt x="182" y="6" on="0"/>
        <pt x="182" y="10" on="1"/>
        <pt x="172" y="14" on="0"/>
        <pt x="160" y="20" on="1"/>
        <pt x="139" y="30" on="0"/>
        <pt x="94" y="56" on="0"/>
        <pt x="58" y="86" on="0"/>
        <pt x="34" y="120" on="0"/>
        <pt x="34" y="137" on="1"/>
        <pt x="34" y="145" on="0"/>
        <pt x="49" y="151" on="0"/>
        <pt x="55" y="151" on="1"/>
        <pt x="60" y="151" on="0"/>
        <pt x="81" y="136" on="0"/>
        <pt x="112" y="114" on="0"/>
        <pt x="149" y="89" on="0"/>
        <pt x="192" y="67" on="0"/>
        <pt x="236" y="52" on="0"/>
        <pt x="258" y="52" on="1"/>
        <pt x="291" y="52" on="0"/>
        <pt x="345" y="69" on="0"/>
        <pt x="383" y="103" on="0"/>
        <pt x="405" y="155" on="0"/>
        <pt x="405" y="189" on="1"/>
        <pt x="405" y="246" on="0"/>
        <pt x="372" y="311" on="0"/>
        <pt x="318" y="346" on="0"/>
        <pt x="248" y="359" on="0"/>
        <pt x="176" y="368" on="0"/>
        <pt x="106" y="382" on="0"/>
        <pt x="52" y="417" on="0"/>
        <pt x="20" y="484" on="0"/>
        <pt x="20" y="543" on="1"/>
        <pt x="20" y="571" on="0"/>
        <pt x="26" y="627" on="0"/>
        <pt x="49" y="672" on="0"/>
        <pt x="90" y="699" on="0"/>
        <pt x="123" y="699" on="1"/>
        <pt x="142" y="699" on="0"/>
        <pt x="188" y="686" on="0"/>
        <pt x="228" y="661" on="0"/>
        <pt x="255" y="625" on="0"/>
        <pt x="255" y="602" on="1"/>
        <pt x="255" y="600" on="0"/>
        <pt x="254" y="589" on="0"/>
        <pt x="254" y="588" on="1"/>
        <pt x="238" y="606" on="0"/>
        <pt x="214" y="633" on="0"/>
        <pt x="188" y="650" on="0"/>
        <pt x="157" y="658" on="0"/>
        <pt x="134" y="658" on="1"/>
        <pt x="112" y="658" on="0"/>
        <pt x="84" y="643" on="0"/>
        <pt x="67" y="616" on="0"/>
        <pt x="60" y="581" on="0"/>
        <pt x="60" y="562" on="1"/>
        <pt x="60" y="508" on="0"/>
        <pt x="93" y="447" on="0"/>
        <pt x="148" y="414" on="0"/>
        <pt x="217" y="400" on="0"/>
        <pt x="290" y="390" on="0"/>
        <pt x="359" y="372" on="0"/>
        <pt x="414" y="330" on="0"/>
        <pt x="446" y="256" on="0"/>
        <pt x="446" y="193" on="1"/>
        <pt x="446" y="142" on="0"/>
        <pt x="417" y="68" on="0"/>
        <pt x="362" y="22" on="0"/>
        <pt x="282" y="-1" on="0"/>
        <pt x="230" y="-1" on="1"/>
        <pt x="231" y="-7" on="0"/>
        <pt x="232" y="-14" on="1"/>
        <pt x="233" y="-32" on="0"/>
        <pt x="225" y="-47" on="1"/>
        <pt x="225" y="-61" on="0"/>
        <pt x="237" y="-80" on="0"/>
        <pt x="254" y="-88" on="1"/>
        <pt x="282" y="-92" on="0"/>
        <pt x="337" y="-99" on="0"/>
        <pt x="380" y="-120" on="0"/>
        <pt x="406" y="-161" on="0"/>
        <pt x="403" y="-199" on="1"/>
        <pt x="418" y="-247" on="0"/>
        <pt x="403" y="-309" on="0"/>
        <pt x="362" y="-342" on="0"/>
        <pt x="302" y="-347" on="0"/>
        <pt x="243" y="-329" on="0"/>
        <pt x="193" y="-291" on="0"/>
      </contour>
    </TTGlyph>
    <TTGlyph name="Scircumflex" xMin="20" yMin="-1" xMax="446" yMax="1008">
      <component glyphName="S" x="0" y="0" flags="0x1204"/>
      <component glyphName="circumflex" x="-63" y="168" flags="0x1004"/>
    </TTGlyph>
    <TTGlyph name="T" xMin="13" yMin="0" xMax="643" yMax="703">
      <contour>
        <pt x="28" y="643" on="1"/>
        <pt x="13" y="657" on="1"/>
        <pt x="20" y="665" on="0"/>
        <pt x="45" y="683" on="0"/>
        <pt x="55" y="684" on="1"/>
        <pt x="64" y="686" on="0"/>
        <pt x="111" y="689" on="0"/>
        <pt x="163" y="695" on="0"/>
        <pt x="210" y="697" on="0"/>
        <pt x="220" y="697" on="1"/>
        <pt x="236" y="697" on="0"/>
        <pt x="301" y="699" on="0"/>
        <pt x="385" y="700" on="0"/>
        <pt x="477" y="701" on="0"/>
        <pt x="561" y="702" on="0"/>
        <pt x="627" y="703" on="0"/>
        <pt x="643" y="703" on="1"/>
        <pt x="643" y="670" on="1"/>
        <pt x="633" y="670" on="0"/>
        <pt x="589" y="668" on="0"/>
        <pt x="535" y="665" on="0"/>
        <pt x="476" y="662" on="0"/>
        <pt x="422" y="660" on="0"/>
        <pt x="380" y="657" on="0"/>
        <pt x="370" y="657" on="1"/>
        <pt x="364" y="657" on="0"/>
        <pt x="337" y="652" on="0"/>
        <pt x="306" y="649" on="0"/>
        <pt x="279" y="643" on="0"/>
        <pt x="274" y="643" on="1"/>
        <pt x="274" y="638" on="0"/>
        <pt x="273" y="608" on="0"/>
        <pt x="272" y="576" on="0"/>
        <pt x="272" y="561" on="1"/>
        <pt x="272" y="541" on="1"/>
        <pt x="272" y="481" on="0"/>
        <pt x="282" y="366" on="0"/>
        <pt x="293" y="251" on="0"/>
        <pt x="303" y="135" on="0"/>
        <pt x="303" y="76" on="1"/>
        <pt x="303" y="71" on="0"/>
        <pt x="303" y="55" on="0"/>
        <pt x="302" y="40" on="0"/>
        <pt x="302" y="34" on="1"/>
        <pt x="301" y="28" on="1"/>
        <pt x="274" y="0" on="1"/>
        <pt x="261" y="6" on="0"/>
        <pt x="250" y="30" on="0"/>
        <pt x="247" y="58" on="0"/>
        <pt x="247" y="85" on="0"/>
        <pt x="247" y="95" on="1"/>
        <pt x="246" y="112" on="0"/>
        <pt x="241" y="167" on="0"/>
        <pt x="236" y="241" on="0"/>
        <pt x="229" y="325" on="0"/>
        <pt x="222" y="413" on="0"/>
        <pt x="217" y="498" on="0"/>
        <pt x="211" y="571" on="0"/>
        <pt x="206" y="627" on="0"/>
        <pt x="205" y="643" on="1"/>
      </contour>
    </TTGlyph>
    <TTGlyph name="Tcaron" xMin="13" yMin="0" xMax="643" yMax="914">
      <component glyphName="T" x="0" y="0" flags="0x1204"/>
      <component glyphName="caron" x="-4" y="185" flags="0x1004"/>
    </TTGlyph>
    <TTGlyph name="Tcommaaccent" xMin="13" yMin="-214" xMax="643" yMax="703">
      <component glyphName="T" x="0" y="0" flags="0x1204"/>
      <component glyphName="commaaccent" x="198" y="0" flags="0x1004"/>
    </TTGlyph>
    <TTGlyph name="Thorn" xMin="25" yMin="-34" xMax="452" yMax="731">
      <contour>
        <pt x="39" y="211" on="1"/>
        <pt x="39" y="229" on="0"/>
        <pt x="36" y="304" on="0"/>
        <pt x="33" y="399" on="0"/>
        <pt x="31" y="503" on="0"/>
        <pt x="28" y="598" on="0"/>
        <pt x="26" y="672" on="0"/>
        <pt x="25" y="690" on="1"/>
        <pt x="25" y="705" on="1"/>
        <pt x="31" y="708" on="0"/>
        <pt x="47" y="727" on="0"/>
        <pt x="60" y="734" on="0"/>
        <pt x="74" y="723" on="0"/>
        <pt x="85" y="670" on="0"/>
        <pt x="93" y="571" on="0"/>
        <pt x="94" y="485" on="1"/>
        <pt x="108" y="472" on="1"/>
        <pt x="152" y="525" on="0"/>
        <pt x="267" y="568" on="0"/>
        <pt x="336" y="568" on="1"/>
        <pt x="363" y="568" on="0"/>
        <pt x="405" y="546" on="0"/>
        <pt x="436" y="511" on="0"/>
        <pt x="452" y="464" on="0"/>
        <pt x="452" y="439" on="1"/>
        <pt x="452" y="389" on="0"/>
        <pt x="419" y="315" on="0"/>
        <pt x="365" y="264" on="0"/>
        <pt x="292" y="232" on="0"/>
        <pt x="212" y="215" on="0"/>
        <pt x="128" y="209" on="0"/>
        <pt x="88" y="209" on="1"/>
        <pt x="95" y="130" on="0"/>
        <pt x="93" y="22" on="0"/>
        <pt x="81" y="-33" on="0"/>
        <pt x="64" y="-34" on="0"/>
        <pt x="49" y="20" on="0"/>
        <pt x="39" y="128" on="0"/>
      </contour>
      <contour>
        <pt x="94" y="265" on="1"/>
        <pt x="95" y="258" on="0"/>
        <pt x="108" y="252" on="0"/>
        <pt x="123" y="249" on="0"/>
        <pt x="138" y="251" on="0"/>
        <pt x="141" y="251" on="1"/>
        <pt x="187" y="251" on="0"/>
        <pt x="278" y="269" on="0"/>
        <pt x="351" y="312" on="0"/>
        <pt x="396" y="384" on="0"/>
        <pt x="396" y="438" on="1"/>
        <pt x="396" y="462" on="0"/>
        <pt x="373" y="498" on="0"/>
        <pt x="354" y="512" on="1"/>
        <pt x="350" y="512" on="0"/>
        <pt x="333" y="513" on="0"/>
        <pt x="314" y="514" on="0"/>
        <pt x="296" y="514" on="0"/>
        <pt x="292" y="514" on="1"/>
        <pt x="234" y="514" on="0"/>
        <pt x="160" y="474" on="0"/>
        <pt x="117" y="406" on="0"/>
        <pt x="98" y="317" on="0"/>
      </contour>
    </TTGlyph>
    <TTGlyph name="U" xMin="16" yMin="12" xMax="640" yMax="577">
      <contour>
        <pt x="363" y="192" on="1"/>
        <pt x="337" y="172" on="0"/>
        <pt x="297" y="120" on="0"/>
        <pt x="255" y="73" on="0"/>
        <pt x="202" y="40" on="0"/>
        <pt x="164" y="40" on="1"/>
        <pt x="135" y="40" on="0"/>
        <pt x="92" y="77" on="0"/>
        <pt x="60" y="138" on="0"/>
        <pt x="40" y="212" on="0"/>
        <pt x="28" y="286" on="0"/>
        <pt x="22" y="350" on="0"/>
        <pt x="21" y="370" on="1"/>
        <pt x="21" y="377" on="0"/>
        <pt x="20" y="409" on="0"/>
        <pt x="19" y="450" on="0"/>
        <pt x="17" y="495" on="0"/>
        <pt x="17" y="535" on="0"/>
        <pt x="16" y="567" on="0"/>
        <pt x="16" y="575" on="1"/>
        <pt x="61" y="575" on="1"/>
        <pt x="62" y="564" on="0"/>
        <pt x="66" y="519" on="0"/>
        <pt x="71" y="463" on="0"/>
        <pt x="77" y="400" on="0"/>
        <pt x="84" y="343" on="0"/>
        <pt x="87" y="298" on="0"/>
        <pt x="89" y="287" on="1"/>
        <pt x="92" y="263" on="0"/>
        <pt x="100" y="197" on="0"/>
        <pt x="120" y="136" on="0"/>
        <pt x="157" y="94" on="0"/>
        <pt x="187" y="94" on="1"/>
        <pt x="203" y="94" on="0"/>
        <pt x="226" y="99" on="0"/>
        <pt x="247" y="112" on="0"/>
        <pt x="267" y="133" on="0"/>
        <pt x="281" y="150" on="1"/>
        <pt x="284" y="156" on="0"/>
        <pt x="303" y="189" on="0"/>
        <pt x="326" y="228" on="0"/>
        <pt x="345" y="265" on="0"/>
        <pt x="349" y="274" on="1"/>
        <pt x="353" y="298" on="0"/>
        <pt x="353" y="369" on="0"/>
        <pt x="351" y="444" on="0"/>
        <pt x="352" y="514" on="0"/>
        <pt x="364" y="561" on="0"/>
        <pt x="392" y="577" on="0"/>
        <pt x="417" y="561" on="1"/>
        <pt x="417" y="551" on="0"/>
        <pt x="417" y="510" on="0"/>
        <pt x="416" y="459" on="0"/>
        <pt x="417" y="403" on="0"/>
        <pt x="417" y="377" on="1"/>
        <pt x="417" y="330" on="1"/>
        <pt x="417" y="310" on="0"/>
        <pt x="417" y="301" on="1"/>
        <pt x="418" y="281" on="0"/>
        <pt x="422" y="229" on="0"/>
        <pt x="432" y="174" on="0"/>
        <pt x="449" y="121" on="0"/>
        <pt x="479" y="79" on="0"/>
        <pt x="520" y="53" on="0"/>
        <pt x="549" y="53" on="1"/>
        <pt x="573" y="53" on="0"/>
        <pt x="615" y="56" on="0"/>
        <pt x="636" y="68" on="1"/>
        <pt x="637" y="67" on="0"/>
        <pt x="640" y="56" on="0"/>
        <pt x="640" y="55" on="1"/>
        <pt x="640" y="38" on="0"/>
        <pt x="616" y="20" on="0"/>
        <pt x="582" y="13" on="0"/>
        <pt x="547" y="12" on="0"/>
        <pt x="537" y="12" on="1"/>
        <pt x="501" y="12" on="0"/>
        <pt x="440" y="41" on="0"/>
        <pt x="393" y="90" on="0"/>
        <pt x="365" y="155" on="0"/>
      </contour>
    </TTGlyph>
    <TTGlyph name="Uacute" xMin="16" yMin="12" xMax="640" yMax="775">
      <component glyphName="U" x="0" y="0" flags="0x1204"/>
      <component glyphName="acute" x="107" y="42" flags="0x1004"/>
    </TTGlyph>
    <TTGlyph name="Ubreve" xMin="16" yMin="12" xMax="640" yMax="779">
      <component glyphName="U" x="0" y="0" flags="0x1204"/>
      <component glyphName="breve" x="105" y="85" flags="0x1004"/>
    </TTGlyph>
    <TTGlyph name="Ucircumflex" xMin="16" yMin="12" xMax="640" yMax="988">
      <component glyphName="U" x="0" y="0" flags="0x1204"/>
      <component glyphName="circumflex" x="-114" y="148" flags="0x1004"/>
    </TTGlyph>
    <TTGlyph name="Udieresis" xMin="16" yMin="12" xMax="640" yMax="725">
      <component glyphName="U" x="0" y="0" flags="0x1204"/>
      <component glyphName="dieresis" x="-109" y="168" flags="0x1004"/>
    </TTGlyph>
    <TTGlyph name="Ugrave" xMin="16" yMin="12" xMax="640" yMax="785">
      <component glyphName="U" x="0" y="0" flags="0x1204"/>
      <component glyphName="grave" x="-28" y="52" flags="0x1004"/>
    </TTGlyph>
    <TTGlyph name="Uhungarumlaut" xMin="16" yMin="12" xMax="640" yMax="779">
      <component glyphName="U" x="0" y="0" flags="0x1204"/>
      <component glyphName="hungarumlaut" x="98" y="238" flags="0x1004"/>
    </TTGlyph>
    <TTGlyph name="Umacron" xMin="16" yMin="12" xMax="640" yMax="709">
      <component glyphName="U" x="0" y="0" flags="0x1204"/>
      <component glyphName="macron" x="56" y="209" flags="0x1004"/>
    </TTGlyph>
    <TTGlyph name="Uogonek" xMin="16" yMin="-129" xMax="640" yMax="575">
      <contour>
        <pt x="616" y="-113" on="1"/>
        <pt x="603" y="-115" on="0"/>
        <pt x="569" y="-123" on="0"/>
        <pt x="532" y="-129" on="0"/>
        <pt x="496" y="-129" on="0"/>
        <pt x="468" y="-112" on="0"/>
        <pt x="450" y="-75" on="0"/>
        <pt x="450" y="-41" on="1"/>
        <pt x="451" y="-6" on="0"/>
        <pt x="457" y="13" on="1"/>
        <pt x="460" y="22" on="0"/>
        <pt x="463" y="30" on="1"/>
        <pt x="437" y="44" on="0"/>
        <pt x="417" y="66" on="1"/>
        <pt x="393" y="90" on="0"/>
        <pt x="365" y="155" on="0"/>
        <pt x="363" y="192" on="1"/>
        <pt x="337" y="172" on="0"/>
        <pt x="297" y="120" on="0"/>
        <pt x="255" y="73" on="0"/>
        <pt x="202" y="40" on="0"/>
        <pt x="164" y="40" on="1"/>
        <pt x="135" y="40" on="0"/>
        <pt x="92" y="77" on="0"/>
        <pt x="60" y="138" on="0"/>
        <pt x="40" y="212" on="0"/>
        <pt x="28" y="286" on="0"/>
        <pt x="22" y="350" on="0"/>
        <pt x="21" y="370" on="1"/>
        <pt x="21" y="377" on="0"/>
        <pt x="20" y="409" on="0"/>
        <pt x="19" y="450" on="0"/>
        <pt x="17" y="495" on="0"/>
        <pt x="17" y="535" on="0"/>
        <pt x="16" y="567" on="0"/>
        <pt x="16" y="575" on="1"/>
        <pt x="61" y="575" on="1"/>
        <pt x="62" y="564" on="0"/>
        <pt x="66" y="519" on="0"/>
        <pt x="71" y="463" on="0"/>
        <pt x="77" y="400" on="0"/>
        <pt x="84" y="343" on="0"/>
        <pt x="87" y="298" on="0"/>
        <pt x="89" y="287" on="1"/>
        <pt x="92" y="263" on="0"/>
        <pt x="100" y="197" on="0"/>
        <pt x="120" y="136" on="0"/>
        <pt x="157" y="94" on="0"/>
        <pt x="187" y="94" on="1"/>
        <pt x="203" y="94" on="0"/>
        <pt x="226" y="99" on="0"/>
        <pt x="247" y="112" on="0"/>
        <pt x="267" y="133" on="0"/>
        <pt x="281" y="150" on="1"/>
        <pt x="284" y="156" on="0"/>
        <pt x="303" y="189" on="0"/>
        <pt x="326" y="228" on="0"/>
        <pt x="345" y="265" on="0"/>
        <pt x="349" y="274" on="1"/>
        <pt x="353" y="298" on="0"/>
        <pt x="353" y="369" on="0"/>
        <pt x="351" y="444" on="0"/>
        <pt x="352" y="514" on="0"/>
        <pt x="364" y="561" on="0"/>
        <pt x="392" y="577" on="0"/>
        <pt x="417" y="561" on="1"/>
        <pt x="417" y="551" on="0"/>
        <pt x="417" y="510" on="0"/>
        <pt x="416" y="459" on="0"/>
        <pt x="417" y="403" on="0"/>
        <pt x="417" y="377" on="1"/>
        <pt x="417" y="330" on="1"/>
        <pt x="417" y="310" on="0"/>
        <pt x="417" y="301" on="1"/>
        <pt x="418" y="281" on="0"/>
        <pt x="422" y="229" on="0"/>
        <pt x="432" y="174" on="0"/>
        <pt x="449" y="121" on="0"/>
        <pt x="479" y="79" on="0"/>
        <pt x="520" y="53" on="0"/>
        <pt x="549" y="53" on="1"/>
        <pt x="573" y="53" on="0"/>
        <pt x="615" y="56" on="0"/>
        <pt x="636" y="68" on="1"/>
        <pt x="637" y="67" on="0"/>
        <pt x="640" y="56" on="0"/>
        <pt x="640" y="55" on="1"/>
        <pt x="640" y="38" on="0"/>
        <pt x="616" y="20" on="0"/>
        <pt x="582" y="13" on="0"/>
        <pt x="547" y="12" on="0"/>
        <pt x="537" y="12" on="1"/>
        <pt x="519" y="12" on="0"/>
        <pt x="501" y="15" on="1"/>
        <pt x="501" y="12" on="1"/>
        <pt x="500" y="-1" on="0"/>
        <pt x="490" y="-13" on="1"/>
        <pt x="490" y="-29" on="1"/>
        <pt x="490" y="-37" on="0"/>
        <pt x="494" y="-53" on="0"/>
        <pt x="503" y="-67" on="0"/>
        <pt x="511" y="-69" on="1"/>
        <pt x="530" y="-75" on="0"/>
        <pt x="569" y="-71" on="0"/>
        <pt x="603" y="-63" on="0"/>
        <pt x="630" y="-56" on="0"/>
        <pt x="641" y="-61" on="0"/>
        <pt x="633" y="-86" on="0"/>
      </contour>
    </TTGlyph>
    <TTGlyph name="Uring" xMin="16" yMin="12" xMax="640" yMax="715">
      <component glyphName="U" x="0" y="0" flags="0x1204"/>
      <component glyphName="ring" x="22" y="90" flags="0x1004"/>
    </TTGlyph>
    <TTGlyph name="Utilde" xMin="16" yMin="12" xMax="640" yMax="716">
      <component glyphName="U" x="0" y="0" flags="0x1204"/>
      <component glyphName="tilde" x="-102" y="-20" flags="0x1004"/>
    </TTGlyph>
    <TTGlyph name="V" xMin="13" yMin="-1" xMax="492" yMax="630">
      <contour>
        <pt x="205" y="28" on="1"/>
        <pt x="182" y="76" on="0"/>
        <pt x="128" y="195" on="0"/>
        <pt x="76" y="321" on="0"/>
        <pt x="29" y="449" on="0"/>
        <pt x="13" y="507" on="1"/>
        <pt x="17" y="517" on="0"/>
        <pt x="34" y="522" on="0"/>
        <pt x="44" y="522" on="1"/>
        <pt x="47" y="522" on="0"/>
        <pt x="55" y="520" on="0"/>
        <pt x="55" y="519" on="1"/>
        <pt x="233" y="109" on="1"/>
        <pt x="236" y="108" on="1"/>
        <pt x="238" y="107" on="1"/>
        <pt x="246" y="107" on="0"/>
        <pt x="264" y="152" on="0"/>
        <pt x="285" y="226" on="0"/>
        <pt x="310" y="319" on="0"/>
        <pt x="339" y="418" on="0"/>
        <pt x="373" y="511" on="0"/>
        <pt x="409" y="585" on="0"/>
        <pt x="449" y="630" on="0"/>
        <pt x="472" y="630" on="1"/>
        <pt x="479" y="630" on="0"/>
        <pt x="489" y="625" on="0"/>
        <pt x="492" y="616" on="1"/>
        <pt x="489" y="608" on="0"/>
        <pt x="473" y="581" on="0"/>
        <pt x="454" y="546" on="0"/>
        <pt x="434" y="508" on="0"/>
        <pt x="415" y="472" on="0"/>
        <pt x="400" y="445" on="0"/>
        <pt x="397" y="438" on="1"/>
        <pt x="371" y="388" on="0"/>
        <pt x="341" y="282" on="0"/>
        <pt x="314" y="174" on="0"/>
        <pt x="284" y="66" on="0"/>
        <pt x="260" y="13" on="1"/>
        <pt x="259" y="12" on="0"/>
        <pt x="252" y="6" on="0"/>
        <pt x="244" y="2" on="0"/>
        <pt x="235" y="-1" on="0"/>
        <pt x="233" y="0" on="1"/>
        <pt x="230" y="1" on="0"/>
        <pt x="221" y="7" on="0"/>
        <pt x="212" y="16" on="0"/>
        <pt x="206" y="25" on="0"/>
      </contour>
    </TTGlyph>
    <TTGlyph name="W" xMin="13" yMin="-1" xMax="659" yMax="697">
      <contour>
        <pt x="13" y="541" on="1"/>
        <pt x="13" y="550" on="0"/>
        <pt x="25" y="562" on="0"/>
        <pt x="34" y="562" on="1"/>
        <pt x="41" y="562" on="0"/>
        <pt x="52" y="552" on="0"/>
        <pt x="60" y="538" on="0"/>
        <pt x="67" y="525" on="0"/>
        <pt x="68" y="519" on="1"/>
        <pt x="178" y="165" on="1"/>
        <pt x="192" y="177" on="1"/>
        <pt x="274" y="519" on="1"/>
        <pt x="311" y="557" on="1"/>
        <pt x="479" y="205" on="1"/>
        <pt x="507" y="177" on="1"/>
        <pt x="520" y="205" on="1"/>
        <pt x="522" y="218" on="0"/>
        <pt x="530" y="271" on="0"/>
        <pt x="540" y="338" on="0"/>
        <pt x="552" y="414" on="0"/>
        <pt x="563" y="481" on="0"/>
        <pt x="572" y="535" on="0"/>
        <pt x="575" y="547" on="1"/>
        <pt x="576" y="555" on="0"/>
        <pt x="587" y="595" on="0"/>
        <pt x="600" y="638" on="0"/>
        <pt x="612" y="677" on="0"/>
        <pt x="616" y="684" on="1"/>
        <pt x="616" y="686" on="0"/>
        <pt x="625" y="690" on="0"/>
        <pt x="634" y="695" on="0"/>
        <pt x="641" y="697" on="0"/>
        <pt x="643" y="697" on="1"/>
        <pt x="650" y="697" on="0"/>
        <pt x="656" y="689" on="0"/>
        <pt x="659" y="679" on="0"/>
        <pt x="659" y="672" on="1"/>
        <pt x="659" y="664" on="1"/>
        <pt x="659" y="650" on="0"/>
        <pt x="654" y="628" on="0"/>
        <pt x="643" y="616" on="1"/>
        <pt x="547" y="95" on="1"/>
        <pt x="544" y="81" on="0"/>
        <pt x="517" y="66" on="0"/>
        <pt x="505" y="66" on="1"/>
        <pt x="502" y="66" on="0"/>
        <pt x="493" y="67" on="0"/>
        <pt x="492" y="68" on="1"/>
        <pt x="315" y="410" on="1"/>
        <pt x="301" y="425" on="1"/>
        <pt x="298" y="411" on="0"/>
        <pt x="285" y="353" on="0"/>
        <pt x="269" y="280" on="0"/>
        <pt x="252" y="199" on="0"/>
        <pt x="236" y="126" on="0"/>
        <pt x="222" y="68" on="0"/>
        <pt x="220" y="55" on="1"/>
        <pt x="218" y="49" on="0"/>
        <pt x="214" y="31" on="0"/>
        <pt x="206" y="13" on="0"/>
        <pt x="193" y="-1" on="0"/>
        <pt x="184" y="-1" on="1"/>
        <pt x="178" y="-1" on="0"/>
        <pt x="167" y="5" on="0"/>
        <pt x="165" y="13" on="1"/>
        <pt x="13" y="534" on="1"/>
        <pt x="13" y="535" on="0"/>
        <pt x="13" y="540" on="0"/>
      </contour>
    </TTGlyph>
    <TTGlyph name="Wacute" xMin="13" yMin="-1" xMax="659" yMax="776">
      <component glyphName="W" x="0" y="0" flags="0x1204"/>
      <component glyphName="acute" x="114" y="43" flags="0x1004"/>
    </TTGlyph>
    <TTGlyph name="Wcircumflex" xMin="13" yMin="-1" xMax="659" yMax="883">
      <component glyphName="W" x="0" y="0" flags="0x1204"/>
      <component glyphName="circumflex" x="20" y="43" flags="0x1004"/>
    </TTGlyph>
    <TTGlyph name="Wdieresis" xMin="13" yMin="-1" xMax="659" yMax="725">
      <component glyphName="W" x="0" y="0" flags="0x1204"/>
      <component glyphName="dieresis" x="31" y="168" flags="0x1004"/>
    </TTGlyph>
    <TTGlyph name="Wgrave" xMin="13" yMin="-1" xMax="659" yMax="776">
      <component glyphName="W" x="0" y="0" flags="0x1204"/>
      <component glyphName="grave" x="128" y="43" flags="0x1004"/>
    </TTGlyph>
    <TTGlyph name="X" xMin="13" yMin="-4" xMax="481" yMax="622">
      <contour>
        <pt x="265" y="261" on="1"/>
        <pt x="263" y="261" on="1"/>
        <pt x="260" y="260" on="1"/>
        <pt x="55" y="28" on="1"/>
        <pt x="13" y="28" on="1"/>
        <pt x="13" y="55" on="1"/>
        <pt x="19" y="60" on="0"/>
        <pt x="40" y="84" on="0"/>
        <pt x="68" y="113" on="0"/>
        <pt x="98" y="146" on="0"/>
        <pt x="124" y="175" on="0"/>
        <pt x="146" y="199" on="0"/>
        <pt x="150" y="205" on="1"/>
        <pt x="160" y="216" on="0"/>
        <pt x="187" y="252" on="0"/>
        <pt x="214" y="287" on="0"/>
        <pt x="233" y="313" on="0"/>
        <pt x="233" y="314" on="1"/>
        <pt x="233" y="342" on="1"/>
        <pt x="137" y="547" on="1"/>
        <pt x="136" y="548" on="0"/>
        <pt x="136" y="558" on="0"/>
        <pt x="136" y="560" on="1"/>
        <pt x="136" y="570" on="0"/>
        <pt x="139" y="584" on="0"/>
        <pt x="150" y="588" on="1"/>
        <pt x="166" y="579" on="0"/>
        <pt x="190" y="543" on="0"/>
        <pt x="209" y="500" on="0"/>
        <pt x="226" y="455" on="0"/>
        <pt x="244" y="419" on="0"/>
        <pt x="266" y="396" on="0"/>
        <pt x="281" y="396" on="1"/>
        <pt x="282" y="396" on="0"/>
        <pt x="285" y="397" on="1"/>
        <pt x="287" y="397" on="1"/>
        <pt x="292" y="404" on="0"/>
        <pt x="311" y="435" on="0"/>
        <pt x="336" y="472" on="0"/>
        <pt x="363" y="514" on="0"/>
        <pt x="387" y="552" on="0"/>
        <pt x="406" y="581" on="0"/>
        <pt x="410" y="588" on="1"/>
        <pt x="423" y="606" on="0"/>
        <pt x="447" y="622" on="0"/>
        <pt x="468" y="622" on="1"/>
        <pt x="468" y="611" on="0"/>
        <pt x="467" y="597" on="0"/>
        <pt x="463" y="583" on="0"/>
        <pt x="457" y="570" on="0"/>
        <pt x="452" y="561" on="1"/>
        <pt x="446" y="553" on="0"/>
        <pt x="425" y="518" on="0"/>
        <pt x="398" y="475" on="0"/>
        <pt x="368" y="427" on="0"/>
        <pt x="341" y="384" on="0"/>
        <pt x="319" y="350" on="0"/>
        <pt x="315" y="342" on="1"/>
        <pt x="315" y="328" on="1"/>
        <pt x="479" y="40" on="1"/>
        <pt x="480" y="39" on="0"/>
        <pt x="481" y="30" on="0"/>
        <pt x="481" y="28" on="1"/>
        <pt x="481" y="22" on="0"/>
        <pt x="479" y="11" on="0"/>
        <pt x="472" y="1" on="0"/>
        <pt x="461" y="-4" on="0"/>
        <pt x="452" y="0" on="1"/>
        <pt x="431" y="8" on="0"/>
        <pt x="398" y="53" on="0"/>
        <pt x="368" y="112" on="0"/>
        <pt x="342" y="175" on="0"/>
        <pt x="314" y="227" on="0"/>
        <pt x="284" y="261" on="0"/>
      </contour>
    </TTGlyph>
    <TTGlyph name="Y" xMin="12" yMin="0" xMax="425" yMax="719">
      <contour>
        <pt x="12" y="636" on="1"/>
        <pt x="12" y="643" on="0"/>
        <pt x="13" y="654" on="0"/>
        <pt x="17" y="665" on="0"/>
        <pt x="26" y="670" on="0"/>
        <pt x="34" y="670" on="1"/>
        <pt x="41" y="670" on="0"/>
        <pt x="51" y="665" on="0"/>
        <pt x="55" y="657" on="1"/>
        <pt x="137" y="479" on="1"/>
        <pt x="165" y="479" on="1"/>
        <pt x="170" y="486" on="0"/>
        <pt x="195" y="514" on="0"/>
        <pt x="228" y="549" on="0"/>
        <pt x="263" y="588" on="0"/>
        <pt x="295" y="623" on="0"/>
        <pt x="322" y="650" on="0"/>
        <pt x="328" y="657" on="1"/>
        <pt x="334" y="662" on="0"/>
        <pt x="355" y="683" on="0"/>
        <pt x="382" y="704" on="0"/>
        <pt x="411" y="719" on="0"/>
        <pt x="425" y="719" on="1"/>
        <pt x="425" y="684" on="1"/>
        <pt x="205" y="452" on="1"/>
        <pt x="187" y="433" on="0"/>
        <pt x="177" y="404" on="0"/>
        <pt x="177" y="384" on="1"/>
        <pt x="177" y="337" on="0"/>
        <pt x="183" y="241" on="0"/>
        <pt x="190" y="145" on="0"/>
        <pt x="195" y="49" on="0"/>
        <pt x="195" y="0" on="1"/>
        <pt x="165" y="0" on="1"/>
        <pt x="160" y="0" on="0"/>
        <pt x="154" y="49" on="0"/>
        <pt x="148" y="128" on="0"/>
        <pt x="141" y="220" on="0"/>
        <pt x="135" y="305" on="0"/>
        <pt x="128" y="371" on="0"/>
        <pt x="122" y="382" on="1"/>
        <pt x="121" y="387" on="0"/>
        <pt x="109" y="415" on="0"/>
        <pt x="93" y="452" on="0"/>
        <pt x="73" y="492" on="0"/>
        <pt x="56" y="529" on="0"/>
        <pt x="43" y="556" on="0"/>
        <pt x="41" y="561" on="1"/>
        <pt x="38" y="568" on="0"/>
        <pt x="28" y="587" on="0"/>
        <pt x="19" y="607" on="0"/>
        <pt x="12" y="627" on="0"/>
      </contour>
    </TTGlyph>
    <TTGlyph name="Yacute" xMin="12" yMin="0" xMax="425" yMax="915">
      <component glyphName="Y" x="0" y="0" flags="0x1204"/>
      <component glyphName="acute" x="10" y="182" flags="0x1004"/>
    </TTGlyph>
    <TTGlyph name="Ycircumflex" xMin="12" yMin="0" xMax="425" yMax="1020">
      <component glyphName="Y" x="0" y="0" flags="0x1204"/>
      <component glyphName="circumflex" x="-98" y="180" flags="0x1004"/>
    </TTGlyph>
    <TTGlyph name="Ydieresis" xMin="12" yMin="0" xMax="425" yMax="729">
      <component glyphName="Y" x="0" y="0" flags="0x1204"/>
      <component glyphName="dieresis" x="-96" y="172" flags="0x1004"/>
    </TTGlyph>
    <TTGlyph name="Ygrave" xMin="12" yMin="0" xMax="425" yMax="951">
      <component glyphName="Y" x="0" y="0" flags="0x1204"/>
      <component glyphName="grave" x="-53" y="218" flags="0x1004"/>
    </TTGlyph>
    <TTGlyph name="Z" xMin="24" yMin="12" xMax="729" yMax="616">
      <contour>
        <pt x="24" y="87" on="1"/>
        <pt x="24" y="106" on="0"/>
        <pt x="46" y="133" on="0"/>
        <pt x="80" y="152" on="0"/>
        <pt x="123" y="166" on="0"/>
        <pt x="167" y="179" on="0"/>
        <pt x="206" y="194" on="0"/>
        <pt x="220" y="205" on="1"/>
        <pt x="230" y="214" on="0"/>
        <pt x="263" y="245" on="0"/>
        <pt x="293" y="275" on="0"/>
        <pt x="315" y="299" on="0"/>
        <pt x="315" y="301" on="1"/>
        <pt x="315" y="321" on="1"/>
        <pt x="205" y="321" on="1"/>
        <pt x="192" y="355" on="1"/>
        <pt x="193" y="357" on="0"/>
        <pt x="201" y="362" on="0"/>
        <pt x="209" y="365" on="0"/>
        <pt x="217" y="370" on="0"/>
        <pt x="220" y="370" on="1"/>
        <pt x="226" y="371" on="0"/>
        <pt x="244" y="371" on="1"/>
        <pt x="318" y="371" on="1"/>
        <pt x="336" y="371" on="0"/>
        <pt x="342" y="370" on="1"/>
        <pt x="383" y="410" on="1"/>
        <pt x="383" y="561" on="1"/>
        <pt x="383" y="562" on="0"/>
        <pt x="362" y="568" on="0"/>
        <pt x="331" y="571" on="0"/>
        <pt x="298" y="575" on="0"/>
        <pt x="287" y="575" on="1"/>
        <pt x="262" y="575" on="0"/>
        <pt x="216" y="562" on="0"/>
        <pt x="171" y="544" on="0"/>
        <pt x="125" y="531" on="0"/>
        <pt x="101" y="531" on="1"/>
        <pt x="101" y="552" on="0"/>
        <pt x="128" y="581" on="0"/>
        <pt x="168" y="600" on="0"/>
        <pt x="220" y="611" on="0"/>
        <pt x="270" y="616" on="0"/>
        <pt x="312" y="616" on="0"/>
        <pt x="325" y="616" on="1"/>
        <pt x="355" y="616" on="0"/>
        <pt x="398" y="607" on="0"/>
        <pt x="426" y="583" on="0"/>
        <pt x="439" y="544" on="0"/>
        <pt x="439" y="515" on="1"/>
        <pt x="439" y="477" on="0"/>
        <pt x="427" y="407" on="0"/>
        <pt x="427" y="370" on="1"/>
        <pt x="647" y="370" on="1"/>
        <pt x="647" y="368" on="0"/>
        <pt x="646" y="353" on="0"/>
        <pt x="642" y="336" on="0"/>
        <pt x="635" y="321" on="0"/>
        <pt x="630" y="321" on="1"/>
        <pt x="397" y="321" on="1"/>
        <pt x="374" y="294" on="0"/>
        <pt x="325" y="238" on="0"/>
        <pt x="269" y="187" on="0"/>
        <pt x="209" y="140" on="0"/>
        <pt x="178" y="122" on="1"/>
        <pt x="220" y="98" on="0"/>
        <pt x="313" y="71" on="0"/>
        <pt x="409" y="57" on="0"/>
        <pt x="506" y="53" on="0"/>
        <pt x="554" y="53" on="1"/>
        <pt x="575" y="53" on="1"/>
        <pt x="589" y="53" on="0"/>
        <pt x="622" y="54" on="0"/>
        <pt x="652" y="55" on="0"/>
        <pt x="657" y="55" on="1"/>
        <pt x="668" y="57" on="0"/>
        <pt x="685" y="67" on="0"/>
        <pt x="702" y="77" on="0"/>
        <pt x="719" y="85" on="0"/>
        <pt x="729" y="85" on="1"/>
        <pt x="729" y="71" on="0"/>
        <pt x="724" y="45" on="0"/>
        <pt x="711" y="25" on="0"/>
        <pt x="688" y="13" on="0"/>
        <pt x="670" y="13" on="1"/>
        <pt x="662" y="13" on="0"/>
        <pt x="625" y="13" on="0"/>
        <pt x="580" y="13" on="0"/>
        <pt x="541" y="12" on="0"/>
        <pt x="534" y="12" on="1"/>
        <pt x="502" y="12" on="0"/>
        <pt x="445" y="12" on="0"/>
        <pt x="388" y="13" on="0"/>
        <pt x="331" y="20" on="0"/>
        <pt x="301" y="28" on="1"/>
        <pt x="295" y="29" on="0"/>
        <pt x="260" y="39" on="0"/>
        <pt x="216" y="52" on="0"/>
        <pt x="175" y="65" on="0"/>
        <pt x="165" y="68" on="1"/>
        <pt x="163" y="68" on="0"/>
        <pt x="155" y="73" on="0"/>
        <pt x="147" y="78" on="0"/>
        <pt x="138" y="82" on="0"/>
        <pt x="137" y="82" on="1"/>
        <pt x="130" y="83" on="0"/>
        <pt x="98" y="85" on="0"/>
        <pt x="62" y="86" on="0"/>
        <pt x="31" y="87" on="0"/>
      </contour>
    </TTGlyph>
    <TTGlyph name="Zacute" xMin="24" yMin="12" xMax="729" yMax="831">
      <component glyphName="Z" x="0" y="0" flags="0x1204"/>
      <component glyphName="acute" x="138" y="98" flags="0x1004"/>
    </TTGlyph>
    <TTGlyph name="Zcaron" xMin="24" yMin="12" xMax="729" yMax="838">
      <component glyphName="Z" x="0" y="0" flags="0x1204"/>
      <component glyphName="caron" x="52" y="109" flags="0x1004"/>
    </TTGlyph>
    <TTGlyph name="Zdotaccent" xMin="24" yMin="12" xMax="729" yMax="755">
      <component glyphName="Z" x="0" y="0" flags="0x1204"/>
      <component glyphName="dotaccent" x="250" y="258" flags="0x1004"/>
    </TTGlyph>
    <TTGlyph name="a" xMin="19" yMin="-4" xMax="546" yMax="483">
      <contour>
        <pt x="19" y="111" on="1"/>
        <pt x="19" y="149" on="0"/>
        <pt x="38" y="235" on="0"/>
        <pt x="72" y="318" on="0"/>
        <pt x="121" y="392" on="0"/>
        <pt x="179" y="449" on="0"/>
        <pt x="247" y="483" on="0"/>
        <pt x="284" y="483" on="1"/>
        <pt x="292" y="483" on="0"/>
        <pt x="323" y="476" on="0"/>
        <pt x="355" y="465" on="0"/>
        <pt x="379" y="449" on="0"/>
        <pt x="379" y="441" on="1"/>
        <pt x="206" y="419" on="1"/>
        <pt x="187" y="419" on="0"/>
        <pt x="153" y="382" on="0"/>
        <pt x="124" y="325" on="0"/>
        <pt x="101" y="254" on="0"/>
        <pt x="84" y="186" on="0"/>
        <pt x="75" y="130" on="0"/>
        <pt x="75" y="116" on="1"/>
        <pt x="75" y="106" on="1"/>
        <pt x="75" y="100" on="0"/>
        <pt x="76" y="85" on="0"/>
        <pt x="76" y="77" on="1"/>
        <pt x="76" y="68" on="1"/>
        <pt x="76" y="66" on="0"/>
        <pt x="80" y="62" on="1"/>
        <pt x="97" y="46" on="1"/>
        <pt x="101" y="41" on="0"/>
        <pt x="103" y="40" on="1"/>
        <pt x="104" y="40" on="0"/>
        <pt x="106" y="40" on="1"/>
        <pt x="109" y="40" on="1"/>
        <pt x="132" y="40" on="0"/>
        <pt x="175" y="64" on="0"/>
        <pt x="212" y="98" on="0"/>
        <pt x="243" y="137" on="0"/>
        <pt x="254" y="150" on="1"/>
        <pt x="260" y="157" on="0"/>
        <pt x="267" y="204" on="0"/>
        <pt x="274" y="265" on="0"/>
        <pt x="282" y="334" on="0"/>
        <pt x="294" y="391" on="0"/>
        <pt x="311" y="427" on="0"/>
        <pt x="324" y="427" on="1"/>
        <pt x="325" y="427" on="0"/>
        <pt x="328" y="427" on="1"/>
        <pt x="330" y="427" on="1"/>
        <pt x="330" y="422" on="0"/>
        <pt x="331" y="382" on="0"/>
        <pt x="332" y="327" on="0"/>
        <pt x="333" y="265" on="0"/>
        <pt x="333" y="210" on="0"/>
        <pt x="335" y="170" on="0"/>
        <pt x="336" y="165" on="1"/>
        <pt x="336" y="160" on="0"/>
        <pt x="346" y="141" on="0"/>
        <pt x="358" y="123" on="0"/>
        <pt x="372" y="109" on="0"/>
        <pt x="376" y="109" on="1"/>
        <pt x="546" y="109" on="1"/>
        <pt x="546" y="98" on="0"/>
        <pt x="527" y="82" on="0"/>
        <pt x="499" y="70" on="0"/>
        <pt x="465" y="61" on="0"/>
        <pt x="433" y="56" on="0"/>
        <pt x="405" y="54" on="0"/>
        <pt x="398" y="54" on="1"/>
        <pt x="358" y="54" on="0"/>
        <pt x="304" y="90" on="0"/>
        <pt x="281" y="122" on="1"/>
        <pt x="268" y="106" on="0"/>
        <pt x="233" y="66" on="0"/>
        <pt x="190" y="29" on="0"/>
        <pt x="141" y="3" on="0"/>
        <pt x="117" y="0" on="1"/>
        <pt x="86" y="-4" on="0"/>
        <pt x="49" y="13" on="0"/>
        <pt x="27" y="43" on="0"/>
        <pt x="19" y="86" on="0"/>
      </contour>
    </TTGlyph>
    <TTGlyph name="aacute" xMin="19" yMin="0" xMax="546" yMax="733">
      <component glyphName="a" x="0" y="0" flags="0x1204"/>
      <component glyphName="acute" x="59" y="0" flags="0x1004"/>
    </TTGlyph>
    <TTGlyph name="abreve" xMin="19" yMin="0" xMax="546" yMax="694">
      <component glyphName="a" x="0" y="0" flags="0x1204"/>
      <component glyphName="breve" x="130" y="0" flags="0x1004"/>
    </TTGlyph>
    <TTGlyph name="acircumflex" xMin="19" yMin="0" xMax="546" yMax="840">
      <component glyphName="a" x="0" y="0" flags="0x1204"/>
      <component glyphName="circumflex" x="-21" y="0" flags="0x1004"/>
    </TTGlyph>
    <TTGlyph name="acute" xMin="124" yMin="581" xMax="306" yMax="733">
      <contour>
        <pt x="290" y="727" on="1"/>
        <pt x="306" y="722" on="0"/>
        <pt x="306" y="699" on="0"/>
        <pt x="283" y="670" on="0"/>
        <pt x="244" y="638" on="0"/>
        <pt x="201" y="609" on="0"/>
        <pt x="159" y="587" on="0"/>
        <pt x="130" y="578" on="0"/>
        <pt x="118" y="584" on="0"/>
        <pt x="127" y="599" on="1"/>
        <pt x="132" y="608" on="0"/>
        <pt x="154" y="633" on="0"/>
        <pt x="180" y="658" on="0"/>
        <pt x="209" y="685" on="0"/>
        <pt x="233" y="708" on="0"/>
        <pt x="252" y="727" on="0"/>
        <pt x="255" y="733" on="1"/>
      </contour>
    </TTGlyph>
    <TTGlyph name="adieresis" xMin="19" yMin="0" xMax="546" yMax="557">
      <component glyphName="a" x="0" y="0" flags="0x1204"/>
      <component glyphName="dieresis" x="-4" y="0" flags="0x1004"/>
    </TTGlyph>
    <TTGlyph name="ae" xMin="19" yMin="-23" xMax="792" yMax="492">
      <contour>
        <pt x="19" y="111" on="1"/>
        <pt x="19" y="149" on="0"/>
        <pt x="38" y="235" on="0"/>
        <pt x="72" y="318" on="0"/>
        <pt x="121" y="392" on="0"/>
        <pt x="179" y="449" on="0"/>
        <pt x="247" y="483" on="0"/>
        <pt x="284" y="483" on="1"/>
        <pt x="292" y="483" on="0"/>
        <pt x="323" y="476" on="0"/>
        <pt x="355" y="465" on="0"/>
        <pt x="379" y="449" on="0"/>
        <pt x="379" y="441" on="1"/>
        <pt x="206" y="419" on="1"/>
        <pt x="187" y="419" on="0"/>
        <pt x="153" y="382" on="0"/>
        <pt x="124" y="325" on="0"/>
        <pt x="101" y="254" on="0"/>
        <pt x="84" y="186" on="0"/>
        <pt x="75" y="130" on="0"/>
        <pt x="75" y="116" on="1"/>
        <pt x="75" y="106" on="1"/>
        <pt x="75" y="100" on="0"/>
        <pt x="76" y="85" on="0"/>
        <pt x="76" y="77" on="1"/>
        <pt x="76" y="68" on="1"/>
        <pt x="76" y="66" on="0"/>
        <pt x="80" y="62" on="1"/>
        <pt x="97" y="46" on="1"/>
        <pt x="101" y="41" on="0"/>
        <pt x="103" y="40" on="1"/>
        <pt x="104" y="40" on="0"/>
        <pt x="106" y="40" on="1"/>
        <pt x="109" y="40" on="1"/>
        <pt x="132" y="40" on="0"/>
        <pt x="175" y="64" on="0"/>
        <pt x="212" y="98" on="0"/>
        <pt x="243" y="137" on="0"/>
        <pt x="254" y="150" on="1"/>
        <pt x="260" y="157" on="0"/>
        <pt x="267" y="204" on="0"/>
        <pt x="274" y="265" on="0"/>
        <pt x="282" y="334" on="0"/>
        <pt x="294" y="391" on="0"/>
        <pt x="311" y="427" on="0"/>
        <pt x="324" y="427" on="1"/>
        <pt x="325" y="427" on="0"/>
        <pt x="330" y="427" on="0"/>
        <pt x="330" y="427" on="1"/>
        <pt x="330" y="422" on="0"/>
        <pt x="331" y="382" on="0"/>
        <pt x="332" y="327" on="0"/>
        <pt x="333" y="265" on="0"/>
        <pt x="333" y="210" on="0"/>
        <pt x="335" y="170" on="0"/>
        <pt x="336" y="165" on="1"/>
        <pt x="336" y="160" on="0"/>
        <pt x="342" y="147" on="0"/>
        <pt x="351" y="132" on="0"/>
        <pt x="362" y="118" on="0"/>
        <pt x="367" y="114" on="1"/>
        <pt x="355" y="155" on="0"/>
        <pt x="344" y="241" on="0"/>
        <pt x="344" y="279" on="1"/>
        <pt x="344" y="326" on="0"/>
        <pt x="365" y="404" on="0"/>
        <pt x="411" y="461" on="0"/>
        <pt x="484" y="492" on="0"/>
        <pt x="535" y="492" on="1"/>
        <pt x="563" y="492" on="0"/>
        <pt x="607" y="482" on="0"/>
        <pt x="635" y="457" on="0"/>
        <pt x="649" y="417" on="0"/>
        <pt x="649" y="386" on="1"/>
        <pt x="649" y="356" on="0"/>
        <pt x="625" y="313" on="0"/>
        <pt x="582" y="284" on="0"/>
        <pt x="530" y="271" on="0"/>
        <pt x="502" y="271" on="1"/>
        <pt x="497" y="271" on="0"/>
        <pt x="463" y="262" on="0"/>
        <pt x="427" y="255" on="0"/>
        <pt x="400" y="255" on="0"/>
        <pt x="400" y="264" on="1"/>
        <pt x="400" y="265" on="0"/>
        <pt x="409" y="276" on="0"/>
        <pt x="418" y="289" on="0"/>
        <pt x="422" y="294" on="1"/>
        <pt x="427" y="300" on="1"/>
        <pt x="454" y="303" on="0"/>
        <pt x="517" y="309" on="0"/>
        <pt x="571" y="326" on="0"/>
        <pt x="606" y="362" on="0"/>
        <pt x="606" y="396" on="1"/>
        <pt x="606" y="414" on="0"/>
        <pt x="595" y="436" on="0"/>
        <pt x="573" y="447" on="0"/>
        <pt x="546" y="452" on="0"/>
        <pt x="530" y="452" on="1"/>
        <pt x="494" y="452" on="0"/>
        <pt x="445" y="427" on="0"/>
        <pt x="413" y="385" on="0"/>
        <pt x="399" y="328" on="0"/>
        <pt x="399" y="292" on="1"/>
        <pt x="399" y="270" on="0"/>
        <pt x="401" y="211" on="0"/>
        <pt x="410" y="151" on="0"/>
        <pt x="426" y="93" on="0"/>
        <pt x="452" y="47" on="0"/>
        <pt x="490" y="20" on="0"/>
        <pt x="517" y="20" on="1"/>
        <pt x="521" y="20" on="0"/>
        <pt x="540" y="22" on="0"/>
        <pt x="562" y="27" on="0"/>
        <pt x="581" y="31" on="0"/>
        <pt x="585" y="33" on="1"/>
        <pt x="593" y="36" on="0"/>
        <pt x="625" y="50" on="0"/>
        <pt x="666" y="69" on="0"/>
        <pt x="711" y="90" on="0"/>
        <pt x="751" y="109" on="0"/>
        <pt x="783" y="125" on="0"/>
        <pt x="790" y="129" on="1"/>
        <pt x="791" y="128" on="0"/>
        <pt x="792" y="117" on="0"/>
        <pt x="792" y="115" on="1"/>
        <pt x="792" y="97" on="0"/>
        <pt x="757" y="62" on="0"/>
        <pt x="703" y="31" on="0"/>
        <pt x="635" y="5" on="0"/>
        <pt x="573" y="-13" on="0"/>
        <pt x="521" y="-23" on="0"/>
        <pt x="508" y="-23" on="1"/>
        <pt x="468" y="-23" on="0"/>
        <pt x="412" y="20" on="0"/>
        <pt x="392" y="54" on="1"/>
        <pt x="355" y="55" on="0"/>
        <pt x="303" y="90" on="0"/>
        <pt x="281" y="122" on="1"/>
        <pt x="268" y="106" on="0"/>
        <pt x="233" y="66" on="0"/>
        <pt x="190" y="29" on="0"/>
        <pt x="141" y="3" on="0"/>
        <pt x="117" y="0" on="1"/>
        <pt x="86" y="-4" on="0"/>
        <pt x="49" y="13" on="0"/>
        <pt x="27" y="43" on="0"/>
        <pt x="19" y="86" on="0"/>
      </contour>
    </TTGlyph>
    <TTGlyph name="aeacute" xMin="19" yMin="-23" xMax="792" yMax="733">
      <component glyphName="ae" x="0" y="0" flags="0x1204"/>
      <component glyphName="acute" x="155" y="0" flags="0x1004"/>
    </TTGlyph>
    <TTGlyph name="agrave" xMin="19" yMin="0" xMax="546" yMax="733">
      <component glyphName="a" x="0" y="0" flags="0x1204"/>
      <component glyphName="grave" x="74" y="0" flags="0x1004"/>
    </TTGlyph>
    <TTGlyph name="amacron" xMin="19" yMin="0" xMax="546" yMax="576">
      <component glyphName="a" x="0" y="0" flags="0x1204"/>
      <component glyphName="macron" x="96" y="76" flags="0x1004"/>
    </TTGlyph>
    <TTGlyph name="ampersand" xMin="12" yMin="0" xMax="511" yMax="606">
      <contour>
        <pt x="12" y="238" on="1"/>
        <pt x="12" y="257" on="0"/>
        <pt x="33" y="285" on="0"/>
        <pt x="61" y="310" on="0"/>
        <pt x="84" y="335" on="0"/>
        <pt x="84" y="349" on="1"/>
        <pt x="84" y="360" on="0"/>
        <pt x="74" y="372" on="0"/>
        <pt x="60" y="378" on="0"/>
        <pt x="44" y="382" on="0"/>
        <pt x="32" y="392" on="0"/>
        <pt x="25" y="409" on="0"/>
        <pt x="28" y="425" on="1"/>
        <pt x="32" y="459" on="0"/>
        <pt x="76" y="498" on="0"/>
        <pt x="136" y="517" on="0"/>
        <pt x="201" y="521" on="0"/>
        <pt x="226" y="521" on="1"/>
        <pt x="241" y="521" on="1"/>
        <pt x="252" y="521" on="0"/>
        <pt x="276" y="520" on="0"/>
        <pt x="297" y="519" on="0"/>
        <pt x="301" y="519" on="1"/>
        <pt x="308" y="519" on="0"/>
        <pt x="322" y="511" on="0"/>
        <pt x="335" y="500" on="0"/>
        <pt x="342" y="487" on="0"/>
        <pt x="342" y="479" on="1"/>
        <pt x="342" y="476" on="0"/>
        <pt x="331" y="465" on="0"/>
        <pt x="328" y="465" on="1"/>
        <pt x="319" y="479" on="0"/>
        <pt x="293" y="491" on="0"/>
        <pt x="264" y="495" on="0"/>
        <pt x="233" y="494" on="0"/>
        <pt x="220" y="494" on="1"/>
        <pt x="199" y="494" on="0"/>
        <pt x="146" y="492" on="0"/>
        <pt x="99" y="479" on="0"/>
        <pt x="67" y="447" on="0"/>
        <pt x="67" y="417" on="1"/>
        <pt x="67" y="409" on="0"/>
        <pt x="74" y="392" on="0"/>
        <pt x="85" y="379" on="0"/>
        <pt x="101" y="370" on="0"/>
        <pt x="110" y="370" on="1"/>
        <pt x="260" y="370" on="1"/>
        <pt x="287" y="355" on="1"/>
        <pt x="274" y="342" on="1"/>
        <pt x="257" y="341" on="0"/>
        <pt x="213" y="338" on="0"/>
        <pt x="164" y="332" on="0"/>
        <pt x="116" y="319" on="0"/>
        <pt x="77" y="294" on="0"/>
        <pt x="54" y="258" on="0"/>
        <pt x="54" y="232" on="1"/>
        <pt x="54" y="218" on="0"/>
        <pt x="70" y="202" on="0"/>
        <pt x="95" y="193" on="0"/>
        <pt x="128" y="190" on="0"/>
        <pt x="157" y="190" on="0"/>
        <pt x="182" y="191" on="0"/>
        <pt x="188" y="191" on="1"/>
        <pt x="220" y="191" on="0"/>
        <pt x="272" y="192" on="0"/>
        <pt x="322" y="194" on="0"/>
        <pt x="376" y="200" on="0"/>
        <pt x="410" y="205" on="1"/>
        <pt x="425" y="207" on="0"/>
        <pt x="450" y="221" on="0"/>
        <pt x="474" y="238" on="0"/>
        <pt x="499" y="249" on="0"/>
        <pt x="511" y="249" on="1"/>
        <pt x="511" y="222" on="0"/>
        <pt x="472" y="189" on="0"/>
        <pt x="409" y="170" on="0"/>
        <pt x="333" y="163" on="0"/>
        <pt x="260" y="162" on="0"/>
        <pt x="196" y="164" on="0"/>
        <pt x="178" y="164" on="1"/>
        <pt x="159" y="164" on="1"/>
        <pt x="146" y="164" on="0"/>
        <pt x="114" y="165" on="0"/>
        <pt x="101" y="165" on="1"/>
        <pt x="82" y="165" on="1"/>
        <pt x="69" y="167" on="0"/>
        <pt x="44" y="182" on="0"/>
        <pt x="24" y="201" on="0"/>
        <pt x="12" y="225" on="0"/>
      </contour>
      <contour>
        <pt x="175" y="606" on="1"/>
        <pt x="179" y="606" on="0"/>
        <pt x="193" y="606" on="0"/>
        <pt x="206" y="602" on="0"/>
        <pt x="217" y="595" on="0"/>
        <pt x="220" y="588" on="1"/>
        <pt x="214" y="580" on="0"/>
        <pt x="206" y="574" on="0"/>
        <pt x="198" y="574" on="1"/>
        <pt x="185" y="574" on="0"/>
        <pt x="175" y="595" on="0"/>
      </contour>
      <contour>
        <pt x="205" y="40" on="1"/>
        <pt x="206" y="40" on="0"/>
        <pt x="211" y="41" on="0"/>
        <pt x="211" y="41" on="1"/>
        <pt x="221" y="41" on="0"/>
        <pt x="234" y="29" on="0"/>
        <pt x="234" y="20" on="1"/>
        <pt x="234" y="9" on="0"/>
        <pt x="218" y="1" on="0"/>
        <pt x="205" y="0" on="1"/>
      </contour>
    </TTGlyph>
    <TTGlyph name="aogonek" xMin="19" yMin="-91" xMax="546" yMax="483">
      <contour>
        <pt x="501" y="-76" on="1"/>
        <pt x="489" y="-77" on="0"/>
        <pt x="454" y="-86" on="0"/>
        <pt x="417" y="-91" on="0"/>
        <pt x="382" y="-91" on="0"/>
        <pt x="353" y="-74" on="0"/>
        <pt x="336" y="-37" on="0"/>
        <pt x="336" y="-4" on="1"/>
        <pt x="336" y="31" on="0"/>
        <pt x="342" y="50" on="1"/>
        <pt x="345" y="58" on="0"/>
        <pt x="346" y="63" on="1"/>
        <pt x="338" y="67" on="0"/>
        <pt x="331" y="71" on="1"/>
        <pt x="304" y="90" on="0"/>
        <pt x="281" y="122" on="1"/>
        <pt x="268" y="106" on="0"/>
        <pt x="233" y="66" on="0"/>
        <pt x="190" y="29" on="0"/>
        <pt x="141" y="3" on="0"/>
        <pt x="117" y="0" on="1"/>
        <pt x="86" y="-4" on="0"/>
        <pt x="49" y="13" on="0"/>
        <pt x="27" y="43" on="0"/>
        <pt x="19" y="86" on="0"/>
        <pt x="19" y="111" on="1"/>
        <pt x="19" y="149" on="0"/>
        <pt x="38" y="235" on="0"/>
        <pt x="72" y="318" on="0"/>
        <pt x="121" y="392" on="0"/>
        <pt x="179" y="449" on="0"/>
        <pt x="247" y="483" on="0"/>
        <pt x="284" y="483" on="1"/>
        <pt x="292" y="483" on="0"/>
        <pt x="323" y="476" on="0"/>
        <pt x="355" y="465" on="0"/>
        <pt x="379" y="449" on="0"/>
        <pt x="379" y="441" on="1"/>
        <pt x="206" y="419" on="1"/>
        <pt x="187" y="419" on="0"/>
        <pt x="153" y="382" on="0"/>
        <pt x="124" y="325" on="0"/>
        <pt x="101" y="254" on="0"/>
        <pt x="84" y="186" on="0"/>
        <pt x="75" y="130" on="0"/>
        <pt x="75" y="116" on="1"/>
        <pt x="75" y="106" on="1"/>
        <pt x="75" y="100" on="0"/>
        <pt x="76" y="85" on="0"/>
        <pt x="76" y="77" on="1"/>
        <pt x="76" y="68" on="1"/>
        <pt x="76" y="66" on="0"/>
        <pt x="80" y="62" on="1"/>
        <pt x="97" y="46" on="1"/>
        <pt x="101" y="41" on="0"/>
        <pt x="103" y="40" on="1"/>
        <pt x="104" y="40" on="0"/>
        <pt x="106" y="40" on="1"/>
        <pt x="109" y="40" on="1"/>
        <pt x="132" y="40" on="0"/>
        <pt x="175" y="64" on="0"/>
        <pt x="212" y="98" on="0"/>
        <pt x="243" y="137" on="0"/>
        <pt x="254" y="150" on="1"/>
        <pt x="260" y="157" on="0"/>
        <pt x="267" y="204" on="0"/>
        <pt x="274" y="265" on="0"/>
        <pt x="282" y="334" on="0"/>
        <pt x="294" y="391" on="0"/>
        <pt x="311" y="427" on="0"/>
        <pt x="324" y="427" on="1"/>
        <pt x="325" y="427" on="0"/>
        <pt x="330" y="427" on="0"/>
        <pt x="330" y="427" on="1"/>
        <pt x="330" y="422" on="0"/>
        <pt x="331" y="382" on="0"/>
        <pt x="332" y="327" on="0"/>
        <pt x="333" y="265" on="0"/>
        <pt x="333" y="210" on="0"/>
        <pt x="335" y="170" on="0"/>
        <pt x="336" y="165" on="1"/>
        <pt x="336" y="160" on="0"/>
        <pt x="346" y="141" on="0"/>
        <pt x="358" y="123" on="0"/>
        <pt x="372" y="109" on="0"/>
        <pt x="376" y="109" on="1"/>
        <pt x="546" y="109" on="1"/>
        <pt x="546" y="98" on="0"/>
        <pt x="527" y="82" on="0"/>
        <pt x="499" y="70" on="0"/>
        <pt x="465" y="61" on="0"/>
        <pt x="433" y="56" on="0"/>
        <pt x="405" y="54" on="0"/>
        <pt x="398" y="54" on="1"/>
        <pt x="387" y="54" on="1"/>
        <pt x="387" y="49" on="1"/>
        <pt x="385" y="37" on="0"/>
        <pt x="375" y="25" on="1"/>
        <pt x="375" y="9" on="1"/>
        <pt x="375" y="1" on="0"/>
        <pt x="379" y="-15" on="0"/>
        <pt x="388" y="-29" on="0"/>
        <pt x="397" y="-32" on="1"/>
        <pt x="415" y="-37" on="0"/>
        <pt x="454" y="-33" on="0"/>
        <pt x="489" y="-25" on="0"/>
        <pt x="515" y="-18" on="0"/>
        <pt x="526" y="-23" on="0"/>
        <pt x="518" y="-49" on="0"/>
      </contour>
    </TTGlyph>
    <TTGlyph name="aring" xMin="19" yMin="0" xMax="546" yMax="608">
      <component glyphName="a" x="0" y="0" flags="0x1204"/>
      <component glyphName="ring" x="85" y="-17" flags="0x1004"/>
    </TTGlyph>
    <TTGlyph name="asciicircum" xMin="162" yMin="490" xMax="454" yMax="840">
      <contour>
        <pt x="204" y="659" on="1"/>
        <pt x="206" y="662" on="0"/>
        <pt x="220" y="692" on="0"/>
        <pt x="237" y="733" on="0"/>
        <pt x="257" y="778" on="0"/>
        <pt x="277" y="814" on="0"/>
        <pt x="294" y="840" on="0"/>
        <pt x="301" y="840" on="1"/>
        <pt x="302" y="840" on="0"/>
        <pt x="312" y="837" on="0"/>
        <pt x="314" y="836" on="1"/>
        <pt x="314" y="832" on="0"/>
        <pt x="317" y="813" on="0"/>
        <pt x="321" y="791" on="0"/>
        <pt x="326" y="771" on="0"/>
        <pt x="328" y="768" on="1"/>
        <pt x="330" y="762" on="0"/>
        <pt x="344" y="730" on="0"/>
        <pt x="362" y="688" on="0"/>
        <pt x="382" y="641" on="0"/>
        <pt x="402" y="596" on="0"/>
        <pt x="419" y="559" on="0"/>
        <pt x="424" y="549" on="1"/>
        <pt x="445" y="516" on="0"/>
        <pt x="454" y="490" on="0"/>
        <pt x="439" y="492" on="0"/>
        <pt x="408" y="519" on="0"/>
        <pt x="368" y="561" on="0"/>
        <pt x="329" y="611" on="0"/>
        <pt x="301" y="661" on="0"/>
        <pt x="294" y="683" on="1"/>
        <pt x="290" y="699" on="0"/>
        <pt x="292" y="711" on="1"/>
        <pt x="286" y="698" on="0"/>
        <pt x="277" y="679" on="1"/>
        <pt x="265" y="654" on="0"/>
        <pt x="236" y="598" on="0"/>
        <pt x="204" y="544" on="0"/>
        <pt x="179" y="506" on="0"/>
        <pt x="163" y="491" on="0"/>
        <pt x="162" y="517" on="0"/>
        <pt x="182" y="590" on="0"/>
      </contour>
      <contour>
        <pt x="295" y="719" on="1"/>
        <pt x="293" y="715" on="0"/>
        <pt x="292" y="712" on="1"/>
      </contour>
    </TTGlyph>
    <TTGlyph name="asciitilde" xMin="119" yMin="630" xMax="538" yMax="757">
      <contour>
        <pt x="119" y="670" on="1"/>
        <pt x="119" y="708" on="0"/>
        <pt x="145" y="746" on="0"/>
        <pt x="187" y="757" on="0"/>
        <pt x="240" y="743" on="0"/>
        <pt x="295" y="719" on="0"/>
        <pt x="346" y="689" on="0"/>
        <pt x="365" y="676" on="1"/>
        <pt x="409" y="689" on="0"/>
        <pt x="481" y="700" on="0"/>
        <pt x="525" y="700" on="0"/>
        <pt x="538" y="688" on="0"/>
        <pt x="514" y="670" on="0"/>
        <pt x="445" y="643" on="0"/>
        <pt x="385" y="630" on="1"/>
        <pt x="363" y="631" on="0"/>
        <pt x="315" y="649" on="0"/>
        <pt x="267" y="671" on="0"/>
        <pt x="219" y="692" on="0"/>
        <pt x="175" y="700" on="0"/>
        <pt x="135" y="689" on="0"/>
      </contour>
    </TTGlyph>
    <TTGlyph name="asterisk" xMin="58" yMin="131" xMax="584" yMax="632">
      <contour>
        <pt x="319" y="153" on="1"/>
        <pt x="319" y="142" on="0"/>
        <pt x="301" y="130" on="0"/>
        <pt x="280" y="133" on="0"/>
        <pt x="262" y="149" on="0"/>
        <pt x="262" y="166" on="1"/>
        <pt x="262" y="357" on="1"/>
        <pt x="95" y="239" on="1"/>
        <pt x="87" y="233" on="0"/>
        <pt x="67" y="242" on="0"/>
        <pt x="57" y="261" on="0"/>
        <pt x="59" y="285" on="0"/>
        <pt x="73" y="295" on="1"/>
        <pt x="209" y="391" on="1"/>
        <pt x="98" y="391" on="1"/>
        <pt x="99" y="396" on="0"/>
        <pt x="101" y="400" on="1"/>
        <pt x="103" y="405" on="0"/>
        <pt x="108" y="413" on="0"/>
        <pt x="112" y="417" on="1"/>
        <pt x="132" y="429" on="0"/>
        <pt x="171" y="433" on="0"/>
        <pt x="206" y="431" on="0"/>
        <pt x="235" y="431" on="0"/>
        <pt x="245" y="440" on="1"/>
        <pt x="161" y="558" on="1"/>
        <pt x="166" y="560" on="0"/>
        <pt x="171" y="562" on="1"/>
        <pt x="176" y="562" on="0"/>
        <pt x="185" y="562" on="0"/>
        <pt x="191" y="561" on="1"/>
        <pt x="206" y="554" on="0"/>
        <pt x="228" y="535" on="0"/>
        <pt x="243" y="515" on="0"/>
        <pt x="256" y="494" on="0"/>
        <pt x="262" y="486" on="1"/>
        <pt x="263" y="495" on="0"/>
        <pt x="263" y="533" on="0"/>
        <pt x="263" y="573" on="0"/>
        <pt x="263" y="609" on="0"/>
        <pt x="262" y="616" on="1"/>
        <pt x="263" y="627" on="0"/>
        <pt x="280" y="633" on="0"/>
        <pt x="301" y="630" on="0"/>
        <pt x="319" y="623" on="0"/>
        <pt x="319" y="621" on="1"/>
        <pt x="319" y="472" on="1"/>
        <pt x="322" y="473" on="0"/>
        <pt x="328" y="476" on="0"/>
        <pt x="332" y="478" on="1"/>
        <pt x="338" y="481" on="0"/>
        <pt x="370" y="503" on="0"/>
        <pt x="404" y="527" on="0"/>
        <pt x="435" y="550" on="0"/>
        <pt x="441" y="555" on="1"/>
        <pt x="449" y="560" on="0"/>
        <pt x="463" y="549" on="0"/>
        <pt x="473" y="530" on="0"/>
        <pt x="479" y="512" on="0"/>
        <pt x="478" y="510" on="1"/>
        <pt x="386" y="445" on="1"/>
        <pt x="564" y="445" on="1"/>
        <pt x="584" y="420" on="1"/>
        <pt x="575" y="413" on="0"/>
        <pt x="541" y="406" on="0"/>
        <pt x="496" y="402" on="0"/>
        <pt x="445" y="403" on="0"/>
        <pt x="398" y="403" on="0"/>
        <pt x="355" y="403" on="0"/>
        <pt x="341" y="400" on="1"/>
        <pt x="476" y="209" on="1"/>
        <pt x="467" y="179" on="1"/>
        <pt x="452" y="183" on="0"/>
        <pt x="413" y="225" on="0"/>
        <pt x="373" y="279" on="0"/>
        <pt x="336" y="336" on="0"/>
        <pt x="319" y="355" on="1"/>
      </contour>
    </TTGlyph>
    <TTGlyph name="at" xMin="20" yMin="-1" xMax="925" yMax="823">
      <contour>
        <pt x="20" y="376" on="1"/>
        <pt x="20" y="433" on="0"/>
        <pt x="42" y="544" on="0"/>
        <pt x="87" y="644" on="0"/>
        <pt x="153" y="728" on="0"/>
        <pt x="239" y="789" on="0"/>
        <pt x="346" y="823" on="0"/>
        <pt x="410" y="823" on="1"/>
        <pt x="441" y="823" on="0"/>
        <pt x="515" y="810" on="0"/>
        <pt x="589" y="783" on="0"/>
        <pt x="660" y="743" on="0"/>
        <pt x="714" y="692" on="0"/>
        <pt x="747" y="628" on="0"/>
        <pt x="747" y="591" on="1"/>
        <pt x="747" y="560" on="0"/>
        <pt x="729" y="490" on="0"/>
        <pt x="692" y="433" on="0"/>
        <pt x="637" y="395" on="0"/>
        <pt x="600" y="395" on="1"/>
        <pt x="590" y="395" on="0"/>
        <pt x="578" y="405" on="0"/>
        <pt x="568" y="416" on="0"/>
        <pt x="556" y="425" on="0"/>
        <pt x="547" y="425" on="1"/>
        <pt x="530" y="425" on="0"/>
        <pt x="495" y="408" on="0"/>
        <pt x="458" y="387" on="0"/>
        <pt x="418" y="369" on="0"/>
        <pt x="397" y="369" on="1"/>
        <pt x="346" y="369" on="0"/>
        <pt x="292" y="426" on="0"/>
        <pt x="292" y="473" on="1"/>
        <pt x="292" y="506" on="0"/>
        <pt x="314" y="555" on="0"/>
        <pt x="350" y="588" on="0"/>
        <pt x="401" y="603" on="0"/>
        <pt x="432" y="603" on="1"/>
        <pt x="463" y="603" on="0"/>
        <pt x="511" y="577" on="0"/>
        <pt x="546" y="537" on="0"/>
        <pt x="571" y="490" on="0"/>
        <pt x="589" y="451" on="0"/>
        <pt x="603" y="425" on="0"/>
        <pt x="608" y="425" on="1"/>
        <pt x="625" y="425" on="0"/>
        <pt x="654" y="444" on="0"/>
        <pt x="679" y="473" on="0"/>
        <pt x="698" y="511" on="0"/>
        <pt x="711" y="549" on="0"/>
        <pt x="719" y="584" on="0"/>
        <pt x="719" y="595" on="1"/>
        <pt x="719" y="633" on="0"/>
        <pt x="685" y="689" on="0"/>
        <pt x="630" y="730" on="0"/>
        <pt x="560" y="758" on="0"/>
        <pt x="487" y="775" on="0"/>
        <pt x="418" y="781" on="0"/>
        <pt x="391" y="781" on="1"/>
        <pt x="333" y="781" on="0"/>
        <pt x="239" y="749" on="0"/>
        <pt x="168" y="692" on="0"/>
        <pt x="120" y="614" on="0"/>
        <pt x="88" y="523" on="0"/>
        <pt x="74" y="422" on="0"/>
        <pt x="74" y="371" on="1"/>
        <pt x="74" y="283" on="0"/>
        <pt x="122" y="157" on="0"/>
        <pt x="215" y="76" on="0"/>
        <pt x="347" y="39" on="0"/>
        <pt x="431" y="39" on="1"/>
        <pt x="460" y="39" on="0"/>
        <pt x="549" y="46" on="0"/>
        <pt x="647" y="62" on="0"/>
        <pt x="748" y="90" on="0"/>
        <pt x="832" y="133" on="0"/>
        <pt x="889" y="193" on="0"/>
        <pt x="896" y="233" on="1"/>
        <pt x="899" y="249" on="0"/>
        <pt x="872" y="280" on="0"/>
        <pt x="834" y="306" on="0"/>
        <pt x="796" y="330" on="0"/>
        <pt x="787" y="342" on="1"/>
        <pt x="801" y="355" on="1"/>
        <pt x="805" y="360" on="0"/>
        <pt x="828" y="353" on="0"/>
        <pt x="856" y="334" on="0"/>
        <pt x="885" y="306" on="0"/>
        <pt x="910" y="278" on="0"/>
        <pt x="925" y="250" on="0"/>
        <pt x="925" y="241" on="1"/>
        <pt x="925" y="193" on="0"/>
        <pt x="870" y="121" on="0"/>
        <pt x="781" y="67" on="0"/>
        <pt x="672" y="31" on="0"/>
        <pt x="562" y="9" on="0"/>
        <pt x="466" y="-1" on="0"/>
        <pt x="436" y="-1" on="1"/>
        <pt x="336" y="-1" on="0"/>
        <pt x="182" y="41" on="0"/>
        <pt x="76" y="131" on="0"/>
        <pt x="20" y="274" on="0"/>
      </contour>
      <contour>
        <pt x="335" y="457" on="1"/>
        <pt x="335" y="446" on="0"/>
        <pt x="346" y="425" on="0"/>
        <pt x="363" y="406" on="0"/>
        <pt x="384" y="395" on="0"/>
        <pt x="396" y="395" on="1"/>
        <pt x="420" y="395" on="0"/>
        <pt x="471" y="408" on="0"/>
        <pt x="509" y="435" on="0"/>
        <pt x="531" y="476" on="0"/>
        <pt x="527" y="507" on="1"/>
        <pt x="525" y="527" on="0"/>
        <pt x="510" y="554" on="0"/>
        <pt x="487" y="569" on="0"/>
        <pt x="456" y="575" on="0"/>
        <pt x="438" y="575" on="1"/>
        <pt x="411" y="575" on="0"/>
        <pt x="373" y="557" on="0"/>
        <pt x="347" y="526" on="0"/>
        <pt x="335" y="483" on="0"/>
      </contour>
    </TTGlyph>
    <TTGlyph name="atilde" xMin="20" yMin="0" xMax="491" yMax="697">
      <contour>
        <pt x="20" y="112" on="1"/>
        <pt x="20" y="147" on="0"/>
        <pt x="31" y="223" on="0"/>
        <pt x="53" y="299" on="0"/>
        <pt x="89" y="368" on="0"/>
        <pt x="139" y="421" on="0"/>
        <pt x="205" y="452" on="0"/>
        <pt x="247" y="452" on="1"/>
        <pt x="257" y="452" on="0"/>
        <pt x="298" y="447" on="0"/>
        <pt x="338" y="436" on="0"/>
        <pt x="370" y="414" on="0"/>
        <pt x="370" y="397" on="1"/>
        <pt x="370" y="82" on="1"/>
        <pt x="370" y="70" on="0"/>
        <pt x="386" y="53" on="0"/>
        <pt x="410" y="43" on="0"/>
        <pt x="440" y="38" on="0"/>
        <pt x="467" y="36" on="0"/>
        <pt x="477" y="36" on="1"/>
        <pt x="491" y="36" on="1"/>
        <pt x="491" y="25" on="0"/>
        <pt x="470" y="15" on="0"/>
        <pt x="443" y="12" on="0"/>
        <pt x="418" y="12" on="0"/>
        <pt x="414" y="12" on="1"/>
        <pt x="382" y="12" on="0"/>
        <pt x="344" y="34" on="0"/>
        <pt x="322" y="72" on="0"/>
        <pt x="312" y="122" on="0"/>
        <pt x="309" y="150" on="1"/>
        <pt x="288" y="128" on="0"/>
        <pt x="243" y="75" on="0"/>
        <pt x="192" y="30" on="0"/>
        <pt x="131" y="0" on="0"/>
        <pt x="95" y="0" on="1"/>
        <pt x="71" y="0" on="0"/>
        <pt x="41" y="20" on="0"/>
        <pt x="25" y="52" on="0"/>
        <pt x="20" y="93" on="0"/>
      </contour>
      <contour>
        <pt x="75" y="129" on="1"/>
        <pt x="75" y="122" on="0"/>
        <pt x="76" y="93" on="0"/>
        <pt x="81" y="63" on="0"/>
        <pt x="93" y="40" on="0"/>
        <pt x="103" y="40" on="1"/>
        <pt x="107" y="40" on="0"/>
        <pt x="123" y="44" on="0"/>
        <pt x="141" y="49" on="0"/>
        <pt x="155" y="53" on="0"/>
        <pt x="157" y="55" on="1"/>
        <pt x="206" y="90" on="0"/>
        <pt x="269" y="168" on="0"/>
        <pt x="305" y="255" on="0"/>
        <pt x="318" y="355" on="0"/>
        <pt x="318" y="414" on="1"/>
        <pt x="256" y="414" on="0"/>
        <pt x="166" y="368" on="0"/>
        <pt x="104" y="290" on="0"/>
        <pt x="75" y="186" on="0"/>
      </contour>
      <contour>
        <pt x="33" y="527" on="1"/>
        <pt x="33" y="552" on="0"/>
        <pt x="57" y="608" on="0"/>
        <pt x="95" y="658" on="0"/>
        <pt x="146" y="695" on="0"/>
        <pt x="171" y="697" on="1"/>
        <pt x="187" y="700" on="0"/>
        <pt x="214" y="689" on="0"/>
        <pt x="237" y="670" on="0"/>
        <pt x="259" y="648" on="0"/>
        <pt x="283" y="627" on="0"/>
        <pt x="309" y="614" on="0"/>
        <pt x="326" y="614" on="1"/>
        <pt x="344" y="614" on="0"/>
        <pt x="373" y="625" on="0"/>
        <pt x="403" y="636" on="0"/>
        <pt x="433" y="647" on="0"/>
        <pt x="450" y="647" on="1"/>
        <pt x="450" y="631" on="0"/>
        <pt x="425" y="600" on="0"/>
        <pt x="390" y="575" on="0"/>
        <pt x="350" y="560" on="0"/>
        <pt x="337" y="560" on="1"/>
        <pt x="311" y="560" on="0"/>
        <pt x="271" y="572" on="0"/>
        <pt x="234" y="594" on="0"/>
        <pt x="201" y="625" on="0"/>
        <pt x="184" y="643" on="1"/>
        <pt x="184" y="643" on="0"/>
        <pt x="173" y="644" on="0"/>
        <pt x="171" y="644" on="1"/>
        <pt x="146" y="644" on="0"/>
        <pt x="108" y="611" on="0"/>
        <pt x="81" y="564" on="0"/>
        <pt x="65" y="512" on="0"/>
        <pt x="61" y="492" on="1"/>
        <pt x="60" y="492" on="0"/>
        <pt x="56" y="492" on="0"/>
        <pt x="55" y="492" on="1"/>
        <pt x="47" y="492" on="0"/>
        <pt x="39" y="499" on="0"/>
        <pt x="34" y="509" on="0"/>
        <pt x="33" y="522" on="0"/>
      </contour>
    </TTGlyph>
    <TTGlyph name="b" xMin="28" yMin="0" xMax="454" yMax="616">
      <contour>
        <pt x="41" y="13" on="1"/>
        <pt x="40" y="31" on="0"/>
        <pt x="39" y="106" on="0"/>
        <pt x="36" y="201" on="0"/>
        <pt x="33" y="306" on="0"/>
        <pt x="31" y="400" on="0"/>
        <pt x="28" y="474" on="0"/>
        <pt x="28" y="492" on="1"/>
        <pt x="28" y="507" on="1"/>
        <pt x="28" y="513" on="0"/>
        <pt x="32" y="544" on="0"/>
        <pt x="36" y="579" on="0"/>
        <pt x="40" y="609" on="0"/>
        <pt x="41" y="616" on="1"/>
        <pt x="44" y="616" on="1"/>
        <pt x="47" y="616" on="0"/>
        <pt x="49" y="616" on="1"/>
        <pt x="58" y="616" on="0"/>
        <pt x="67" y="598" on="0"/>
        <pt x="68" y="588" on="1"/>
        <pt x="95" y="287" on="1"/>
        <pt x="110" y="274" on="1"/>
        <pt x="155" y="327" on="0"/>
        <pt x="269" y="371" on="0"/>
        <pt x="338" y="371" on="1"/>
        <pt x="364" y="371" on="0"/>
        <pt x="407" y="349" on="0"/>
        <pt x="437" y="313" on="0"/>
        <pt x="454" y="266" on="0"/>
        <pt x="454" y="241" on="1"/>
        <pt x="454" y="191" on="0"/>
        <pt x="417" y="115" on="0"/>
        <pt x="356" y="62" on="0"/>
        <pt x="276" y="28" on="0"/>
        <pt x="190" y="7" on="0"/>
        <pt x="101" y="0" on="0"/>
        <pt x="61" y="0" on="1"/>
        <pt x="54" y="0" on="0"/>
        <pt x="47" y="4" on="0"/>
      </contour>
      <contour>
        <pt x="95" y="68" on="1"/>
        <pt x="97" y="60" on="0"/>
        <pt x="110" y="54" on="0"/>
        <pt x="125" y="52" on="0"/>
        <pt x="139" y="53" on="0"/>
        <pt x="143" y="53" on="1"/>
        <pt x="189" y="53" on="0"/>
        <pt x="280" y="71" on="0"/>
        <pt x="353" y="114" on="0"/>
        <pt x="398" y="186" on="0"/>
        <pt x="398" y="240" on="1"/>
        <pt x="398" y="264" on="0"/>
        <pt x="375" y="301" on="0"/>
        <pt x="355" y="314" on="1"/>
        <pt x="352" y="314" on="0"/>
        <pt x="336" y="315" on="0"/>
        <pt x="316" y="316" on="0"/>
        <pt x="298" y="317" on="0"/>
        <pt x="294" y="317" on="1"/>
        <pt x="236" y="317" on="0"/>
        <pt x="163" y="276" on="0"/>
        <pt x="119" y="209" on="0"/>
        <pt x="100" y="119" on="0"/>
      </contour>
    </TTGlyph>
    <TTGlyph name="backslash" xMin="13" yMin="-5" xMax="304" yMax="507">
      <contour>
        <pt x="13" y="492" on="1"/>
        <pt x="13" y="496" on="0"/>
        <pt x="24" y="507" on="0"/>
        <pt x="28" y="507" on="1"/>
        <pt x="68" y="465" on="1"/>
        <pt x="75" y="452" on="0"/>
        <pt x="105" y="396" on="0"/>
        <pt x="143" y="326" on="0"/>
        <pt x="184" y="249" on="0"/>
        <pt x="222" y="179" on="0"/>
        <pt x="252" y="122" on="0"/>
        <pt x="260" y="109" on="1"/>
        <pt x="268" y="94" on="0"/>
        <pt x="284" y="68" on="0"/>
        <pt x="297" y="42" on="0"/>
        <pt x="304" y="14" on="0"/>
        <pt x="304" y="-5" on="1"/>
        <pt x="284" y="-5" on="0"/>
        <pt x="249" y="25" on="0"/>
        <pt x="219" y="71" on="0"/>
        <pt x="192" y="130" on="0"/>
        <pt x="168" y="188" on="0"/>
        <pt x="147" y="241" on="0"/>
        <pt x="137" y="260" on="1"/>
        <pt x="134" y="265" on="0"/>
        <pt x="117" y="294" on="0"/>
        <pt x="94" y="334" on="0"/>
        <pt x="69" y="378" on="0"/>
        <pt x="47" y="418" on="0"/>
        <pt x="31" y="446" on="0"/>
        <pt x="28" y="452" on="1"/>
        <pt x="26" y="454" on="0"/>
        <pt x="22" y="466" on="0"/>
        <pt x="17" y="480" on="0"/>
        <pt x="13" y="490" on="0"/>
      </contour>
    </TTGlyph>
    <TTGlyph name="bar" xMin="34" yMin="0" xMax="89" yMax="594">
      <contour>
        <pt x="49" y="588" on="1"/>
        <pt x="49" y="589" on="0"/>
        <pt x="58" y="594" on="0"/>
        <pt x="59" y="594" on="1"/>
        <pt x="68" y="594" on="0"/>
        <pt x="79" y="585" on="0"/>
        <pt x="86" y="572" on="0"/>
        <pt x="89" y="555" on="0"/>
        <pt x="89" y="547" on="1"/>
        <pt x="89" y="28" on="1"/>
        <pt x="89" y="26" on="0"/>
        <pt x="79" y="15" on="0"/>
        <pt x="76" y="13" on="1"/>
        <pt x="73" y="12" on="0"/>
        <pt x="61" y="8" on="0"/>
        <pt x="48" y="4" on="0"/>
        <pt x="36" y="1" on="0"/>
        <pt x="34" y="0" on="1"/>
        <pt x="34" y="519" on="1"/>
      </contour>
    </TTGlyph>
    <TTGlyph name="braceleft" xMin="20" yMin="-1" xMax="338" yMax="768">
      <contour>
        <pt x="75" y="122" on="1"/>
        <pt x="75" y="153" on="0"/>
        <pt x="105" y="214" on="0"/>
        <pt x="142" y="271" on="0"/>
        <pt x="173" y="319" on="0"/>
        <pt x="173" y="336" on="1"/>
        <pt x="173" y="337" on="0"/>
        <pt x="172" y="342" on="0"/>
        <pt x="171" y="342" on="1"/>
        <pt x="117" y="370" on="1"/>
        <pt x="116" y="370" on="0"/>
        <pt x="115" y="374" on="0"/>
        <pt x="115" y="376" on="1"/>
        <pt x="115" y="386" on="0"/>
        <pt x="141" y="411" on="0"/>
        <pt x="174" y="436" on="0"/>
        <pt x="206" y="458" on="0"/>
        <pt x="211" y="465" on="1"/>
        <pt x="198" y="479" on="1"/>
        <pt x="61" y="507" on="1"/>
        <pt x="54" y="508" on="0"/>
        <pt x="39" y="527" on="0"/>
        <pt x="28" y="551" on="0"/>
        <pt x="20" y="574" on="0"/>
        <pt x="20" y="581" on="1"/>
        <pt x="20" y="620" on="0"/>
        <pt x="52" y="688" on="0"/>
        <pt x="107" y="739" on="0"/>
        <pt x="176" y="768" on="0"/>
        <pt x="214" y="768" on="1"/>
        <pt x="240" y="768" on="1"/>
        <pt x="254" y="768" on="0"/>
        <pt x="279" y="763" on="0"/>
        <pt x="301" y="751" on="0"/>
        <pt x="309" y="739" on="1"/>
        <pt x="265" y="745" on="0"/>
        <pt x="178" y="738" on="0"/>
        <pt x="106" y="706" on="0"/>
        <pt x="60" y="643" on="0"/>
        <pt x="60" y="592" on="1"/>
        <pt x="60" y="563" on="0"/>
        <pt x="89" y="533" on="0"/>
        <pt x="133" y="517" on="0"/>
        <pt x="184" y="511" on="0"/>
        <pt x="228" y="502" on="0"/>
        <pt x="256" y="484" on="0"/>
        <pt x="256" y="465" on="1"/>
        <pt x="256" y="452" on="0"/>
        <pt x="238" y="435" on="0"/>
        <pt x="215" y="419" on="0"/>
        <pt x="197" y="403" on="0"/>
        <pt x="197" y="390" on="1"/>
        <pt x="197" y="381" on="0"/>
        <pt x="211" y="368" on="0"/>
        <pt x="228" y="357" on="0"/>
        <pt x="241" y="345" on="0"/>
        <pt x="241" y="336" on="1"/>
        <pt x="241" y="334" on="0"/>
        <pt x="222" y="317" on="0"/>
        <pt x="193" y="287" on="0"/>
        <pt x="161" y="248" on="0"/>
        <pt x="133" y="201" on="0"/>
        <pt x="114" y="148" on="0"/>
        <pt x="114" y="121" on="1"/>
        <pt x="114" y="95" on="0"/>
        <pt x="139" y="63" on="0"/>
        <pt x="178" y="43" on="0"/>
        <pt x="228" y="36" on="0"/>
        <pt x="278" y="33" on="0"/>
        <pt x="323" y="35" on="0"/>
        <pt x="338" y="35" on="1"/>
        <pt x="338" y="22" on="0"/>
        <pt x="317" y="7" on="0"/>
        <pt x="287" y="1" on="0"/>
        <pt x="256" y="-1" on="0"/>
        <pt x="247" y="-1" on="1"/>
        <pt x="215" y="-1" on="0"/>
        <pt x="154" y="10" on="0"/>
        <pt x="105" y="39" on="0"/>
        <pt x="75" y="86" on="0"/>
      </contour>
    </TTGlyph>
    <TTGlyph name="braceright" xMin="6" yMin="-1" xMax="268" yMax="785">
      <contour>
        <pt x="34" y="13" on="1"/>
        <pt x="36" y="22" on="0"/>
        <pt x="68" y="32" on="0"/>
        <pt x="114" y="41" on="0"/>
        <pt x="166" y="55" on="0"/>
        <pt x="211" y="82" on="0"/>
        <pt x="240" y="127" on="0"/>
        <pt x="240" y="164" on="1"/>
        <pt x="240" y="209" on="0"/>
        <pt x="208" y="268" on="0"/>
        <pt x="154" y="305" on="0"/>
        <pt x="85" y="324" on="0"/>
        <pt x="48" y="328" on="1"/>
        <pt x="53" y="346" on="0"/>
        <pt x="75" y="373" on="0"/>
        <pt x="89" y="382" on="1"/>
        <pt x="6" y="425" on="1"/>
        <pt x="6" y="438" on="1"/>
        <pt x="41" y="453" on="0"/>
        <pt x="114" y="492" on="0"/>
        <pt x="174" y="544" on="0"/>
        <pt x="213" y="609" on="0"/>
        <pt x="213" y="652" on="1"/>
        <pt x="213" y="681" on="0"/>
        <pt x="186" y="723" on="0"/>
        <pt x="142" y="749" on="0"/>
        <pt x="88" y="763" on="0"/>
        <pt x="61" y="767" on="1"/>
        <pt x="61" y="785" on="1"/>
        <pt x="100" y="785" on="0"/>
        <pt x="169" y="771" on="0"/>
        <pt x="222" y="738" on="0"/>
        <pt x="254" y="679" on="0"/>
        <pt x="254" y="634" on="1"/>
        <pt x="254" y="607" on="0"/>
        <pt x="231" y="561" on="0"/>
        <pt x="198" y="524" on="0"/>
        <pt x="157" y="493" on="0"/>
        <pt x="124" y="466" on="0"/>
        <pt x="102" y="443" on="0"/>
        <pt x="102" y="430" on="1"/>
        <pt x="102" y="420" on="0"/>
        <pt x="120" y="415" on="0"/>
        <pt x="140" y="411" on="0"/>
        <pt x="157" y="403" on="0"/>
        <pt x="157" y="390" on="1"/>
        <pt x="157" y="384" on="0"/>
        <pt x="153" y="377" on="0"/>
        <pt x="147" y="370" on="0"/>
        <pt x="142" y="361" on="0"/>
        <pt x="142" y="355" on="1"/>
        <pt x="142" y="350" on="0"/>
        <pt x="161" y="337" on="0"/>
        <pt x="189" y="318" on="0"/>
        <pt x="221" y="290" on="0"/>
        <pt x="249" y="251" on="0"/>
        <pt x="268" y="201" on="0"/>
        <pt x="268" y="167" on="1"/>
        <pt x="268" y="130" on="0"/>
        <pt x="245" y="69" on="0"/>
        <pt x="202" y="24" on="0"/>
        <pt x="141" y="-1" on="0"/>
        <pt x="103" y="-1" on="1"/>
        <pt x="94" y="-1" on="0"/>
        <pt x="77" y="1" on="0"/>
        <pt x="62" y="4" on="0"/>
        <pt x="45" y="9" on="0"/>
      </contour>
    </TTGlyph>
    <TTGlyph name="bracketleft" xMin="47" yMin="-67" xMax="415" yMax="733">
      <contour>
        <pt x="47" y="-40" on="1"/>
        <pt x="48" y="0" on="0"/>
        <pt x="49" y="113" on="0"/>
        <pt x="49" y="179" on="1"/>
        <pt x="49" y="316" on="1"/>
        <pt x="49" y="387" on="0"/>
        <pt x="49" y="519" on="0"/>
        <pt x="48" y="633" on="0"/>
        <pt x="48" y="670" on="1"/>
        <pt x="48" y="684" on="1"/>
        <pt x="48" y="692" on="0"/>
        <pt x="49" y="708" on="0"/>
        <pt x="49" y="719" on="0"/>
        <pt x="49" y="720" on="1"/>
        <pt x="63" y="733" on="1"/>
        <pt x="391" y="733" on="1"/>
        <pt x="391" y="731" on="0"/>
        <pt x="380" y="721" on="0"/>
        <pt x="377" y="720" on="1"/>
        <pt x="349" y="712" on="0"/>
        <pt x="279" y="705" on="0"/>
        <pt x="209" y="703" on="0"/>
        <pt x="142" y="706" on="0"/>
        <pt x="117" y="706" on="1"/>
        <pt x="103" y="693" on="1"/>
        <pt x="103" y="692" on="0"/>
        <pt x="103" y="677" on="0"/>
        <pt x="103" y="656" on="0"/>
        <pt x="103" y="634" on="0"/>
        <pt x="103" y="628" on="1"/>
        <pt x="103" y="595" on="0"/>
        <pt x="101" y="494" on="0"/>
        <pt x="99" y="374" on="0"/>
        <pt x="98" y="247" on="0"/>
        <pt x="97" y="126" on="0"/>
        <pt x="98" y="22" on="0"/>
        <pt x="101" y="-13" on="1"/>
        <pt x="107" y="-14" on="0"/>
        <pt x="139" y="-19" on="0"/>
        <pt x="174" y="-23" on="0"/>
        <pt x="203" y="-26" on="0"/>
        <pt x="210" y="-26" on="1"/>
        <pt x="214" y="-26" on="0"/>
        <pt x="241" y="-23" on="0"/>
        <pt x="257" y="-20" on="1"/>
        <pt x="288" y="-14" on="1"/>
        <pt x="302" y="-13" on="0"/>
        <pt x="306" y="-13" on="1"/>
        <pt x="312" y="-12" on="0"/>
        <pt x="344" y="-11" on="0"/>
        <pt x="379" y="-10" on="0"/>
        <pt x="409" y="-9" on="0"/>
        <pt x="415" y="-9" on="1"/>
        <pt x="415" y="-40" on="1"/>
        <pt x="404" y="-41" on="1"/>
        <pt x="393" y="-43" on="0"/>
        <pt x="363" y="-48" on="0"/>
        <pt x="330" y="-52" on="0"/>
        <pt x="319" y="-53" on="1"/>
        <pt x="306" y="-53" on="1"/>
        <pt x="302" y="-54" on="0"/>
        <pt x="274" y="-59" on="0"/>
        <pt x="241" y="-63" on="0"/>
        <pt x="214" y="-67" on="0"/>
        <pt x="210" y="-67" on="1"/>
        <pt x="194" y="-67" on="0"/>
        <pt x="145" y="-64" on="0"/>
        <pt x="97" y="-59" on="0"/>
        <pt x="61" y="-55" on="0"/>
        <pt x="60" y="-53" on="1"/>
      </contour>
    </TTGlyph>
    <TTGlyph name="bracketright" xMin="21" yMin="-70" xMax="405" yMax="723">
      <contour>
        <pt x="21" y="-42" on="1"/>
        <pt x="21" y="-41" on="0"/>
        <pt x="31" y="-32" on="0"/>
        <pt x="34" y="-30" on="1"/>
        <pt x="36" y="-29" on="0"/>
        <pt x="48" y="-24" on="0"/>
        <pt x="61" y="-21" on="0"/>
        <pt x="73" y="-17" on="0"/>
        <pt x="76" y="-16" on="1"/>
        <pt x="85" y="-14" on="0"/>
        <pt x="129" y="-7" on="0"/>
        <pt x="183" y="1" on="0"/>
        <pt x="242" y="10" on="0"/>
        <pt x="296" y="18" on="0"/>
        <pt x="338" y="24" on="0"/>
        <pt x="349" y="25" on="1"/>
        <pt x="363" y="52" on="1"/>
        <pt x="336" y="599" on="1"/>
        <pt x="336" y="600" on="0"/>
        <pt x="337" y="608" on="0"/>
        <pt x="337" y="619" on="0"/>
        <pt x="337" y="624" on="1"/>
        <pt x="337" y="641" on="1"/>
        <pt x="337" y="646" on="0"/>
        <pt x="337" y="658" on="0"/>
        <pt x="336" y="667" on="0"/>
        <pt x="336" y="668" on="1"/>
        <pt x="336" y="672" on="0"/>
        <pt x="325" y="688" on="0"/>
        <pt x="322" y="688" on="1"/>
        <pt x="62" y="688" on="1"/>
        <pt x="62" y="708" on="1"/>
        <pt x="111" y="714" on="0"/>
        <pt x="206" y="723" on="0"/>
        <pt x="255" y="723" on="1"/>
        <pt x="272" y="723" on="0"/>
        <pt x="298" y="722" on="0"/>
        <pt x="325" y="718" on="0"/>
        <pt x="355" y="713" on="0"/>
        <pt x="376" y="708" on="1"/>
        <pt x="376" y="706" on="0"/>
        <pt x="377" y="688" on="0"/>
        <pt x="378" y="668" on="0"/>
        <pt x="379" y="651" on="0"/>
        <pt x="379" y="646" on="1"/>
        <pt x="379" y="641" on="0"/>
        <pt x="378" y="631" on="1"/>
        <pt x="377" y="611" on="1"/>
        <pt x="377" y="602" on="0"/>
        <pt x="376" y="587" on="0"/>
        <pt x="376" y="585" on="1"/>
        <pt x="373" y="566" on="0"/>
        <pt x="373" y="496" on="0"/>
        <pt x="378" y="408" on="0"/>
        <pt x="384" y="306" on="0"/>
        <pt x="391" y="206" on="0"/>
        <pt x="398" y="114" on="0"/>
        <pt x="402" y="42" on="0"/>
        <pt x="405" y="-1" on="0"/>
        <pt x="403" y="-2" on="1"/>
        <pt x="391" y="-16" on="1"/>
        <pt x="299" y="-16" on="0"/>
        <pt x="121" y="-44" on="0"/>
        <pt x="34" y="-70" on="1"/>
        <pt x="33" y="-69" on="0"/>
        <pt x="28" y="-61" on="0"/>
        <pt x="24" y="-53" on="0"/>
        <pt x="21" y="-45" on="0"/>
      </contour>
    </TTGlyph>
    <TTGlyph name="breve" xMin="26" yMin="532" xMax="285" yMax="694">
      <contour>
        <pt x="49" y="600" on="1"/>
        <pt x="36" y="637" on="0"/>
        <pt x="25" y="679" on="0"/>
        <pt x="28" y="695" on="0"/>
        <pt x="40" y="692" on="0"/>
        <pt x="57" y="676" on="0"/>
        <pt x="76" y="654" on="0"/>
        <pt x="85" y="643" on="1"/>
        <pt x="93" y="616" on="0"/>
        <pt x="117" y="590" on="0"/>
        <pt x="145" y="587" on="0"/>
        <pt x="175" y="600" on="0"/>
        <pt x="204" y="625" on="0"/>
        <pt x="229" y="657" on="0"/>
        <pt x="238" y="673" on="1"/>
        <pt x="244" y="688" on="0"/>
        <pt x="268" y="699" on="0"/>
        <pt x="285" y="689" on="0"/>
        <pt x="285" y="655" on="0"/>
        <pt x="265" y="626" on="1"/>
        <pt x="248" y="592" on="0"/>
        <pt x="190" y="541" on="0"/>
        <pt x="127" y="524" on="0"/>
        <pt x="67" y="553" on="0"/>
      </contour>
    </TTGlyph>
    <TTGlyph name="brokenbar" xMin="35" yMin="-5" xMax="93" yMax="514">
      <contour>
        <pt x="90" y="250" on="1"/>
        <pt x="93" y="213" on="0"/>
        <pt x="92" y="147" on="0"/>
        <pt x="90" y="85" on="0"/>
        <pt x="88" y="25" on="0"/>
        <pt x="88" y="-5" on="1"/>
        <pt x="58" y="-5" on="0"/>
        <pt x="55" y="28" on="1"/>
        <pt x="53" y="39" on="0"/>
        <pt x="50" y="81" on="0"/>
        <pt x="48" y="138" on="0"/>
        <pt x="45" y="206" on="0"/>
        <pt x="44" y="244" on="1"/>
      </contour>
      <contour>
        <pt x="44" y="274" on="1"/>
        <pt x="42" y="301" on="0"/>
        <pt x="41" y="351" on="0"/>
        <pt x="39" y="392" on="0"/>
        <pt x="38" y="424" on="0"/>
        <pt x="37" y="432" on="1"/>
        <pt x="37" y="437" on="1"/>
        <pt x="37" y="442" on="0"/>
        <pt x="36" y="454" on="0"/>
        <pt x="36" y="459" on="1"/>
        <pt x="36" y="468" on="1"/>
        <pt x="36" y="471" on="0"/>
        <pt x="35" y="486" on="0"/>
        <pt x="37" y="500" on="0"/>
        <pt x="43" y="512" on="0"/>
        <pt x="51" y="514" on="1"/>
        <pt x="52" y="511" on="0"/>
        <pt x="57" y="500" on="0"/>
        <pt x="60" y="487" on="0"/>
        <pt x="64" y="475" on="0"/>
        <pt x="65" y="472" on="1"/>
        <pt x="72" y="430" on="0"/>
        <pt x="80" y="332" on="0"/>
        <pt x="83" y="280" on="1"/>
      </contour>
    </TTGlyph>
    <TTGlyph name="bullet" xMin="59" yMin="126" xMax="137" yMax="211">
      <contour>
        <pt x="59" y="163" on="1"/>
        <pt x="57" y="187" on="0"/>
        <pt x="74" y="210" on="0"/>
        <pt x="98" y="212" on="0"/>
        <pt x="123" y="200" on="0"/>
        <pt x="139" y="177" on="0"/>
        <pt x="134" y="148" on="0"/>
        <pt x="117" y="134" on="1"/>
        <pt x="106" y="126" on="0"/>
        <pt x="85" y="126" on="0"/>
        <pt x="67" y="136" on="0"/>
        <pt x="58" y="154" on="0"/>
      </contour>
    </TTGlyph>
    <TTGlyph name="c" xMin="19" yMin="-1" xMax="490" yMax="485">
      <contour>
        <pt x="19" y="156" on="1"/>
        <pt x="19" y="184" on="0"/>
        <pt x="31" y="255" on="0"/>
        <pt x="55" y="328" on="0"/>
        <pt x="89" y="398" on="0"/>
        <pt x="133" y="452" on="0"/>
        <pt x="187" y="485" on="0"/>
        <pt x="220" y="485" on="1"/>
        <pt x="245" y="485" on="1"/>
        <pt x="263" y="485" on="0"/>
        <pt x="297" y="478" on="0"/>
        <pt x="322" y="460" on="0"/>
        <pt x="322" y="443" on="1"/>
        <pt x="182" y="443" on="1"/>
        <pt x="168" y="443" on="0"/>
        <pt x="142" y="409" on="0"/>
        <pt x="119" y="358" on="0"/>
        <pt x="98" y="296" on="0"/>
        <pt x="84" y="238" on="0"/>
        <pt x="75" y="193" on="0"/>
        <pt x="75" y="184" on="1"/>
        <pt x="75" y="154" on="0"/>
        <pt x="90" y="101" on="0"/>
        <pt x="120" y="62" on="0"/>
        <pt x="166" y="40" on="0"/>
        <pt x="197" y="40" on="1"/>
        <pt x="233" y="40" on="0"/>
        <pt x="298" y="58" on="0"/>
        <pt x="354" y="84" on="0"/>
        <pt x="403" y="114" on="0"/>
        <pt x="444" y="140" on="0"/>
        <pt x="476" y="157" on="0"/>
        <pt x="490" y="157" on="1"/>
        <pt x="490" y="126" on="0"/>
        <pt x="454" y="77" on="0"/>
        <pt x="400" y="42" on="0"/>
        <pt x="330" y="19" on="0"/>
        <pt x="258" y="5" on="0"/>
        <pt x="193" y="-1" on="0"/>
        <pt x="170" y="-1" on="1"/>
        <pt x="136" y="-1" on="0"/>
        <pt x="79" y="22" on="0"/>
        <pt x="40" y="65" on="0"/>
        <pt x="19" y="122" on="0"/>
      </contour>
    </TTGlyph>
    <TTGlyph name="cacute" xMin="19" yMin="-1" xMax="490" yMax="733">
      <component glyphName="c" x="0" y="0" flags="0x1204"/>
      <component glyphName="acute" x="29" y="0" flags="0x1004"/>
    </TTGlyph>
    <TTGlyph name="caron" xMin="138" yMin="557" xMax="460" yMax="729">
      <contour>
        <pt x="184" y="646" on="1"/>
        <pt x="159" y="679" on="0"/>
        <pt x="138" y="716" on="0"/>
        <pt x="139" y="729" on="0"/>
        <pt x="157" y="722" on="0"/>
        <pt x="185" y="703" on="0"/>
        <pt x="220" y="676" on="0"/>
        <pt x="254" y="648" on="0"/>
        <pt x="267" y="635" on="1"/>
        <pt x="278" y="625" on="0"/>
        <pt x="284" y="618" on="1"/>
        <pt x="280" y="625" on="0"/>
        <pt x="285" y="634" on="1"/>
        <pt x="292" y="645" on="0"/>
        <pt x="325" y="670" on="0"/>
        <pt x="369" y="695" on="0"/>
        <pt x="412" y="715" on="0"/>
        <pt x="449" y="728" on="0"/>
        <pt x="465" y="730" on="0"/>
        <pt x="455" y="716" on="0"/>
        <pt x="431" y="700" on="1"/>
        <pt x="423" y="693" on="0"/>
        <pt x="390" y="661" on="0"/>
        <pt x="356" y="626" on="0"/>
        <pt x="328" y="598" on="0"/>
        <pt x="323" y="592" on="1"/>
        <pt x="321" y="590" on="0"/>
        <pt x="319" y="586" on="1"/>
        <pt x="314" y="576" on="1"/>
        <pt x="311" y="571" on="0"/>
        <pt x="308" y="560" on="0"/>
        <pt x="308" y="558" on="1"/>
        <pt x="306" y="557" on="0"/>
        <pt x="295" y="557" on="0"/>
        <pt x="292" y="557" on="1"/>
        <pt x="283" y="557" on="0"/>
        <pt x="249" y="582" on="0"/>
        <pt x="217" y="615" on="0"/>
        <pt x="189" y="643" on="0"/>
      </contour>
    </TTGlyph>
    <TTGlyph name="ccaron" xMin="19" yMin="-1" xMax="490" yMax="729">
      <component glyphName="c" x="0" y="0" flags="0x1204"/>
      <component glyphName="caron" x="-45" y="0" flags="0x1004"/>
    </TTGlyph>
    <TTGlyph name="ccedilla" xMin="19" yMin="-325" xMax="490" yMax="485">
      <contour>
        <pt x="139" y="-243" on="1"/>
        <pt x="139" y="-242" on="0"/>
        <pt x="139" y="-234" on="0"/>
        <pt x="139" y="-229" on="1"/>
        <pt x="139" y="-225" on="1"/>
        <pt x="144" y="-230" on="0"/>
        <pt x="157" y="-237" on="1"/>
        <pt x="172" y="-246" on="0"/>
        <pt x="214" y="-263" on="0"/>
        <pt x="258" y="-273" on="0"/>
        <pt x="298" y="-272" on="0"/>
        <pt x="321" y="-253" on="0"/>
        <pt x="323" y="-212" on="0"/>
        <pt x="309" y="-176" on="1"/>
        <pt x="300" y="-158" on="0"/>
        <pt x="268" y="-146" on="0"/>
        <pt x="232" y="-141" on="0"/>
        <pt x="193" y="-139" on="0"/>
        <pt x="163" y="-123" on="0"/>
        <pt x="144" y="-89" on="0"/>
        <pt x="144" y="-56" on="1"/>
        <pt x="139" y="-21" on="0"/>
        <pt x="139" y="2" on="1"/>
        <pt x="122" y="4" on="0"/>
        <pt x="107" y="11" on="1"/>
        <pt x="79" y="22" on="0"/>
        <pt x="40" y="65" on="0"/>
        <pt x="19" y="122" on="0"/>
        <pt x="19" y="156" on="1"/>
        <pt x="19" y="184" on="0"/>
        <pt x="31" y="255" on="0"/>
        <pt x="55" y="328" on="0"/>
        <pt x="89" y="398" on="0"/>
        <pt x="133" y="452" on="0"/>
        <pt x="187" y="485" on="0"/>
        <pt x="220" y="485" on="1"/>
        <pt x="245" y="485" on="1"/>
        <pt x="263" y="485" on="0"/>
        <pt x="297" y="478" on="0"/>
        <pt x="322" y="460" on="0"/>
        <pt x="322" y="443" on="1"/>
        <pt x="182" y="443" on="1"/>
        <pt x="168" y="443" on="0"/>
        <pt x="142" y="409" on="0"/>
        <pt x="119" y="358" on="0"/>
        <pt x="98" y="296" on="0"/>
        <pt x="84" y="238" on="0"/>
        <pt x="75" y="193" on="0"/>
        <pt x="75" y="184" on="1"/>
        <pt x="75" y="154" on="0"/>
        <pt x="90" y="101" on="0"/>
        <pt x="120" y="62" on="0"/>
        <pt x="143" y="50" on="1"/>
        <pt x="144" y="49" on="0"/>
        <pt x="147" y="49" on="1"/>
        <pt x="148" y="53" on="0"/>
        <pt x="150" y="55" on="1"/>
        <pt x="157" y="64" on="0"/>
        <pt x="166" y="58" on="1"/>
        <pt x="175" y="52" on="0"/>
        <pt x="181" y="40" on="1"/>
        <pt x="189" y="40" on="0"/>
        <pt x="197" y="40" on="1"/>
        <pt x="233" y="40" on="0"/>
        <pt x="298" y="58" on="0"/>
        <pt x="354" y="84" on="0"/>
        <pt x="403" y="114" on="0"/>
        <pt x="444" y="140" on="0"/>
        <pt x="476" y="157" on="0"/>
        <pt x="490" y="157" on="1"/>
        <pt x="490" y="126" on="0"/>
        <pt x="454" y="77" on="0"/>
        <pt x="400" y="42" on="0"/>
        <pt x="330" y="19" on="0"/>
        <pt x="258" y="5" on="0"/>
        <pt x="225" y="2" on="1"/>
        <pt x="206" y="1" on="0"/>
        <pt x="191" y="0" on="1"/>
        <pt x="190" y="-15" on="0"/>
        <pt x="184" y="-27" on="1"/>
        <pt x="184" y="-42" on="0"/>
        <pt x="195" y="-60" on="0"/>
        <pt x="212" y="-68" on="1"/>
        <pt x="241" y="-72" on="0"/>
        <pt x="296" y="-79" on="0"/>
        <pt x="338" y="-100" on="0"/>
        <pt x="364" y="-141" on="0"/>
        <pt x="363" y="-179" on="1"/>
        <pt x="377" y="-227" on="0"/>
        <pt x="362" y="-289" on="0"/>
        <pt x="320" y="-322" on="0"/>
        <pt x="261" y="-328" on="0"/>
        <pt x="202" y="-310" on="0"/>
        <pt x="152" y="-272" on="0"/>
      </contour>
    </TTGlyph>
    <TTGlyph name="ccircumflex" xMin="19" yMin="-1" xMax="490" yMax="840">
      <component glyphName="c" x="0" y="0" flags="0x1204"/>
      <component glyphName="circumflex" x="-64" y="0" flags="0x1004"/>
    </TTGlyph>
    <TTGlyph name="cdotaccent" xMin="19" yMin="-1" xMax="490" yMax="619">
      <component glyphName="c" x="0" y="0" flags="0x1204"/>
      <component glyphName="dotaccent" x="148" y="122" flags="0x1004"/>
    </TTGlyph>
    <TTGlyph name="cedilla" xMin="125" yMin="-325" xMax="357" yMax="58">
      <contour>
        <pt x="127" y="-243" on="1"/>
        <pt x="127" y="-242" on="0"/>
        <pt x="126" y="-234" on="0"/>
        <pt x="125" y="-229" on="1"/>
        <pt x="125" y="-225" on="1"/>
        <pt x="131" y="-230" on="0"/>
        <pt x="144" y="-237" on="1"/>
        <pt x="159" y="-246" on="0"/>
        <pt x="202" y="-263" on="0"/>
        <pt x="246" y="-273" on="0"/>
        <pt x="284" y="-272" on="0"/>
        <pt x="309" y="-253" on="0"/>
        <pt x="310" y="-212" on="0"/>
        <pt x="295" y="-176" on="1"/>
        <pt x="287" y="-158" on="0"/>
        <pt x="256" y="-146" on="0"/>
        <pt x="220" y="-141" on="0"/>
        <pt x="181" y="-139" on="0"/>
        <pt x="150" y="-123" on="0"/>
        <pt x="130" y="-89" on="0"/>
        <pt x="130" y="-56" on="1"/>
        <pt x="124" y="-5" on="0"/>
        <pt x="130" y="47" on="0"/>
        <pt x="145" y="64" on="0"/>
        <pt x="163" y="51" on="0"/>
        <pt x="176" y="23" on="0"/>
        <pt x="179" y="-13" on="0"/>
        <pt x="171" y="-27" on="1"/>
        <pt x="171" y="-42" on="0"/>
        <pt x="183" y="-60" on="0"/>
        <pt x="200" y="-68" on="1"/>
        <pt x="228" y="-72" on="0"/>
        <pt x="283" y="-79" on="0"/>
        <pt x="326" y="-100" on="0"/>
        <pt x="352" y="-141" on="0"/>
        <pt x="349" y="-179" on="1"/>
        <pt x="364" y="-227" on="0"/>
        <pt x="349" y="-289" on="0"/>
        <pt x="308" y="-322" on="0"/>
        <pt x="248" y="-328" on="0"/>
        <pt x="189" y="-310" on="0"/>
        <pt x="139" y="-272" on="0"/>
      </contour>
    </TTGlyph>
</ttFont>
